<svg width="62" height="63" viewBox="0 0 62 63" fill="none" xmlns="http://www.w3.org/2000/svg">
<circle cx="31" cy="31.1946" r="30.4238" fill="black" stroke="#303030" stroke-width="1.15242"/>
<path d="M32.2432 24.2003C27.6809 24.2003 23.0901 24.2003 18.5279 24.2003C17.7295 24.2003 17.1307 23.8792 16.7885 23.2101C16.4178 22.5143 16.4748 21.8452 16.9881 21.2297C17.3588 20.6944 17.9291 20.5071 18.5849 20.5071C23.9456 20.5071 29.2777 20.5071 34.6099 20.5071C38.4023 20.5071 42.1947 20.5071 46.0156 20.5071C46.9281 20.5071 47.641 21.0156 47.8691 21.8452C48.0972 22.6481 47.7835 23.5312 47.0422 23.9059C46.7 24.0933 46.2723 24.1735 45.8731 24.1735C41.3393 24.2003 36.777 24.2003 32.2432 24.2003Z" fill="white"/>
<path d="M32.2274 33.4335C27.6697 33.4335 23.0835 33.4335 18.5259 33.4335C17.7283 33.4335 17.1301 33.11 16.7882 32.436C16.4179 31.7351 16.4749 31.0612 16.9876 30.4411C17.3864 29.9289 17.9561 29.7402 18.6113 29.7402C23.1405 29.7402 27.6982 29.7402 32.2274 29.7402C36.8136 29.7402 41.3997 29.7402 45.9859 29.7402C46.8974 29.7402 47.6096 30.2524 47.8659 31.0612C48.0938 31.8699 47.809 32.7595 47.0398 33.1369C46.698 33.3256 46.2707 33.4065 45.8719 33.4065C41.3143 33.4335 36.7566 33.4335 32.2274 33.4335Z" fill="white"/>
<path d="M32.229 42.6664C27.6424 42.6664 23.0842 42.6664 18.5261 42.6664C17.7284 42.6664 17.1301 42.3429 16.7883 41.6689C16.4179 40.968 16.4749 40.2941 16.9877 39.674C17.3865 39.1618 17.9563 38.9731 18.6115 38.9731C23.3691 38.9731 28.1267 38.9731 32.8842 38.9731C37.243 38.9731 41.6302 38.9731 45.9889 38.9731C46.9005 38.9731 47.6127 39.4853 47.8691 40.321C48.097 41.1298 47.7837 42.0194 47.043 42.3968C46.7011 42.5855 46.2738 42.6664 45.8749 42.6664C41.3168 42.6664 36.7586 42.6664 32.229 42.6664Z" fill="white"/>
</svg>
