<svg width="52" height="52" viewBox="0 0 52 52" fill="none" xmlns="http://www.w3.org/2000/svg">
<circle cx="26.1045" cy="26.0022" r="24.6144" fill="black" stroke="black" stroke-width="1.28675"/>
<path d="M36.4345 14.7246H33.7723V11.8405C33.7723 11.5077 33.4395 11.1749 33.1067 11.1749H30.8882C30.4999 11.1749 30.2226 11.5077 30.2226 11.8405V14.7246H23.1232V11.8405C23.1232 11.5077 22.7905 11.1749 22.4577 11.1749H20.2391C19.8509 11.1749 19.5735 11.5077 19.5735 11.8405V14.7246H16.9113C15.4138 14.7246 14.249 15.9448 14.249 17.3869V36.9101C14.249 38.4076 15.4138 39.5724 16.9113 39.5724H36.4345C37.8766 39.5724 39.0968 38.4076 39.0968 36.9101V17.3869C39.0968 15.9448 37.8766 14.7246 36.4345 14.7246ZM36.1018 36.9101H17.2441C17.0222 36.9101 16.9113 36.7992 16.9113 36.5773V20.0491H36.4345V36.5773C36.4345 36.7992 36.2682 36.9101 36.1018 36.9101ZM33.1622 25.8174C33.384 25.54 33.384 25.1518 33.1622 24.8745L31.8865 23.5988C31.6647 23.3215 31.2209 23.3215 30.9436 23.5988L24.7871 29.6998L22.3467 27.2594C22.0694 26.9821 21.6812 26.9821 21.4039 27.2594L20.1282 28.4796C19.9063 28.7569 19.9063 29.2007 20.1282 29.4225L24.288 33.6378C24.5653 33.9151 25.009 33.9151 25.2309 33.6378L33.1622 25.8174Z" fill="white"/>
</svg>
