<svg width="51" height="52" viewBox="0 0 51 52" fill="none" xmlns="http://www.w3.org/2000/svg">
<circle cx="25.4336" cy="26.0063" r="24.7864" fill="#D59117" stroke="#D59117" stroke-width="0.942828"/>
<path d="M11.0098 19.0934C11.0937 18.8836 11.1776 18.5898 11.3035 18.38C12.2267 16.7434 13.4017 15.2747 14.7026 13.8898C15.1642 13.4282 15.6258 12.9666 16.1294 12.5889C17.1785 11.7916 18.1437 11.9595 18.8991 13.0086C19.4866 13.8479 20.0741 14.6872 20.5776 15.5684C21.2071 16.6175 21.7946 17.6666 22.2982 18.7577C22.8857 20.0166 22.7178 20.5202 21.7107 21.4434C21.291 21.8631 20.8294 22.2408 20.3678 22.6184C20.2419 22.7443 20.2 22.8283 20.2419 22.9961C21.6268 26.7309 24.2285 29.3327 27.9634 30.7176C28.1732 30.8015 28.2571 30.7595 28.425 30.5917C28.8027 30.1301 29.2223 29.6684 29.642 29.2068C29.8098 28.997 30.0196 28.8292 30.2295 28.6613C30.6491 28.3675 31.0687 28.2836 31.5723 28.4095C32.6214 28.7033 33.5446 29.2068 34.4259 29.7524C35.6429 30.5077 36.8179 31.3051 38.0348 32.0604C38.4964 32.3542 38.8322 32.8158 38.958 33.3613C39.042 33.697 39.042 33.9908 38.8741 34.2426C38.6643 34.5783 38.4125 34.956 38.1607 35.2497C36.65 36.9702 34.8875 38.3551 32.9571 39.572C32.2437 40.0336 31.5303 39.9497 30.817 39.7819C28.3411 39.2783 26.075 38.2292 23.9768 36.8863C19.4866 34.1167 15.8776 30.3818 13.2758 25.7658C12.3107 24.0452 11.5553 22.2407 11.1776 20.3104C11.1357 19.9327 11.0937 19.555 11.0098 19.0934ZM17.3044 14.0157C17.2205 14.0577 17.1785 14.0997 17.1366 14.1416C15.6258 15.5264 14.325 17.0791 13.1499 18.7577C12.9401 19.0515 12.8982 19.3452 12.9821 19.7229C13.2758 21.2756 13.7794 22.7024 14.5348 24.0872C17.3464 29.4167 21.4169 33.4872 26.6625 36.3827C28.1312 37.1801 29.6839 37.7676 31.3625 38.0613C31.5723 38.1033 31.8241 38.1872 32.0759 38.0194C33.7125 36.9702 35.1813 35.7113 36.5241 34.3265C36.692 34.1167 36.9018 33.9488 37.0696 33.697C35.2232 32.3122 33.2929 31.1792 31.2366 30.2559C31.1527 30.3818 31.0268 30.4658 30.9428 30.5497C30.3553 31.1792 29.8098 31.8086 29.2223 32.4381C28.9286 32.7318 28.5928 32.8158 28.1732 32.6899C26.2428 32.1863 24.5223 31.2211 22.9696 29.9622C20.7875 28.1577 19.2767 25.9336 18.3535 23.2479C18.1017 22.4925 18.1857 21.905 18.8151 21.4015C19.4026 20.9399 19.9482 20.3943 20.5357 19.8907C20.6616 19.7649 20.7035 19.6809 20.6196 19.5131C19.7384 17.6247 18.6892 15.8622 17.4723 14.1836C17.4723 14.1836 17.3884 14.0997 17.3044 14.0157Z" fill="white"/>
<path d="M25.9473 13.9737C25.9473 13.4282 26.4089 13.0085 26.9544 13.0505C32.3678 13.3862 37.5294 17.9184 37.991 24.0871C38.033 24.6327 37.6134 25.0943 37.0678 25.0943C36.5643 25.0943 36.1866 24.7166 36.1446 24.255C35.9348 21.8211 34.9696 19.6809 33.1651 17.9184C31.4026 16.1139 29.2625 15.1487 26.7866 14.9389C26.3249 14.855 25.9473 14.4773 25.9473 13.9737Z" fill="white"/>
<path d="M25.9473 18.6736C25.9473 18.1281 26.4089 17.6665 26.9544 17.7504C29.9758 18.0861 32.8714 20.6879 33.291 24.087C33.375 24.6325 32.9134 25.1361 32.3678 25.1361C31.9062 25.1361 31.5285 24.8004 31.4446 24.3388C31.2767 23.1638 30.7732 22.1147 29.8919 21.2334C29.0107 20.3522 27.9616 19.8486 26.7446 19.6388C26.3249 19.5129 25.9473 19.1352 25.9473 18.6736Z" fill="white"/>
</svg>
