<svg width="67" height="69" viewBox="0 0 67 69" fill="none" xmlns="http://www.w3.org/2000/svg">
<path d="M3.20804 9.67935C2.72555 9.62989 2.2913 9.62989 1.90531 9.48152C0.988568 9.18476 0.361328 8.34396 0.361328 7.35478C0.361328 5.82155 0.361328 4.28832 0.361328 2.75509C0.361328 1.51862 1.32632 0.578898 2.4843 0.529439C2.62905 0.529439 2.82205 0.529439 2.9668 0.529439C23.3763 0.529439 43.7857 0.529439 64.1952 0.47998C65.8839 0.47998 66.9454 1.667 66.8489 3.15077C66.7524 4.4367 66.8489 5.77209 66.8489 7.05802C66.8489 8.69017 66.0287 9.53097 64.4364 9.58043C64.3399 9.58043 64.1952 9.58043 64.0022 9.58043C64.2917 10.5202 64.6294 11.4599 64.9189 12.3501C65.1602 13.092 65.4014 13.8339 65.6427 14.5758C66.0287 15.7628 65.5944 16.3563 64.3882 16.4058C64.2917 16.4058 64.1952 16.4058 64.0022 16.4552C64.2917 17.395 64.5812 18.2852 64.8707 19.126C65.1119 19.8679 65.3532 20.6592 65.5944 21.4011C65.9804 22.5881 65.5462 23.1817 64.3882 23.2311C64.2917 23.2311 64.1952 23.2311 64.0022 23.2806C64.1952 23.8246 64.34 24.3687 64.4847 24.9127C64.8224 25.9019 65.1602 26.9405 65.4497 27.9297C65.9804 29.5619 65.6909 30.007 63.954 30.1059C64.0987 30.6005 64.2917 31.0951 64.4364 31.5402C64.8224 32.6778 65.1602 33.8153 65.5462 34.9529C65.9322 36.2388 65.5944 36.7829 64.2917 36.8323C64.1952 36.8323 64.0987 36.8818 63.954 36.8818C64.4847 38.5139 65.0154 40.0966 65.4979 41.6793C65.9322 43.0642 65.5462 43.6577 64.1469 43.6577C63.2302 43.6577 62.3135 43.6577 61.252 43.6577C61.252 43.9544 61.252 44.2512 61.252 44.4985C61.252 52.0162 61.252 59.4845 61.252 67.0023C61.252 68.3377 60.9625 68.6345 59.708 68.6345C42.29 68.6345 24.8237 68.6345 7.40573 68.6345C6.15125 68.6345 5.86176 68.3377 5.86176 67.0518C5.86176 59.534 5.86176 52.0657 5.86176 44.5479C5.86176 44.2512 5.86176 44.0039 5.86176 43.6577C4.80027 43.6577 3.78703 43.6577 2.77379 43.6577C1.66406 43.6577 1.22982 43.0147 1.56756 41.9266C2.05005 40.4428 2.53255 38.9096 3.01504 37.4258C3.06329 37.228 3.11154 37.0796 3.15979 36.8323C2.96679 36.8323 2.82204 36.7829 2.62905 36.7829C1.66406 36.7334 1.22982 36.0904 1.51932 35.1507C2.00181 33.6175 2.4843 32.0843 2.9668 30.6005C3.01505 30.4027 3.06329 30.2543 3.11154 30.007C2.91854 30.007 2.7738 29.9575 2.5808 29.9575C1.61581 29.9081 1.18157 29.2651 1.47106 28.3254C1.95356 26.7922 2.43605 25.2589 2.91854 23.7752C2.96679 23.5773 3.01504 23.4289 3.06329 23.1817C2.8703 23.1817 2.77379 23.1322 2.62905 23.1322C1.56756 23.0827 1.13332 22.4892 1.42281 21.4506C1.90531 19.9174 2.3878 18.3841 2.87029 16.9004C2.91854 16.752 2.96679 16.6036 3.01504 16.4058C2.82204 16.4058 2.6773 16.3563 2.53255 16.3563C1.51931 16.3069 1.08507 15.6639 1.42281 14.6747C1.90531 13.1415 2.3878 11.6083 2.87029 10.1245C3.11154 10.075 3.15979 9.87719 3.20804 9.67935ZM14.8361 43.7566C14.8361 49.0487 14.8361 54.3408 14.8361 59.6329C27.381 59.6329 39.8775 59.6329 52.4224 59.6329C52.4224 54.3408 52.4224 49.0487 52.4224 43.806C50.9266 43.806 49.5274 43.806 48.0317 43.806C48.0317 46.0812 48.0317 48.2574 48.0317 50.483C48.0317 50.6808 48.2729 50.8787 48.4659 50.9776C49.8169 51.7689 50.4924 53.3022 50.1064 54.7859C49.7204 56.3686 48.4177 57.4073 46.8254 57.4073C45.2815 57.4073 44.027 56.3686 43.5927 54.7859C43.2067 53.3022 43.8822 51.7689 45.2332 51.0271C45.6192 50.8292 45.7157 50.5819 45.7157 50.1368C45.7157 48.2079 45.7157 46.279 45.7157 44.3996C45.7157 44.2017 45.6675 44.0039 45.6675 43.806C35.4386 43.7566 25.1615 43.7566 14.8361 43.7566ZM2.62905 7.30532C23.328 7.30532 43.9787 7.30532 64.6294 7.30532C64.6294 5.77209 64.6294 4.28832 64.6294 2.85401C43.9305 2.85401 23.328 2.85401 2.62905 2.85401C2.62905 4.33778 2.62905 5.82155 2.62905 7.30532ZM59.0808 61.9575C42.0488 61.9575 25.1132 61.9575 8.17772 61.9575C8.17772 63.4907 8.17772 64.9745 8.17772 66.4088C25.1615 66.4088 42.097 66.4088 59.0808 66.4088C59.0808 64.925 59.0808 63.4413 59.0808 61.9575ZM11.4587 14.1307C26.2712 14.1307 40.9873 14.1307 55.7033 14.1307C55.7033 12.5974 55.7033 11.1137 55.7033 9.67935C40.939 9.67935 26.223 9.67935 11.4587 9.67935C11.4587 11.1631 11.4587 12.6469 11.4587 14.1307ZM55.7033 21.0055C55.7033 19.5217 55.7033 18.0379 55.7033 16.5047C40.939 16.5047 26.223 16.5047 11.4587 16.5047C11.4587 18.0379 11.4587 19.5217 11.4587 21.0055C26.2712 21.0055 40.939 21.0055 55.7033 21.0055ZM11.4587 27.7813C26.2712 27.7813 40.9873 27.7813 55.7033 27.7813C55.7033 26.2481 55.7033 24.7643 55.7033 23.33C40.939 23.33 26.223 23.33 11.4587 23.33C11.4587 24.8138 11.4587 26.2481 11.4587 27.7813ZM55.7516 30.1554C40.939 30.1554 26.223 30.1554 11.5069 30.1554C11.5069 31.6886 11.5069 33.1724 11.5069 34.6067C26.2712 34.6067 40.9873 34.6067 55.7516 34.6067C55.7516 33.1229 55.7516 31.6391 55.7516 30.1554ZM11.4587 41.432C26.2712 41.432 40.9873 41.432 55.7033 41.432C55.7033 39.8988 55.7033 38.415 55.7033 36.9807C40.939 36.9807 26.223 36.9807 11.4587 36.9807C11.4587 38.415 11.4587 39.8988 11.4587 41.432ZM8.17772 43.7566C8.17772 49.0487 8.17772 54.3408 8.17772 59.5835C9.67345 59.5835 11.1209 59.5835 12.5202 59.5835C12.5202 54.2914 12.5202 49.0487 12.5202 43.7566C11.0727 43.7566 9.6252 43.7566 8.17772 43.7566ZM54.7383 43.7566C54.7383 49.0982 54.7383 54.3408 54.7383 59.5835C56.2341 59.5835 57.6815 59.5835 59.0808 59.5835C59.0808 54.2914 59.0808 49.0487 59.0808 43.7566C57.6333 43.7566 56.1858 43.7566 54.7383 43.7566ZM9.19096 14.1801C9.19096 12.6469 9.19096 11.1631 9.19096 9.67935C8.08122 9.67935 7.01974 9.67935 5.95825 9.67935C5.81351 9.67935 5.57225 9.82773 5.52401 9.92665C5.04151 11.3115 4.60727 12.7458 4.12478 14.1801C5.86175 14.1801 7.50223 14.1801 9.19096 14.1801ZM63.0855 14.1801C62.603 12.6964 62.1687 11.3115 61.6862 9.92665C61.638 9.77827 61.445 9.67935 61.3002 9.62989C60.2388 9.62989 59.129 9.62989 58.0193 9.62989C58.0193 11.1631 58.0193 12.6469 58.0193 14.1307C59.708 14.1801 61.3485 14.1801 63.0855 14.1801ZM9.19096 20.956C9.19096 19.4228 9.19096 17.939 9.19096 16.4552C8.08122 16.4552 7.01974 16.4552 5.95825 16.4552C5.81351 16.4552 5.57225 16.5541 5.52401 16.7025C5.04151 18.0874 4.60727 19.5217 4.12478 20.956C5.86175 20.956 7.50223 20.956 9.19096 20.956ZM58.0675 16.4552C58.0675 18.0379 58.0675 19.5217 58.0675 20.956C59.7563 20.956 61.3967 20.956 63.0855 20.956C62.603 19.5217 62.1687 18.0874 61.6862 16.7025C61.638 16.6036 61.3967 16.4552 61.252 16.4552C60.1905 16.4552 59.129 16.4552 58.0675 16.4552ZM9.19096 23.2806C8.08122 23.2806 7.01973 23.2806 6.0065 23.2806C5.86175 23.2806 5.57225 23.4289 5.52401 23.5279C5.04151 24.9127 4.60727 26.347 4.12478 27.7813C5.86175 27.7813 7.50223 27.7813 9.19096 27.7813C9.19096 26.2481 9.19096 24.8138 9.19096 23.2806ZM58.0193 27.7813C59.708 27.7813 61.3485 27.7813 63.0855 27.7813C62.6512 26.347 62.1687 24.9622 61.7345 23.5773C61.6862 23.4784 61.5415 23.2806 61.3967 23.2806C60.287 23.2806 59.1773 23.2806 58.0193 23.2806C58.0193 24.8138 58.0193 26.2481 58.0193 27.7813ZM9.19096 30.1059C8.46722 30.1059 7.79173 30.1059 7.16449 30.1059C5.62051 30.1059 5.62051 30.1059 5.08976 31.5897C4.75202 32.5789 4.46252 33.568 4.12478 34.6067C5.86175 34.6067 7.50223 34.6067 9.19096 34.6067C9.19096 33.0735 9.19096 31.6391 9.19096 30.1059ZM58.0193 30.1059C58.0193 31.6391 58.0193 33.1229 58.0193 34.6067C59.708 34.6067 61.3485 34.6067 63.0372 34.6067C62.5547 33.1724 62.1205 31.7381 61.638 30.3532C61.5897 30.2048 61.3002 30.1059 61.1555 30.1059C60.1905 30.0565 59.129 30.1059 58.0193 30.1059ZM4.17303 41.3826C5.91001 41.3826 7.59873 41.3826 9.23921 41.3826C9.23921 39.8493 9.23921 38.415 9.23921 36.8818C8.12948 36.8818 7.06799 36.8818 5.95825 36.8818C5.81351 36.8818 5.62051 37.0302 5.57226 37.1785C5.04151 38.5634 4.60727 39.9482 4.17303 41.3826ZM63.0855 41.432C62.603 39.9482 62.1687 38.5634 61.6862 37.1785C61.638 37.0302 61.445 36.9313 61.3002 36.8818C60.2388 36.8818 59.129 36.8818 58.0193 36.8818C58.0193 38.415 58.0193 39.8988 58.0193 41.3826C59.708 41.432 61.3485 41.432 63.0855 41.432ZM46.8737 55.0827C47.4527 55.1322 47.9834 54.5881 48.0317 53.9946C48.0799 53.4011 47.5492 52.857 46.9702 52.8076C46.3912 52.7581 45.8604 53.3022 45.8122 53.8957C45.764 54.4892 46.2947 55.0332 46.8737 55.0827Z" fill="white"/>
</svg>
