<svg width="91" height="72" viewBox="0 0 91 72" fill="none" xmlns="http://www.w3.org/2000/svg">
<path d="M90.2407 40.0587C89.8857 41.6849 89.3046 42.0865 87.6684 41.6339C72.7132 37.4597 63.0605 34.6249 48.0869 30.5206L51.0828 28.2173C65.8768 32.3094 73.3246 34.4425 88.1186 38.5346C88.5958 38.6666 89.1228 38.8873 89.625 39.0637C89.8922 39.4375 90.0665 39.7481 90.2407 40.0587Z" fill="white"/>
<path d="M8.05819 31.0715C5.91114 31.0715 3.96381 31.0715 1.96656 31.0715C1.21759 31.0715 0.568487 30.9179 0.268899 30.099C-0.0306894 29.3313 0.268889 28.7171 0.868066 28.2052C9.95557 19.6065 18.9931 10.9565 28.0806 2.30657C29.0793 1.33409 29.6785 1.38527 30.727 2.35775C38.6162 9.83049 46.4554 17.3032 54.3445 24.8272C55.5429 25.9532 56.6913 27.0792 57.8897 28.2052C58.4389 28.7171 58.7884 29.3313 58.4888 30.099C58.1893 30.8668 57.5401 31.0715 56.7912 31.0715C54.7939 31.0715 52.7967 31.0715 50.6996 31.0715C50.6996 31.481 50.6996 31.7881 50.6996 32.1463C50.6996 44.5839 50.6996 57.0214 50.6996 69.4589C50.6996 71.1991 50.3001 71.6597 48.6024 71.6597C35.82 71.6597 23.0376 71.6597 10.2552 71.6597C8.5575 71.6597 8.15804 71.2503 8.15804 69.51C8.15804 57.0725 8.15804 44.6862 8.15804 32.2487C8.05818 31.9416 8.05819 31.5833 8.05819 31.0715ZM5.46175 28.0517C6.8099 28.0517 7.90839 28.0517 8.95695 28.0517C10.6047 28.0517 11.0541 28.5123 11.0541 30.2014C11.0541 42.6389 11.0541 55.0764 11.0541 67.5139C11.0541 67.8722 11.0541 68.2305 11.0541 68.5888C23.2872 68.5888 35.4705 68.5888 47.6537 68.5888C47.6537 68.1793 47.6537 67.821 47.6537 67.4627C47.6537 54.974 47.6537 42.5365 47.6537 30.0478C47.6537 28.6147 48.153 28.1029 49.5511 28.1029C50.6995 28.1029 51.848 28.1029 53.2461 28.1029C45.1572 20.4254 37.268 12.9015 29.3289 5.37756C21.3898 12.8503 13.5007 20.3742 5.46175 28.0517Z" fill="white"/>
<path d="M63.4506 32.5831C64.7881 33.0034 65.092 34.4116 64.3159 35.2053C64.1678 35.3765 63.9232 35.5213 63.7397 35.6299C59.3367 38.2357 54.9337 40.8415 50.4824 43.4341C50.1766 43.6151 49.8226 43.7828 49.5074 43.8022C48.8287 43.8277 48.2887 43.5204 48.058 42.8212C47.779 42.1087 47.9823 41.5287 48.5714 41.0546C48.7067 40.9328 48.8772 40.8736 49.0124 40.7518C53.4155 38.146 57.7703 35.5269 62.1604 32.9706C62.672 32.7932 63.1577 32.7146 63.4506 32.5831Z" fill="white"/>
<path d="M29.3267 34.142C32.5223 34.142 35.7179 34.142 38.9135 34.142C40.1618 34.142 40.7111 34.705 40.761 35.9846C40.761 42.4849 40.761 49.0363 40.761 55.5366C40.761 56.8673 40.2118 57.4303 38.8636 57.4303C32.5223 57.4303 26.1311 57.4303 19.7898 57.4303C18.4417 57.4303 17.9424 56.8673 17.9424 55.4854C17.9424 48.9851 17.9424 42.4849 17.9424 36.0358C17.9424 34.6026 18.4417 34.0908 19.8398 34.0908C23.0354 34.142 26.181 34.142 29.3267 34.142ZM37.7152 37.2642C32.1229 37.2642 26.5805 37.2642 20.9882 37.2642C20.9882 42.9967 20.9882 48.678 20.9882 54.3593C26.5805 54.3593 32.1229 54.3593 37.7152 54.3593C37.7152 48.6268 37.7152 42.9967 37.7152 37.2642Z" fill="white"/>
<path d="M74.2415 19.8348C77.2965 19.8348 79.773 17.2962 79.773 14.1646C79.773 11.033 77.2965 8.49438 74.2415 8.49438C71.1865 8.49438 68.71 11.033 68.71 14.1646C68.71 17.2962 71.1865 19.8348 74.2415 19.8348Z" fill="white" stroke="white" stroke-width="2.54752" stroke-miterlimit="10" stroke-linecap="round"/>
<path d="M74.2471 1.60229V7.57782" stroke="white" stroke-width="2.54752" stroke-miterlimit="10" stroke-linecap="round"/>
<path d="M74.2471 20.7068V26.6823" stroke="white" stroke-width="2.54752" stroke-miterlimit="10" stroke-linecap="round"/>
<path d="M78.5811 18.8752L81.3468 21.7103" stroke="white" stroke-width="2.54752" stroke-miterlimit="10" stroke-linecap="round"/>
<path d="M67.0557 7.05469L69.8214 9.88979" stroke="white" stroke-width="2.54752" stroke-miterlimit="10" stroke-linecap="round"/>
<path d="M78.6299 9.67071L81.3956 6.79199" stroke="white" stroke-width="2.54752" stroke-miterlimit="10" stroke-linecap="round"/>
<path d="M67.1035 21.4923L69.8693 18.6572" stroke="white" stroke-width="2.54752" stroke-miterlimit="10" stroke-linecap="round"/>
<path d="M62.6318 14.1646L68.5038 14.1646" stroke="white" stroke-width="2.54752" stroke-miterlimit="10" stroke-linecap="round"/>
<path d="M80.5449 13.8584L86.3743 13.8584" stroke="white" stroke-width="2.54752" stroke-miterlimit="10" stroke-linecap="round"/>
</svg>
