<svg width="68" height="69" viewBox="0 0 68 69" fill="none" xmlns="http://www.w3.org/2000/svg">
<path d="M2.81222 7.30312C2.37798 7.30312 2.04024 7.30312 1.7025 7.30312C1.07526 7.25363 0.641022 6.85767 0.592773 6.21425C0.592773 4.67992 0.592773 3.0961 0.592773 1.56178C0.592773 0.91835 1.02701 0.522395 1.65425 0.4729C1.84724 0.4729 2.08849 0.4729 2.28148 0.4729C23.3662 0.4729 44.4027 0.4729 65.4875 0.4729C66.8867 0.4729 67.1279 0.769867 67.1279 2.15571C67.1279 3.34357 67.1279 4.58093 67.1279 5.7688C67.1279 6.90717 66.7902 7.25363 65.6805 7.25363C65.4392 7.25363 65.198 7.25363 64.9085 7.25363C64.9085 7.60009 64.9085 7.89705 64.9085 8.19402C64.9085 27.7443 64.9085 47.3441 64.9085 66.8943C64.9085 68.4287 64.6672 68.6761 63.1233 68.6761C57.1887 68.6761 51.2541 68.6761 45.3195 68.6761C44.1615 68.6761 43.8237 68.3297 43.8237 67.1418C43.8237 64.0237 44.2097 60.955 45.03 57.9853C45.0782 57.7874 45.1265 57.5894 45.1747 57.3419C37.5996 57.3419 30.1211 57.3419 22.546 57.3419C22.8355 58.6288 23.1732 59.9156 23.318 61.2025C23.5592 63.2812 23.704 65.4095 23.8487 67.4883C23.897 68.2307 23.4627 68.6761 22.6907 68.6761C16.4666 68.6761 10.2425 68.6761 3.97019 68.6761C3.19821 68.6761 2.81222 68.2307 2.76397 67.4388C2.76397 67.2408 2.76397 66.9933 2.76397 66.7953C2.76397 47.2946 2.76397 27.7443 2.76397 8.24352C2.81222 7.94655 2.81222 7.64958 2.81222 7.30312ZM30.5071 50.5117C30.5071 36.0593 30.5071 21.706 30.5071 7.35262C29.3973 7.35262 28.3359 7.35262 27.2261 7.35262C26.8401 19.7262 23.1732 31.0604 17.0456 41.5532C18.7343 42.7906 18.9273 45.6613 17.5281 47.8885C18.0589 48.6309 18.5896 49.3733 19.1686 50.0662C19.3616 50.3137 19.6993 50.4622 19.9888 50.5117C21.3398 50.5612 22.6425 50.5117 23.9935 50.5117C26.1647 50.5117 28.2876 50.5117 30.5071 50.5117ZM37.2136 7.30312C37.2136 21.706 37.2136 36.1088 37.2136 50.5117C40.8323 50.5117 44.4027 50.5117 47.9731 50.5117C48.1179 50.5117 48.3109 50.4127 48.3591 50.3137C48.9864 49.5218 49.5654 48.6804 50.1926 47.839C48.7934 46.0572 48.9864 42.9886 50.6268 41.5037C44.5475 31.0109 40.8806 19.6767 40.4946 7.30312C39.3848 7.30312 38.3234 7.30312 37.2136 7.30312ZM53.763 7.35262C53.9077 10.3718 53.956 13.2919 54.2937 16.1626C54.728 20.2212 55.2105 24.2797 55.9342 28.2887C56.7544 32.5452 57.9124 36.7523 58.9256 40.9593C58.9739 41.1573 59.1669 41.4047 59.3116 41.4047C60.4213 41.4542 61.5311 41.4047 62.6408 41.4047C62.6408 29.9715 62.6408 18.6373 62.6408 7.30312C59.6976 7.35262 56.8027 7.35262 53.763 7.35262ZM5.07992 7.35262C5.07992 18.7363 5.07992 30.0705 5.07992 41.4542C6.18964 41.4542 7.20287 41.4542 8.21609 41.4542C8.40909 41.4542 8.69858 41.2068 8.74683 41.0088C10.146 36.3068 11.2558 31.5059 12.076 26.7049C12.8962 21.8545 13.427 17.004 13.6682 12.1041C13.7647 10.5697 13.6682 8.98593 13.6682 7.40211C10.918 7.35262 8.0231 7.35262 5.07992 7.35262ZM51.5918 7.35262C48.6004 7.35262 45.7054 7.35262 42.7623 7.35262C42.7623 7.55059 42.7623 7.69908 42.7623 7.84756C42.9553 13.7374 44.0167 19.4787 45.8019 25.0716C47.5871 30.615 49.9031 35.8614 52.9428 40.7613C53.0875 41.0088 53.377 41.3057 53.6183 41.3552C54.6315 41.4047 55.6447 41.4047 56.7062 41.4047C53.4735 30.2685 51.7848 18.9343 51.5918 7.35262ZM11.0145 41.4047C12.1242 41.4047 13.1375 41.4047 14.1507 41.4047C14.3437 41.4047 14.5367 41.2068 14.6814 41.0583C15.2604 40.1674 15.7912 39.2765 16.2736 38.3361C20.7608 30.0705 23.704 21.31 24.7172 11.9061C24.8619 10.4213 24.9102 8.88694 25.0067 7.35262C22.0153 7.35262 19.0721 7.35262 16.1289 7.35262C16.0324 13.1435 15.5499 18.8848 14.7297 24.5767C13.8612 30.2685 12.6067 35.8614 11.0145 41.4047ZM64.8602 2.79914C44.1615 2.79914 23.511 2.79914 2.86047 2.79914C2.86047 3.59105 2.86047 4.28397 2.86047 4.97689C23.5592 4.97689 44.2097 4.97689 64.8602 4.97689C64.8602 4.23447 64.8602 3.54155 64.8602 2.79914ZM21.581 66.3994C21.7258 63.5782 20.7608 58.6783 19.4581 55.5601C18.3966 52.9864 16.9974 50.6107 15.0192 48.6309C14.8262 48.4824 14.6332 48.235 14.3919 48.235C13.3787 48.1855 12.3172 48.235 11.2075 48.235C13.2822 54.1743 13.7165 60.2621 13.9095 66.3994C16.5149 66.3994 19.0238 66.3994 21.581 66.3994ZM53.8113 66.3994C53.956 60.2126 54.4385 54.1743 56.5132 48.235C55.5482 48.235 54.6797 48.2845 53.8113 48.235C53.2805 48.1855 52.9428 48.3834 52.605 48.7299C50.7716 50.6107 49.4206 52.8874 48.3591 55.3127C46.8634 58.8268 46.2362 62.5388 46.0914 66.3994C48.6486 66.3994 51.2058 66.3994 53.8113 66.3994ZM62.6408 66.3994C62.6408 60.3116 62.6408 54.2733 62.6408 48.235C61.5311 48.235 60.4213 48.235 59.3599 48.235C59.1669 48.235 58.8774 48.4329 58.8291 48.6309C58.4914 49.4228 58.2019 50.2147 58.0089 51.0066C56.8992 54.8672 56.4649 58.8268 56.2237 62.8358C56.1754 64.0237 56.2237 65.162 56.2237 66.3994C58.2984 66.3994 60.4213 66.3994 62.6408 66.3994ZM11.6418 66.3994C11.6418 66.2509 11.69 66.1519 11.69 66.0529C11.5935 62.3903 11.4005 58.7278 10.6768 55.1147C10.2425 52.9864 9.56706 50.8582 8.98807 48.7794C8.93982 48.5814 8.69858 48.235 8.55383 48.235C7.39586 48.235 6.23789 48.235 5.07992 48.235C5.07992 54.3723 5.07992 60.3611 5.07992 66.3994C7.25111 66.3994 9.42231 66.3994 11.6418 66.3994ZM34.9459 50.4622C34.9459 36.0593 34.9459 21.6565 34.9459 7.35262C34.174 7.35262 33.4985 7.35262 32.823 7.35262C32.823 21.7555 32.823 36.1088 32.823 50.4622C33.4985 50.4622 34.174 50.4622 34.9459 50.4622ZM46.9599 52.8379C38.2269 52.8379 29.5421 52.8379 20.809 52.8379C21.0503 53.4319 21.2915 53.9268 21.4845 54.4218C21.6293 54.9167 21.9188 55.0652 22.4495 55.0652C27.1296 55.0652 31.8098 55.0652 36.5382 55.0652C39.5296 55.0652 42.521 55.0652 45.4642 55.0652C45.7054 55.0652 46.0432 55.0157 46.1397 54.8672C46.3809 54.2238 46.6222 53.5309 46.9599 52.8379ZM5.07992 45.9087C8.79508 45.9087 12.462 45.9087 16.0807 45.9087C16.0807 45.1168 16.0807 44.4239 16.0807 43.731C12.3655 43.731 8.74683 43.731 5.07992 43.731C5.07992 44.4734 5.07992 45.1663 5.07992 45.9087ZM62.6408 43.731C58.9256 43.731 55.2587 43.731 51.6401 43.731C51.6401 44.5229 51.6401 45.2158 51.6401 45.9087C55.3552 45.9087 58.9739 45.9087 62.6408 45.9087C62.6408 45.2158 62.6408 44.4734 62.6408 43.731Z" fill="white"/>
</svg>
