<svg width="71" height="67" viewBox="0 0 71 67" fill="none" xmlns="http://www.w3.org/2000/svg">
<path d="M45.3597 44.03C45.3597 41.0022 45.3597 38.077 45.3597 35.0493C43.9579 35.0493 42.5561 35.0493 41.1543 35.0493C40.5035 35.0493 39.8527 35.0493 39.2019 35.0493C38.4509 34.9979 38.0004 34.5874 38.0004 33.9716C38.0504 33.2531 38.501 32.9452 39.1518 32.9452C41.0041 32.9452 42.8565 32.9452 44.7088 32.9452C44.9091 32.9452 45.1093 32.8939 45.3597 32.8939C45.3597 29.9687 45.3597 27.0436 45.3597 24.0671C42.3058 24.0671 39.302 24.0671 36.148 24.0671C36.148 24.3237 36.098 24.5803 36.098 24.8882C36.098 26.9923 36.098 29.0963 36.098 31.2004C36.098 32.1754 35.6975 32.6886 34.9465 32.6886C34.1956 32.6886 33.7951 32.1754 33.7951 31.2004C33.7951 29.0963 33.7951 27.0436 33.7951 24.9395C33.7951 24.6316 33.7951 24.375 33.7951 24.0158C30.6911 24.0158 27.6373 24.0158 24.4833 24.0158C24.4833 24.7343 24.4833 25.4527 24.4833 26.1712C24.4833 26.9923 24.0327 27.5055 23.3318 27.5055C22.6309 27.5055 22.2304 26.9923 22.1804 26.1712C22.1804 25.5041 22.1804 24.7856 22.1804 24.0671C19.0264 24.0671 15.9725 24.0671 12.8185 24.0671C12.8185 24.529 12.8185 24.9395 12.8185 25.4014C12.8185 26.0686 12.418 26.4278 11.8173 26.4791C11.1665 26.5304 10.6658 26.2225 10.5657 25.5554C10.5156 25.0935 10.5657 24.5803 10.5657 24.0671C7.91235 24.0671 5.30905 24.0671 2.60563 24.0671C2.60563 25.2988 2.60563 26.5817 2.60563 27.8134C2.60563 29.6095 2.60563 31.4057 2.60563 33.2018C2.60563 34.1255 2.05496 34.69 1.25395 34.5361C0.553063 34.4334 0.302734 33.9203 0.302734 33.2018C0.302734 29.6095 0.302734 25.9659 0.302734 22.3736C0.302734 15.5996 0.302734 8.8769 0.302734 2.10288C0.302734 0.717285 0.553057 0.460693 1.90476 0.460693C19.1766 0.460693 36.4484 0.460693 53.7703 0.460693C58.9268 0.460693 64.0833 0.460693 69.2398 0.460693C70.3913 0.460693 70.6917 0.768603 70.6917 2.00024C70.6917 23.1434 70.6917 44.2866 70.6917 65.4297C70.6917 66.61 70.3913 66.918 69.1898 66.918C58.4762 66.918 47.7627 66.918 37.0492 66.918C36.899 66.918 36.7488 66.918 36.5986 66.918C35.7475 66.918 35.297 66.5074 35.297 65.8403C35.297 65.1731 35.7475 64.7626 36.5986 64.7626C39.2019 64.7626 41.8052 64.7626 44.4084 64.7626C44.7088 64.7626 44.9592 64.7626 45.3096 64.7626C45.3096 62.248 45.3096 59.836 45.3096 57.2188C44.859 57.2188 44.4085 57.2188 43.9579 57.2188C43.257 57.1675 42.8064 56.7569 42.8565 56.1411C42.9066 55.474 43.3071 55.1661 43.9579 55.1147C44.4085 55.0634 44.859 55.1147 45.3597 55.1147C45.3597 52.1383 45.3597 49.1618 45.3597 46.134C44.6588 46.134 43.9579 46.134 43.257 46.134C42.506 46.134 42.0054 45.6722 42.0054 45.1077C42.0054 44.4918 42.5061 44.0813 43.2069 44.03C43.9579 44.03 44.6087 44.03 45.3597 44.03ZM47.7627 21.7578C50.8666 21.7578 53.9205 21.7578 56.9743 21.7578C56.9743 18.7813 56.9743 15.8562 56.9743 12.8797C53.8704 12.8797 50.8165 12.8797 47.7627 12.8797C47.7627 15.8562 47.7627 18.7813 47.7627 21.7578ZM57.0244 35.1006C53.9205 35.1006 50.8666 35.1006 47.8128 35.1006C47.8128 38.077 47.8128 41.0022 47.8128 43.9787C50.9167 43.9787 53.9205 43.9787 57.0244 43.9787C57.0244 41.0022 57.0244 38.077 57.0244 35.1006ZM12.9187 12.8797C12.9187 15.8562 12.9187 18.7813 12.9187 21.7065C16.0226 21.7065 19.0765 21.7065 22.1804 21.7065C22.1804 18.73 22.1804 15.8049 22.1804 12.8797C19.0765 12.8797 15.9725 12.8797 12.9187 12.8797ZM33.7951 21.7578C33.7951 18.7813 33.7951 15.8562 33.7951 12.8797C33.5447 12.8797 33.2944 12.8284 33.0942 12.8284C30.4909 12.8284 27.8876 12.8284 25.2843 12.8284C24.6335 12.8284 24.4833 13.0337 24.5334 13.6495C24.5834 16.1128 24.5334 18.5761 24.5334 21.0394C24.5334 21.2446 24.5834 21.5012 24.5834 21.7578C27.6373 21.7578 30.6911 21.7578 33.7951 21.7578ZM47.7627 55.0634C50.8666 55.0634 53.9205 55.0634 57.0244 55.0634C57.0244 52.087 57.0244 49.1105 57.0244 46.1853C53.9205 46.1853 50.8666 46.1853 47.7627 46.1853C47.7627 49.1618 47.7627 52.087 47.7627 55.0634ZM47.7627 24.0158C47.7627 26.9923 47.7627 29.9174 47.7627 32.8426C50.8666 32.8426 53.9205 32.8426 56.9743 32.8426C56.9743 29.8661 56.9743 26.941 56.9743 24.0158C53.9205 24.0158 50.8666 24.0158 47.7627 24.0158ZM45.3597 12.8797C42.2557 12.8797 39.2519 12.8797 36.148 12.8797C36.148 15.8562 36.148 18.7813 36.148 21.7065C39.2519 21.7065 42.2557 21.7065 45.3597 21.7065C45.3597 18.7813 45.3597 15.9075 45.3597 12.8797ZM59.3774 43.9787C62.3812 43.9787 65.385 43.9787 68.3887 43.9787C68.3887 41.0022 68.3887 38.077 68.3887 35.1006C65.385 35.1006 62.3812 35.1006 59.3774 35.1006C59.3774 38.077 59.3774 41.0022 59.3774 43.9787ZM68.3887 46.1853C65.3349 46.1853 62.3811 46.1853 59.4274 46.1853C59.4274 49.1618 59.4274 52.1383 59.4274 55.0634C62.4312 55.0634 65.435 55.0634 68.3887 55.0634C68.3887 52.087 68.3887 49.1618 68.3887 46.1853ZM68.3887 32.8426C68.3887 29.8661 68.3887 26.941 68.3887 24.0158C65.3349 24.0158 62.3812 24.0158 59.3774 24.0158C59.3774 26.9923 59.3774 29.8661 59.3774 32.8426C62.3812 32.8426 65.3349 32.8426 68.3887 32.8426ZM68.3887 12.9311C65.3349 12.9311 62.3311 12.9311 59.3774 12.9311C59.3774 15.9075 59.3774 18.8327 59.3774 21.7578C62.3812 21.7578 65.385 21.7578 68.3887 21.7578C68.3887 18.7813 68.3887 15.8562 68.3887 12.9311ZM22.1804 10.673C22.1804 7.90185 22.1804 5.28462 22.1804 2.56475C19.0765 2.56475 16.0226 2.56475 12.9187 2.56475C12.9187 5.28462 12.9187 7.95317 12.9187 10.673C16.0226 10.673 19.0765 10.673 22.1804 10.673ZM24.5334 10.6217C27.6873 10.6217 30.7412 10.6217 33.7951 10.6217C33.7951 7.90185 33.7951 5.2333 33.7951 2.56475C30.6911 2.56475 27.6373 2.56475 24.5334 2.56475C24.5334 5.28462 24.5334 7.95317 24.5334 10.6217ZM47.8128 2.56475C47.8128 5.28462 47.8128 8.00449 47.8128 10.673C50.9167 10.673 53.9705 10.673 57.0244 10.673C57.0244 7.95317 57.0244 5.28462 57.0244 2.56475C53.9205 2.56475 50.9167 2.56475 47.8128 2.56475ZM36.1981 2.56475C36.1981 5.28462 36.1981 8.00449 36.1981 10.673C39.302 10.673 42.3058 10.673 45.3597 10.673C45.3597 7.95317 45.3597 5.28462 45.3597 2.56475C42.3058 2.56475 39.302 2.56475 36.1981 2.56475ZM59.3774 10.673C62.4312 10.673 65.385 10.673 68.3887 10.673C68.3887 7.95317 68.3887 5.28462 68.3887 2.61606C65.3349 2.61606 62.3812 2.61606 59.3774 2.61606C59.3774 5.28462 59.3774 7.90185 59.3774 10.673ZM47.8128 57.2701C47.8128 59.7847 47.8128 62.248 47.8128 64.7113C50.9167 64.7113 53.9705 64.7113 57.0244 64.7113C57.0244 62.1967 57.0244 59.7334 57.0244 57.2701C53.9205 57.2701 50.8666 57.2701 47.8128 57.2701ZM2.70576 21.7578C5.35912 21.7578 7.91236 21.7578 10.5156 21.7578C10.5156 18.7813 10.5156 15.8562 10.5156 12.9311C7.8623 12.9311 5.30905 12.9311 2.70576 12.9311C2.70576 15.9075 2.70576 18.7813 2.70576 21.7578ZM59.3774 64.66C62.3812 64.66 65.385 64.66 68.3387 64.66C68.3387 62.1454 68.3387 59.6821 68.3387 57.2701C65.3349 57.2701 62.3311 57.2701 59.3774 57.2701C59.3774 59.7847 59.3774 62.1967 59.3774 64.66ZM2.70576 10.673C5.35912 10.673 7.91236 10.673 10.5156 10.673C10.5156 7.95317 10.5156 5.28462 10.5156 2.61606C7.8623 2.61606 5.30905 2.61606 2.70576 2.61606C2.70576 5.28462 2.70576 7.95317 2.70576 10.673Z" fill="white"/>
<path d="M36.9971 48.802C36.7468 55.0629 33.8932 60.1947 28.6866 63.7357C21.2772 68.7649 11.2646 67.5332 5.257 60.9645C-1.5516 53.5233 -1.40142 42.182 5.6575 34.9974C13.1169 27.351 25.4325 27.8128 32.4413 35.9724C35.3951 39.3595 36.8969 43.4649 36.9971 48.802ZM2.25321 47.3651C2.25321 51.4706 3.15432 54.4471 4.85647 57.1669C10.4135 65.8397 22.1283 67.3793 29.6378 60.4C36.4964 54.0365 36.6466 42.9517 29.9882 36.383C24.3311 30.7893 15.6201 30.0195 9.26206 34.6382C4.90656 37.7686 2.45346 42.2333 2.25321 47.3651Z" fill="white"/>
<path d="M17.5259 46.0308C17.3256 45.5689 17.2756 45.1583 17.0253 44.9531C16.024 44.132 15.6735 43.2082 16.1241 42.1819C16.5747 41.1555 17.8263 40.5397 18.9777 40.8476C19.8788 41.1042 20.5297 41.6174 20.7299 42.6437C20.9302 43.6188 20.5297 44.3372 19.7787 44.9017C19.5284 45.107 19.4784 45.4663 19.2781 45.8255C21.0804 45.5689 22.6824 45.261 24.3345 45.1583C25.5861 45.0557 26.8376 45.0557 28.0892 45.2097C29.9916 45.4149 31.5436 47.0571 31.6437 48.8533C31.7438 50.8547 30.4923 52.5482 28.5398 53.0614C27.4885 53.318 26.4872 53.2666 25.4859 52.9074C23.4834 52.189 21.4809 51.4705 19.4283 50.752C19.4283 51.7784 19.4283 52.8561 19.4283 53.8825C19.4283 55.2167 19.4283 56.6023 19.4283 57.9366C19.4283 58.809 19.0278 59.2709 18.3769 59.2709C17.7261 59.2709 17.3256 58.809 17.3256 57.9366C17.3256 55.4733 17.3256 53.0614 17.3256 50.5468C17.1254 50.5981 16.9752 50.6494 16.825 50.7007C14.5721 51.5218 12.3694 52.4455 10.0665 53.1127C7.41311 53.8311 4.80983 51.7784 4.75977 49.2125C4.75977 47.2111 6.31173 45.4149 8.26419 45.2097C11.2179 44.9018 14.1216 45.1583 16.9752 46.0308C17.1254 46.0308 17.1754 46.0308 17.5259 46.0308ZM17.2255 48.1861C17.0252 48.0322 16.9752 47.9808 16.9251 47.9808C14.1716 47.1084 11.4182 46.8005 8.56456 47.1084C7.61336 47.2111 6.91247 48.2374 6.96253 49.2125C7.01259 50.6494 8.51448 51.6245 10.1165 51.1113C12.0189 50.4955 13.8212 49.777 15.6735 49.0585C16.1742 48.8533 16.6748 48.5454 17.2255 48.1861ZM19.4283 48.0322C19.4283 48.0835 19.4283 48.1861 19.4283 48.2374C19.7287 48.4427 20.029 48.648 20.3795 48.8019C21.7812 49.3664 23.133 49.9309 24.5347 50.4441C25.3358 50.752 26.1868 51.06 27.0379 51.2139C28.2895 51.4705 29.4409 50.5468 29.5911 49.3664C29.7413 48.1348 28.8902 47.1598 27.5886 47.0571C25.3357 46.8518 23.1329 47.1598 20.8801 47.6216C20.3795 47.7243 19.9289 47.8782 19.4283 48.0322Z" fill="white"/>
<path d="M13.4667 59.6295C12.4154 59.6295 11.9147 58.9624 12.2151 58.2439C13.0161 56.4991 13.8172 54.7543 14.6682 53.0094C14.9686 52.4449 15.5693 52.2397 16.12 52.5476C16.6707 52.8042 16.7709 53.3173 16.4705 53.9845C15.7195 55.6267 14.9686 57.2689 14.1676 58.8597C14.0174 59.219 13.6169 59.4755 13.4667 59.6295Z" fill="white"/>
<path d="M21.3275 52.4458C21.4777 52.5998 21.9283 52.805 22.0785 53.1129C22.9296 54.7551 23.6805 56.4486 24.4815 58.1421C24.7318 58.7066 24.6818 59.1685 24.1311 59.5277C23.6304 59.8356 22.9296 59.6304 22.6292 59.0145C22.2287 58.2448 21.8783 57.475 21.5278 56.6539C21.0772 55.7302 20.6267 54.8064 20.2262 53.8314C19.8757 53.1643 20.3263 52.4458 21.3275 52.4458Z" fill="white"/>
<path d="M25.3776 41.5671C25.0272 42.5935 24.7769 43.4659 24.3263 44.2357C24.1761 44.4923 23.4753 44.5949 23.0747 44.4923C22.5741 44.3896 22.4239 43.8764 22.5741 43.3632C22.7744 42.6448 22.9746 41.9777 23.2249 41.3105C23.4252 40.746 23.9258 40.5407 24.4265 40.746C24.827 40.9513 25.0773 41.2592 25.3776 41.5671Z" fill="white"/>
<path d="M14.7661 43.7732C14.5158 44.0298 14.2655 44.389 13.9651 44.543C13.4645 44.7483 12.9138 44.6456 12.7135 44.0811C12.4131 43.3627 12.1128 42.5929 12.0126 41.8231C11.9626 41.5152 12.313 40.8994 12.5633 40.8481C12.9138 40.7454 13.6147 40.8481 13.7648 41.156C14.1654 41.9257 14.4157 42.7982 14.7661 43.7732Z" fill="white"/>
<path d="M17.1712 38.4363C17.1712 38.231 17.1712 38.0257 17.1712 37.8718C17.1712 37.2047 17.5216 36.8967 18.1224 36.8454C18.7231 36.7941 19.1737 37.1533 19.2238 37.7692C19.2738 38.1797 19.2738 38.5902 19.2238 39.0008C19.1737 39.7193 18.7732 40.0785 18.1224 40.0785C17.5216 40.0785 17.1211 39.6679 17.1211 38.9495C17.1712 38.7442 17.1712 38.5902 17.1712 38.4363Z" fill="white"/>
</svg>
