<svg width="873" height="429" viewBox="0 0 873 429" fill="none" xmlns="http://www.w3.org/2000/svg">
<path d="M254.804 170.174V120.078H265.4C270.278 120.078 274.063 121.171 276.755 123.357C279.467 125.523 280.823 128.65 280.823 132.739C280.823 138.244 278.415 142.009 273.597 144.033C277.322 144.559 280.196 145.926 282.22 148.132C284.244 150.318 285.256 153.192 285.256 156.755C285.256 159.568 284.629 161.977 283.374 163.981C282.119 165.984 280.317 167.523 277.969 168.596C275.621 169.648 272.818 170.174 269.559 170.174H254.804ZM259.419 142.606H264.58C268.385 142.606 271.31 141.796 273.354 140.177C275.399 138.538 276.421 136.21 276.421 133.194C276.421 130.138 275.399 127.8 273.354 126.181C271.31 124.561 268.385 123.752 264.58 123.752H259.419V142.606ZM259.419 166.409H268.345C272.251 166.409 275.257 165.569 277.362 163.889C279.488 162.189 280.55 159.77 280.55 156.633C280.55 153.496 279.477 151.057 277.332 149.316C275.207 147.555 272.211 146.675 268.345 146.675H259.419V166.409ZM290.809 170.174L310.543 120.078H314.824L334.529 170.174H329.55L323.447 154.204H301.921L295.757 170.174H290.809ZM303.469 150.136H321.868L312.669 126.15L303.469 150.136ZM345.376 170.174V120.078H349.991V166.106H370.97V170.174H345.376ZM377.891 170.174L397.626 120.078H401.907L421.612 170.174H416.633L410.53 154.204H389.004L382.84 170.174H377.891ZM390.552 150.136H408.951L399.752 126.15L390.552 150.136ZM432.458 170.174V120.078H437.073L463.974 162.311V120.078H468.589V170.174H463.974L437.073 128.002V170.174H432.458ZM506.192 171.146C502.447 171.146 498.966 170.488 495.747 169.172C492.529 167.857 489.716 166.025 487.307 163.677C484.918 161.309 483.056 158.546 481.72 155.388C480.384 152.231 479.716 148.82 479.716 145.156C479.716 141.493 480.384 138.082 481.72 134.925C483.056 131.767 484.918 129.014 487.307 126.666C489.716 124.298 492.519 122.456 495.717 121.141C498.935 119.825 502.427 119.167 506.192 119.167C509.329 119.167 512.274 119.633 515.027 120.564C517.78 121.475 520.209 122.729 522.314 124.329L520.128 128.184C518.346 126.747 516.282 125.644 513.934 124.875C511.586 124.106 509.096 123.721 506.465 123.721C503.287 123.721 500.372 124.268 497.721 125.361C495.09 126.454 492.802 127.972 490.859 129.915C488.916 131.858 487.408 134.135 486.335 136.746C485.283 139.357 484.756 142.161 484.756 145.156C484.756 148.152 485.283 150.956 486.335 153.567C487.408 156.178 488.916 158.455 490.859 160.398C492.802 162.341 495.09 163.859 497.721 164.952C500.372 166.045 503.287 166.592 506.465 166.592C509.096 166.592 511.586 166.207 513.934 165.438C516.282 164.669 518.346 163.566 520.128 162.129L522.314 165.984C520.229 167.563 517.81 168.818 515.057 169.749C512.325 170.68 509.37 171.146 506.192 171.146ZM532.528 170.174V120.078H557.758V124.146H537.143V143.031H557.03V147.1H537.143V166.106H557.758V170.174H532.528ZM585.632 170.174V120.078H598.627C601.906 120.078 604.739 120.645 607.128 121.778C609.516 122.912 611.358 124.531 612.654 126.636C613.969 128.741 614.627 131.271 614.627 134.226C614.627 137.161 613.969 139.742 612.654 141.969C611.358 144.175 609.516 145.895 607.128 147.13C604.739 148.344 601.906 148.952 598.627 148.952H590.247V170.174H585.632ZM590.247 145.065H597.534C600.043 145.065 602.219 144.63 604.061 143.76C605.923 142.889 607.361 141.655 608.373 140.056C609.385 138.436 609.891 136.534 609.891 134.348C609.891 132.121 609.385 130.229 608.373 128.67C607.361 127.091 605.923 125.897 604.061 125.088C602.219 124.258 600.043 123.843 597.534 123.843H590.247V145.065ZM626.594 170.174V120.078H639.588C642.868 120.078 645.701 120.645 648.09 121.778C650.478 122.912 652.32 124.541 653.615 126.666C654.931 128.771 655.589 131.291 655.589 134.226C655.589 136.918 655.032 139.297 653.919 141.361C652.826 143.406 651.268 145.065 649.243 146.341C647.24 147.596 644.851 148.365 642.078 148.648L658.747 170.174H652.887L636.917 149.073H631.209V170.174H626.594ZM631.209 145.065H638.495C641.046 145.065 643.242 144.63 645.084 143.76C646.926 142.889 648.343 141.655 649.334 140.056C650.347 138.436 650.853 136.534 650.853 134.348C650.853 131.069 649.76 128.498 647.574 126.636C645.388 124.774 642.361 123.843 638.495 123.843H631.209V145.065ZM668.445 170.174V120.078H673.06V170.174H668.445ZM699.703 170.174L678.693 120.078H683.915L701.525 163.222L719.104 120.078H724.326L703.316 170.174H699.703ZM724.726 170.174L744.461 120.078H748.742L768.446 170.174H763.467L757.364 154.204H735.838L729.675 170.174H724.726ZM737.386 150.136H755.786L746.586 126.15L737.386 150.136ZM801.153 171.146C797.409 171.146 793.927 170.488 790.709 169.172C787.49 167.857 784.677 166.025 782.268 163.677C779.88 161.309 778.018 158.546 776.682 155.388C775.346 152.231 774.678 148.82 774.678 145.156C774.678 141.493 775.346 138.082 776.682 134.925C778.018 131.767 779.88 129.014 782.268 126.666C784.677 124.298 787.48 122.456 790.678 121.141C793.897 119.825 797.388 119.167 801.153 119.167C804.29 119.167 807.235 119.633 809.988 120.564C812.741 121.475 815.17 122.729 817.275 124.329L815.089 128.184C813.308 126.747 811.243 125.644 808.895 124.875C806.547 124.106 804.058 123.721 801.426 123.721C798.249 123.721 795.334 124.268 792.682 125.361C790.051 126.454 787.764 127.972 785.821 129.915C783.877 131.858 782.369 134.135 781.297 136.746C780.244 139.357 779.718 142.161 779.718 145.156C779.718 148.152 780.244 150.956 781.297 153.567C782.369 156.178 783.877 158.455 785.821 160.398C787.764 162.341 790.051 163.859 792.682 164.952C795.334 166.045 798.249 166.592 801.426 166.592C804.058 166.592 806.547 166.207 808.895 165.438C811.243 164.669 813.308 163.566 815.089 162.129L817.275 165.984C815.19 167.563 812.771 168.818 810.019 169.749C807.286 170.68 804.331 171.146 801.153 171.146ZM839.482 170.174V148.466L822.267 120.078H827.823L841.79 143.547L855.756 120.078H861.342L844.097 148.466V170.174H839.482ZM268.511 243.1C265.909 243.1 263.538 242.598 261.398 241.596C259.277 240.574 257.581 239.109 256.309 237.201C255.036 235.273 254.4 232.95 254.4 230.232C254.4 227.032 255.354 224.198 257.263 221.731C259.191 219.263 262.044 217.153 265.822 215.398C264.222 213.798 262.95 212.372 262.005 211.119C261.061 209.866 260.376 208.68 259.952 207.562C259.547 206.425 259.345 205.259 259.345 204.063C259.345 201.982 259.856 200.16 260.877 198.598C261.899 197.018 263.268 195.784 264.983 194.897C266.718 194.01 268.656 193.567 270.795 193.567C272.53 193.567 274.092 193.847 275.48 194.406C276.868 194.945 278.053 195.707 279.036 196.69C280.02 197.673 280.771 198.81 281.292 200.102C281.832 201.394 282.101 202.782 282.101 204.266C282.101 206.888 281.253 209.104 279.557 210.916C277.861 212.709 275.364 214.415 272.068 216.035L284.906 229.972C285.33 229.548 285.822 228.989 286.381 228.295C286.94 227.582 287.509 226.839 288.087 226.068C288.685 225.297 289.215 224.594 289.677 223.957C290.14 223.321 290.468 222.849 290.661 222.541L293.436 224.854C292.665 226.088 291.75 227.447 290.689 228.931C289.629 230.415 288.617 231.707 287.653 232.806L296.241 242.174H290.776L284.559 235.321C282.208 237.827 279.673 239.755 276.954 241.104C274.236 242.435 271.422 243.1 268.511 243.1ZM268.916 239.023C271.152 239.023 273.359 238.454 275.538 237.316C277.716 236.16 279.788 234.502 281.754 232.343L268.222 217.856C265.253 219.244 262.988 220.96 261.427 223.003C259.865 225.027 259.085 227.283 259.085 229.769C259.085 231.736 259.528 233.413 260.415 234.801C261.321 236.189 262.526 237.239 264.029 237.953C265.533 238.666 267.162 239.023 268.916 239.023ZM269.668 213.519C271.499 212.613 273.051 211.726 274.323 210.859C275.615 209.991 276.598 209.027 277.273 207.967C277.947 206.907 278.285 205.644 278.285 204.179C278.285 202.714 277.957 201.432 277.301 200.333C276.646 199.235 275.759 198.386 274.641 197.789C273.542 197.191 272.309 196.892 270.94 196.892C269.552 196.892 268.309 197.201 267.21 197.818C266.111 198.415 265.244 199.254 264.608 200.333C263.971 201.413 263.653 202.647 263.653 204.035C263.653 204.979 263.827 205.904 264.174 206.81C264.54 207.697 265.157 208.671 266.024 209.731C266.911 210.791 268.126 212.054 269.668 213.519ZM322.194 242.174V194.463H326.59V238.3H346.57V242.174H322.194ZM356.97 242.174V194.463H361.365V242.174H356.97ZM396.945 243.1C393.629 243.1 390.545 242.463 387.692 241.191C384.858 239.919 382.371 238.155 380.231 235.9C378.111 233.644 376.453 231.023 375.258 228.035C374.063 225.027 373.465 221.798 373.465 218.348C373.465 215.167 373.995 212.092 375.055 209.124C376.116 206.155 377.667 203.514 379.711 201.201C381.754 198.868 384.251 197.018 387.2 195.649C390.169 194.28 393.532 193.596 397.292 193.596C399.759 193.596 402.092 193.904 404.289 194.521C406.487 195.138 408.501 195.996 410.332 197.095C412.183 198.194 413.793 199.485 415.161 200.969L412.877 204.324C411.065 202.261 408.79 200.613 406.053 199.379C403.316 198.126 400.376 197.5 397.234 197.5C394.226 197.5 391.537 198.059 389.166 199.177C386.814 200.295 384.819 201.827 383.181 203.774C381.542 205.702 380.299 207.909 379.451 210.396C378.602 212.863 378.178 215.466 378.178 218.203C378.178 221.153 378.651 223.9 379.595 226.444C380.559 228.969 381.899 231.186 383.614 233.095C385.33 234.984 387.335 236.459 389.629 237.519C391.923 238.56 394.39 239.08 397.031 239.08C399.171 239.08 401.272 238.724 403.335 238.01C405.398 237.297 407.248 236.266 408.887 234.916C410.545 233.567 411.855 231.957 412.819 230.088C413.802 228.198 414.294 226.078 414.294 223.726V222.078H396.713V218.521H418.805V222.772C418.805 226.145 418.169 229.104 416.896 231.649C415.624 234.194 413.928 236.314 411.807 238.01C409.687 239.688 407.335 240.96 404.752 241.827C402.169 242.676 399.566 243.1 396.945 243.1ZM430.475 242.174V194.463H434.87V216.324H460.923V194.463H465.289V242.174H460.923V220.198H434.87V242.174H430.475ZM487.51 242.174V198.454H472.966V194.463H506.508V198.454H491.905V242.174H487.51ZM552.006 243.1C548.44 243.1 545.124 242.473 542.059 241.22C538.994 239.967 536.315 238.223 534.021 235.986C531.746 233.731 529.972 231.1 528.7 228.092C527.428 225.085 526.792 221.837 526.792 218.348C526.792 214.859 527.428 211.61 528.7 208.603C529.972 205.596 531.746 202.974 534.021 200.738C536.315 198.483 538.984 196.729 542.03 195.476C545.095 194.223 548.421 193.596 552.006 193.596C554.994 193.596 557.799 194.039 560.421 194.926C563.042 195.794 565.356 196.989 567.36 198.512L565.278 202.184C563.582 200.815 561.616 199.765 559.38 199.032C557.143 198.3 554.772 197.933 552.266 197.933C549.24 197.933 546.464 198.454 543.939 199.495C541.433 200.536 539.254 201.982 537.404 203.832C535.553 205.683 534.117 207.851 533.095 210.338C532.093 212.825 531.592 215.495 531.592 218.348C531.592 221.201 532.093 223.871 533.095 226.357C534.117 228.844 535.553 231.013 537.404 232.863C539.254 234.714 541.433 236.16 543.939 237.201C546.464 238.242 549.24 238.762 552.266 238.762C554.772 238.762 557.143 238.396 559.38 237.663C561.616 236.931 563.582 235.88 565.278 234.512L567.36 238.184C565.375 239.688 563.071 240.883 560.45 241.769C557.847 242.656 555.033 243.1 552.006 243.1ZM630.67 242.174V194.463H635.065L660.685 234.685V194.463H665.08V242.174H660.685L635.065 202.01V242.174H630.67ZM687.311 242.174V198.454H672.766V194.463H706.308V198.454H691.706V242.174H687.311ZM716.712 242.174V194.463H729.088C732.211 194.463 734.91 195.003 737.185 196.083C739.459 197.162 741.214 198.714 742.447 200.738C743.7 202.743 744.327 205.143 744.327 207.938C744.327 210.502 743.797 212.767 742.737 214.733C741.696 216.68 740.211 218.261 738.284 219.476C736.375 220.671 734.1 221.403 731.459 221.673L747.334 242.174H741.753L726.544 222.078H721.108V242.174H716.712ZM721.108 218.261H728.047C730.476 218.261 732.568 217.847 734.322 217.018C736.076 216.189 737.426 215.013 738.37 213.49C739.334 211.948 739.816 210.136 739.816 208.054C739.816 204.931 738.775 202.483 736.693 200.709C734.611 198.936 731.729 198.049 728.047 198.049H721.108V218.261ZM810.153 242.174V194.463H814.548V238.3H834.529V242.174H810.153ZM844.929 242.174V194.463H849.324V238.3H869.304V242.174H844.929Z" fill="white"/>
<path d="M596.404 243.1C593.069 243.1 589.946 242.463 587.035 241.191C584.124 239.919 581.57 238.155 579.373 235.9C577.175 233.625 575.45 230.994 574.197 228.006C572.963 224.998 572.346 221.779 572.346 218.348C572.346 214.916 572.963 211.707 574.197 208.719C575.45 205.712 577.175 203.08 579.373 200.825C581.57 198.55 584.124 196.777 587.035 195.504C589.946 194.232 593.069 193.596 596.404 193.596C599.739 193.596 602.862 194.232 605.773 195.504C608.683 196.777 611.238 198.55 613.435 200.825C615.633 203.08 617.348 205.712 618.582 208.719C619.835 211.707 620.462 214.916 620.462 218.348C620.462 221.779 619.835 224.998 618.582 228.006C617.348 230.994 615.633 233.625 613.435 235.9C611.238 238.155 608.683 239.919 605.773 241.191C602.862 242.463 599.739 243.1 596.404 243.1ZM596.375 234.078C598.418 234.078 600.288 233.692 601.985 232.921C603.681 232.15 605.156 231.061 606.409 229.654C607.662 228.247 608.635 226.589 609.329 224.68C610.023 222.753 610.37 220.642 610.37 218.348C610.37 216.054 610.023 213.953 609.329 212.044C608.635 210.116 607.662 208.449 606.409 207.042C605.156 205.635 603.681 204.545 601.985 203.774C600.288 203.003 598.418 202.618 596.375 202.618C594.37 202.618 592.51 203.003 590.794 203.774C589.098 204.545 587.623 205.635 586.37 207.042C585.117 208.449 584.144 210.116 583.45 212.044C582.775 213.953 582.438 216.054 582.438 218.348C582.438 220.642 582.775 222.753 583.45 224.68C584.144 226.589 585.117 228.247 586.37 229.654C587.623 231.061 589.098 232.15 590.794 232.921C592.51 233.692 594.37 234.078 596.375 234.078ZM775.887 243.1C772.552 243.1 769.429 242.463 766.518 241.191C763.607 239.919 761.053 238.155 758.855 235.9C756.658 233.625 754.932 230.994 753.679 228.006C752.446 224.998 751.829 221.779 751.829 218.348C751.829 214.916 752.446 211.707 753.679 208.719C754.932 205.712 756.658 203.08 758.855 200.825C761.053 198.55 763.607 196.777 766.518 195.504C769.429 194.232 772.552 193.596 775.887 193.596C779.221 193.596 782.344 194.232 785.255 195.504C788.166 196.777 790.72 198.55 792.918 200.825C795.115 203.08 796.831 205.712 798.065 208.719C799.318 211.707 799.944 214.916 799.944 218.348C799.944 221.779 799.318 224.998 798.065 228.006C796.831 230.994 795.115 233.625 792.918 235.9C790.72 238.155 788.166 239.919 785.255 241.191C782.344 242.463 779.221 243.1 775.887 243.1ZM775.858 234.078C777.901 234.078 779.771 233.692 781.467 232.921C783.164 232.15 784.638 231.061 785.891 229.654C787.144 228.247 788.118 226.589 788.812 224.68C789.506 222.753 789.853 220.642 789.853 218.348C789.853 216.054 789.506 213.953 788.812 212.044C788.118 210.116 787.144 208.449 785.891 207.042C784.638 205.635 783.164 204.545 781.467 203.774C779.771 203.003 777.901 202.618 775.858 202.618C773.853 202.618 771.993 203.003 770.277 203.774C768.581 204.545 767.106 205.635 765.853 207.042C764.6 208.449 763.626 210.116 762.932 212.044C762.258 213.953 761.92 216.054 761.92 218.348C761.92 220.642 762.258 222.753 762.932 224.68C763.626 226.589 764.6 228.247 765.853 229.654C767.106 231.061 768.581 232.15 770.277 232.921C771.993 233.692 773.853 234.078 775.858 234.078Z" fill="#D59117"/>
<rect x="249.362" y="272.619" width="301.042" height="58.946" rx="29.473" fill="black" stroke="#828282" stroke-width="1.1998"/>
<path d="M314.597 294.613C313.757 294.613 312.974 294.467 312.247 294.175C311.52 293.879 310.88 293.468 310.328 292.943C309.78 292.418 309.352 291.808 309.042 291.112C308.732 290.412 308.577 289.658 308.577 288.85C308.577 288.046 308.732 287.294 309.042 286.594C309.356 285.894 309.787 285.281 310.335 284.756C310.882 284.231 311.517 283.823 312.24 283.531C312.967 283.235 313.748 283.086 314.583 283.086C315.27 283.086 315.921 283.185 316.536 283.383C317.15 283.58 317.682 283.843 318.131 284.17L317.357 285.665C317.02 285.396 316.621 285.187 316.159 285.039C315.696 284.891 315.209 284.817 314.698 284.817C314.092 284.817 313.533 284.92 313.021 285.126C312.509 285.333 312.063 285.62 311.681 285.988C311.304 286.352 311.012 286.778 310.806 287.267C310.6 287.757 310.496 288.284 310.496 288.85C310.496 289.415 310.6 289.943 310.806 290.432C311.012 290.921 311.304 291.35 311.681 291.718C312.063 292.081 312.509 292.366 313.021 292.573C313.533 292.779 314.092 292.883 314.698 292.883C315.209 292.883 315.696 292.809 316.159 292.66C316.621 292.512 317.02 292.304 317.357 292.034L318.131 293.529C317.696 293.848 317.171 294.108 316.556 294.31C315.945 294.512 315.292 294.613 314.597 294.613ZM324.841 294.613C324.065 294.613 323.337 294.465 322.66 294.169C321.982 293.872 321.387 293.462 320.875 292.936C320.364 292.407 319.962 291.794 319.67 291.098C319.383 290.398 319.239 289.649 319.239 288.85C319.239 288.046 319.383 287.297 319.67 286.601C319.962 285.905 320.364 285.295 320.875 284.77C321.387 284.24 321.982 283.827 322.66 283.531C323.337 283.235 324.065 283.086 324.841 283.086C325.618 283.086 326.345 283.235 327.022 283.531C327.7 283.827 328.295 284.24 328.807 284.77C329.318 285.295 329.718 285.905 330.005 286.601C330.297 287.297 330.443 288.046 330.443 288.85C330.443 289.649 330.297 290.398 330.005 291.098C329.718 291.794 329.318 292.407 328.807 292.936C328.295 293.462 327.7 293.872 327.022 294.169C326.345 294.465 325.618 294.613 324.841 294.613ZM324.841 292.916C325.371 292.916 325.86 292.815 326.309 292.613C326.762 292.407 327.155 292.122 327.487 291.758C327.824 291.39 328.084 290.959 328.268 290.466C328.452 289.972 328.544 289.433 328.544 288.85C328.544 288.266 328.452 287.728 328.268 287.234C328.084 286.74 327.824 286.311 327.487 285.948C327.155 285.58 326.762 285.295 326.309 285.093C325.86 284.886 325.371 284.783 324.841 284.783C324.316 284.783 323.827 284.886 323.373 285.093C322.924 285.295 322.532 285.58 322.195 285.948C321.863 286.311 321.605 286.74 321.421 287.234C321.237 287.728 321.145 288.266 321.145 288.85C321.145 289.433 321.237 289.972 321.421 290.466C321.605 290.959 321.863 291.39 322.195 291.758C322.532 292.122 322.924 292.407 323.373 292.613C323.827 292.815 324.316 292.916 324.841 292.916ZM332.799 294.397V283.288H334.563L339.774 291.442V283.288H341.538V294.397H339.774L334.563 286.251V294.397H332.799ZM345.837 294.397V284.857H342.814V283.288H350.624V284.857H347.594V294.397H345.837ZM350.627 294.397L355.05 283.288H356.686L361.116 294.397H359.218L358.127 291.502H353.616L352.518 294.397H350.627ZM354.215 289.954H357.528L355.865 285.658L354.215 289.954ZM367.903 294.613C367.064 294.613 366.281 294.467 365.554 294.175C364.827 293.879 364.187 293.468 363.635 292.943C363.087 292.418 362.659 291.808 362.349 291.112C362.039 290.412 361.884 289.658 361.884 288.85C361.884 288.046 362.039 287.294 362.349 286.594C362.663 285.894 363.094 285.281 363.642 284.756C364.189 284.231 364.824 283.823 365.547 283.531C366.274 283.235 367.055 283.086 367.89 283.086C368.577 283.086 369.228 283.185 369.843 283.383C370.457 283.58 370.989 283.843 371.438 284.17L370.664 285.665C370.327 285.396 369.928 285.187 369.465 285.039C369.003 284.891 368.516 284.817 368.004 284.817C367.399 284.817 366.84 284.92 366.328 285.126C365.816 285.333 365.37 285.62 364.988 285.988C364.611 286.352 364.319 286.778 364.113 287.267C363.906 287.757 363.803 288.284 363.803 288.85C363.803 289.415 363.906 289.943 364.113 290.432C364.319 290.921 364.611 291.35 364.988 291.718C365.37 292.081 365.816 292.366 366.328 292.573C366.84 292.779 367.399 292.883 368.004 292.883C368.516 292.883 369.003 292.809 369.465 292.66C369.928 292.512 370.327 292.304 370.664 292.034L371.438 293.529C371.003 293.848 370.478 294.108 369.863 294.31C369.252 294.512 368.599 294.613 367.903 294.613ZM375.152 294.397V284.857H372.129V283.288H379.939V284.857H376.909V294.397H375.152ZM389.199 294.613C387.848 294.613 386.829 294.263 386.142 293.563C385.455 292.862 385.112 291.823 385.112 290.445V283.288H386.869V289.967C386.869 290.977 387.056 291.716 387.428 292.182C387.805 292.649 388.395 292.883 389.199 292.883C390.002 292.883 390.59 292.649 390.963 292.182C391.34 291.716 391.528 290.977 391.528 289.967V283.288H393.292V290.445C393.292 291.823 392.949 292.862 392.262 293.563C391.575 294.263 390.554 294.613 389.199 294.613ZM398.81 294.613C398.275 294.613 397.791 294.546 397.355 294.411C396.92 294.276 396.536 294.11 396.204 293.913C395.876 293.711 395.6 293.509 395.376 293.307C395.151 293.105 394.981 292.939 394.864 292.809L395.793 291.381C395.919 291.511 396.076 291.666 396.265 291.846C396.458 292.025 396.682 292.203 396.938 292.378C397.194 292.548 397.481 292.692 397.8 292.809C398.118 292.921 398.471 292.977 398.857 292.977C399.22 292.977 399.546 292.916 399.833 292.795C400.12 292.674 400.349 292.494 400.52 292.256C400.69 292.014 400.776 291.716 400.776 291.361C400.776 291.051 400.71 290.786 400.58 290.567C400.455 290.347 400.273 290.156 400.035 289.994C399.797 289.828 399.514 289.671 399.187 289.523C398.859 289.37 398.493 289.213 398.089 289.052C397.802 288.93 397.517 288.789 397.234 288.628C396.956 288.466 396.702 288.273 396.473 288.048C396.249 287.824 396.069 287.566 395.935 287.274C395.8 286.978 395.733 286.637 395.733 286.251C395.733 285.833 395.814 285.436 395.975 285.059C396.141 284.678 396.375 284.339 396.675 284.043C396.976 283.746 397.333 283.513 397.746 283.342C398.163 283.172 398.628 283.086 399.139 283.086C399.557 283.086 399.963 283.147 400.358 283.268C400.753 283.389 401.112 283.547 401.435 283.74C401.763 283.933 402.03 284.139 402.237 284.359L401.469 285.699C401.298 285.524 401.094 285.36 400.856 285.207C400.623 285.05 400.363 284.925 400.075 284.83C399.788 284.736 399.487 284.689 399.173 284.689C398.805 284.689 398.493 284.761 398.237 284.904C397.981 285.048 397.784 285.236 397.645 285.47C397.51 285.699 397.443 285.948 397.443 286.217C397.443 286.451 397.49 286.65 397.584 286.816C397.683 286.978 397.818 287.117 397.988 287.234C398.159 287.351 398.354 287.458 398.574 287.557C398.798 287.651 399.034 287.746 399.281 287.84C399.77 288.037 400.221 288.239 400.634 288.446C401.052 288.648 401.413 288.879 401.718 289.139C402.023 289.395 402.259 289.7 402.425 290.055C402.596 290.405 402.681 290.827 402.681 291.321C402.681 292.012 402.515 292.604 402.183 293.098C401.855 293.592 401.399 293.969 400.816 294.229C400.237 294.485 399.568 294.613 398.81 294.613Z" fill="white"/>
<path d="M314.677 317.157V312.446H309.967V309.17H314.677V304.459H317.954V309.17H322.664V312.446H317.954V317.157H314.677ZM327.595 321.064L333.653 313.881C333.167 314.186 332.565 314.338 331.848 314.338C331.007 314.338 330.196 314.169 329.412 313.831C328.629 313.485 327.929 312.999 327.311 312.372C326.692 311.746 326.202 311.004 325.839 310.147C325.477 309.281 325.295 308.329 325.295 307.291C325.295 305.988 325.592 304.81 326.185 303.754C326.779 302.691 327.632 301.846 328.745 301.22C329.858 300.585 331.197 300.268 332.763 300.268C334.354 300.268 335.743 300.593 336.93 301.245C338.117 301.896 339.04 302.769 339.699 303.866C340.359 304.954 340.692 306.165 340.701 307.501C340.701 308.3 340.635 309.022 340.503 309.664C340.371 310.307 340.169 310.909 339.897 311.47C339.633 312.03 339.308 312.578 338.92 313.114C338.541 313.65 338.108 314.21 337.622 314.795L332.442 321.064H327.595ZM332.961 310.876C333.464 310.876 333.929 310.785 334.358 310.604C334.795 310.415 335.174 310.155 335.496 309.825C335.817 309.487 336.068 309.096 336.25 308.651C336.439 308.205 336.534 307.727 336.534 307.216C336.534 306.524 336.377 305.906 336.064 305.362C335.759 304.818 335.339 304.393 334.803 304.088C334.267 303.783 333.653 303.631 332.961 303.631C332.26 303.631 331.634 303.787 331.082 304.101C330.538 304.406 330.105 304.83 329.783 305.374C329.47 305.91 329.314 306.524 329.314 307.216C329.314 307.909 329.47 308.531 329.783 309.083C330.105 309.636 330.542 310.072 331.094 310.394C331.646 310.715 332.269 310.876 332.961 310.876ZM342.114 321.064L351.696 304.175H342.633V300.664H357.618V301.85L346.837 321.064H342.114ZM361.268 321.064V304.595H358.226V300.664H365.274V321.064H361.268ZM382.126 321.435C381.038 321.435 380.012 321.266 379.048 320.928C378.083 320.59 377.242 320.091 376.525 319.432C375.808 318.773 375.272 317.965 374.918 317.009L378.096 315.475C378.335 316.267 378.809 316.901 379.517 317.38C380.235 317.858 381.075 318.097 382.04 318.097C382.79 318.097 383.433 317.952 383.968 317.664C384.512 317.367 384.929 316.955 385.217 316.427C385.514 315.9 385.662 315.294 385.662 314.61C385.662 313.761 385.44 313.036 384.995 312.434C384.558 311.824 383.935 311.358 383.128 311.037C382.328 310.707 381.38 310.542 380.284 310.542C379.526 310.542 378.804 310.645 378.12 310.851C377.436 311.057 376.797 311.358 376.204 311.754L377.947 300.664H388.358V304.175H381.36L380.754 308.168C382.633 307.765 384.323 307.896 385.823 308.564C386.606 308.828 387.282 309.236 387.851 309.788C388.428 310.332 388.873 310.991 389.186 311.766C389.507 312.541 389.668 313.407 389.668 314.363C389.668 315.83 389.334 317.095 388.667 318.158C387.999 319.213 387.097 320.025 385.959 320.594C384.822 321.155 383.544 321.435 382.126 321.435ZM391.611 321.064V319.012C393.218 317.783 394.624 316.671 395.827 315.673C397.031 314.668 398.057 313.757 398.906 312.941C399.755 312.125 400.443 311.383 400.971 310.715C401.498 310.039 401.881 309.421 402.12 308.861C402.368 308.292 402.491 307.756 402.491 307.253C402.491 306.627 402.343 306.058 402.046 305.547C401.749 305.028 401.346 304.616 400.835 304.311C400.332 304.006 399.763 303.853 399.128 303.853C398.518 303.853 397.954 304.01 397.434 304.323C396.923 304.628 396.474 305.082 396.087 305.683C395.699 306.285 395.378 307.023 395.122 307.896L391.759 306.326C392.007 305.395 392.361 304.558 392.823 303.816C393.293 303.066 393.853 302.427 394.504 301.9C395.164 301.372 395.901 300.968 396.717 300.688C397.533 300.408 398.415 300.268 399.363 300.268C400.806 300.268 402.087 300.569 403.208 301.17C404.329 301.764 405.207 302.576 405.842 303.606C406.485 304.636 406.806 305.811 406.806 307.13C406.806 307.789 406.716 308.436 406.534 309.071C406.353 309.706 406.069 310.349 405.681 311C405.294 311.643 404.791 312.306 404.173 312.99C403.555 313.666 402.809 314.379 401.935 315.129C401.069 315.871 400.06 316.662 398.906 317.503H407.177V321.064H391.611ZM418.518 321.064V304.595H415.477V300.664H422.524V321.064H418.518ZM435.247 321.064V317.33H425.071V316.069L435.049 300.664H439.005V313.806H441.379V317.33H439.005V321.064H435.247ZM430.511 313.806H435.247V306.042L430.511 313.806ZM451.999 321.46C450.334 321.46 448.871 321.015 447.61 320.124C446.349 319.234 445.364 317.994 444.655 316.403C443.955 314.812 443.604 312.97 443.604 310.876C443.604 308.774 443.955 306.932 444.655 305.349C445.364 303.759 446.349 302.518 447.61 301.628C448.871 300.738 450.334 300.293 451.999 300.293C453.664 300.293 455.123 300.738 456.376 301.628C457.637 302.518 458.618 303.759 459.319 305.349C460.028 306.932 460.382 308.774 460.382 310.876C460.382 312.97 460.028 314.812 459.319 316.403C458.618 317.994 457.637 319.234 456.376 320.124C455.123 321.015 453.664 321.46 451.999 321.46ZM451.999 317.936C452.857 317.936 453.594 317.652 454.212 317.083C454.831 316.514 455.309 315.702 455.647 314.647C455.985 313.584 456.154 312.327 456.154 310.876C456.154 309.417 455.985 308.16 455.647 307.105C455.309 306.05 454.831 305.238 454.212 304.669C453.594 304.101 452.857 303.816 451.999 303.816C451.142 303.816 450.4 304.101 449.774 304.669C449.156 305.238 448.678 306.05 448.34 307.105C448.002 308.16 447.833 309.417 447.833 310.876C447.833 312.327 448.002 313.584 448.34 314.647C448.678 315.702 449.156 316.514 449.774 317.083C450.4 317.652 451.142 317.936 451.999 317.936ZM477.682 321.46C476.017 321.46 474.553 321.015 473.292 320.124C472.031 319.234 471.046 317.994 470.337 316.403C469.637 314.812 469.286 312.97 469.286 310.876C469.286 308.774 469.637 306.932 470.337 305.349C471.046 303.759 472.031 302.518 473.292 301.628C474.553 300.738 476.017 300.293 477.682 300.293C479.347 300.293 480.805 300.738 482.058 301.628C483.319 302.518 484.3 303.759 485.001 305.349C485.71 306.932 486.064 308.774 486.064 310.876C486.064 312.97 485.71 314.812 485.001 316.403C484.3 317.994 483.319 319.234 482.058 320.124C480.805 321.015 479.347 321.46 477.682 321.46ZM477.682 317.936C478.539 317.936 479.276 317.652 479.895 317.083C480.513 316.514 480.991 315.702 481.329 314.647C481.667 313.584 481.836 312.327 481.836 310.876C481.836 309.417 481.667 308.16 481.329 307.105C480.991 306.05 480.513 305.238 479.895 304.669C479.276 304.101 478.539 303.816 477.682 303.816C476.824 303.816 476.082 304.101 475.456 304.669C474.838 305.238 474.36 306.05 474.022 307.105C473.684 308.16 473.515 309.417 473.515 310.876C473.515 312.327 473.684 313.584 474.022 314.647C474.36 315.702 474.838 316.514 475.456 317.083C476.082 317.652 476.824 317.936 477.682 317.936ZM496.118 321.46C494.939 321.46 493.863 321.274 492.891 320.903C491.918 320.532 491.081 320.017 490.381 319.358C489.68 318.698 489.14 317.932 488.761 317.058C488.382 316.184 488.192 315.241 488.192 314.227C488.192 313.097 488.464 311.886 489.008 310.592C489.561 309.298 490.311 308.078 491.259 306.932L496.439 300.664H501.298L495.289 307.785C495.545 307.653 495.829 307.554 496.142 307.488C496.456 307.422 496.789 307.389 497.144 307.389C498.067 307.389 498.92 307.563 499.703 307.909C500.486 308.247 501.166 308.729 501.743 309.355C502.328 309.982 502.782 310.724 503.103 311.581C503.433 312.43 503.598 313.365 503.598 314.387C503.598 315.789 503.285 317.021 502.658 318.084C502.032 319.148 501.158 319.976 500.037 320.569C498.916 321.163 497.61 321.46 496.118 321.46ZM495.932 318.121C496.633 318.121 497.259 317.965 497.812 317.652C498.364 317.338 498.797 316.91 499.11 316.366C499.431 315.822 499.592 315.203 499.592 314.511C499.592 313.802 499.431 313.172 499.11 312.619C498.797 312.067 498.364 311.63 497.812 311.309C497.267 310.987 496.658 310.827 495.982 310.827C495.306 310.827 494.692 310.991 494.139 311.321C493.587 311.643 493.146 312.084 492.816 312.644C492.495 313.205 492.334 313.835 492.334 314.536C492.334 315.212 492.483 315.822 492.779 316.366C493.084 316.901 493.505 317.33 494.041 317.652C494.585 317.965 495.215 318.121 495.932 318.121ZM507.521 321.064L513.579 313.881C513.093 314.186 512.491 314.338 511.774 314.338C510.933 314.338 510.121 314.169 509.338 313.831C508.555 313.485 507.855 312.999 507.236 312.372C506.618 311.746 506.128 311.004 505.765 310.147C505.403 309.281 505.221 308.329 505.221 307.291C505.221 305.988 505.518 304.81 506.111 303.754C506.705 302.691 507.558 301.846 508.671 301.22C509.783 300.585 511.123 300.268 512.689 300.268C514.28 300.268 515.669 300.593 516.856 301.245C518.043 301.896 518.966 302.769 519.625 303.866C520.285 304.954 520.618 306.165 520.627 307.501C520.627 308.3 520.561 309.022 520.429 309.664C520.297 310.307 520.095 310.909 519.823 311.47C519.559 312.03 519.234 312.578 518.846 313.114C518.467 313.65 518.034 314.21 517.548 314.795L512.368 321.064H507.521ZM512.887 310.876C513.39 310.876 513.855 310.785 514.284 310.604C514.721 310.415 515.1 310.155 515.421 309.825C515.743 309.487 515.994 309.096 516.176 308.651C516.365 308.205 516.46 307.727 516.46 307.216C516.46 306.524 516.303 305.906 515.99 305.362C515.685 304.818 515.265 304.393 514.729 304.088C514.193 303.783 513.579 303.631 512.887 303.631C512.186 303.631 511.56 303.787 511.007 304.101C510.463 304.406 510.031 304.83 509.709 305.374C509.396 305.91 509.239 306.524 509.239 307.216C509.239 307.909 509.396 308.531 509.709 309.083C510.031 309.636 510.468 310.072 511.02 310.394C511.572 310.715 512.194 310.876 512.887 310.876ZM529.322 321.46C528.102 321.46 526.985 321.249 525.971 320.829C524.958 320.409 524.1 319.819 523.4 319.061C522.699 318.303 522.209 317.408 521.928 316.378L525.638 314.622C525.695 315.282 525.877 315.867 526.182 316.378C526.495 316.881 526.919 317.276 527.455 317.565C527.999 317.845 528.626 317.985 529.334 317.985C530.324 317.985 531.111 317.713 531.696 317.169C532.289 316.625 532.586 315.904 532.586 315.006C532.586 314.363 532.442 313.79 532.153 313.287C531.865 312.776 531.473 312.376 530.979 312.088C530.493 311.791 529.949 311.643 529.347 311.643C529.001 311.643 528.704 311.692 528.457 311.791V309.12H529.384C529.92 309.12 530.402 308.989 530.831 308.725C531.267 308.453 531.614 308.094 531.869 307.649C532.133 307.204 532.265 306.726 532.265 306.215C532.265 305.712 532.133 305.259 531.869 304.855C531.614 304.451 531.267 304.13 530.831 303.89C530.394 303.651 529.903 303.532 529.359 303.532C528.815 303.532 528.308 303.656 527.838 303.903C527.377 304.15 526.994 304.488 526.689 304.917C526.384 305.345 526.19 305.84 526.107 306.4L522.93 304.917C523.161 303.994 523.585 303.186 524.203 302.493C524.822 301.793 525.58 301.253 526.478 300.874C527.385 300.486 528.37 300.293 529.433 300.293C530.678 300.293 531.787 300.548 532.759 301.059C533.74 301.57 534.511 302.267 535.071 303.149C535.632 304.022 535.912 305.02 535.912 306.141C535.912 306.718 535.826 307.258 535.652 307.76C535.488 308.263 535.249 308.721 534.935 309.133C534.622 309.545 534.243 309.899 533.798 310.196C534.375 310.501 534.874 310.888 535.294 311.358C535.714 311.828 536.036 312.368 536.258 312.978C536.481 313.58 536.592 314.251 536.592 314.993C536.592 316.23 536.287 317.338 535.677 318.319C535.067 319.292 534.214 320.058 533.118 320.619C532.03 321.179 530.765 321.46 529.322 321.46Z" fill="white"/>
<circle cx="280.878" cy="301.801" r="21.4324" fill="#D59117" stroke="#D59117" stroke-width="1.12046"/>
<path d="M268.33 295.784C268.403 295.601 268.476 295.346 268.586 295.163C269.39 293.738 270.413 292.459 271.546 291.253C271.947 290.851 272.349 290.449 272.788 290.12C273.701 289.426 274.542 289.572 275.2 290.486C275.711 291.217 276.223 291.947 276.661 292.715C277.209 293.628 277.721 294.542 278.159 295.492C278.671 296.588 278.525 297.026 277.648 297.83C277.282 298.196 276.88 298.525 276.478 298.853C276.369 298.963 276.332 299.036 276.369 299.182C277.575 302.434 279.84 304.7 283.092 305.906C283.275 305.979 283.348 305.942 283.494 305.796C283.823 305.394 284.188 304.992 284.554 304.59C284.7 304.407 284.882 304.261 285.065 304.115C285.431 303.859 285.796 303.786 286.234 303.896C287.148 304.152 287.952 304.59 288.719 305.065C289.779 305.723 290.802 306.417 291.862 307.075C292.263 307.331 292.556 307.733 292.665 308.208C292.738 308.5 292.738 308.756 292.592 308.975C292.41 309.267 292.19 309.596 291.971 309.852C290.656 311.35 289.121 312.556 287.44 313.615C286.819 314.017 286.198 313.944 285.577 313.798C283.421 313.36 281.448 312.446 279.621 311.277C275.711 308.865 272.569 305.613 270.303 301.594C269.463 300.096 268.805 298.525 268.476 296.844C268.44 296.515 268.403 296.186 268.33 295.784ZM273.811 291.363C273.738 291.399 273.701 291.436 273.665 291.472C272.349 292.678 271.217 294.03 270.194 295.492C270.011 295.748 269.974 296.003 270.047 296.332C270.303 297.684 270.742 298.927 271.399 300.132C273.848 304.773 277.392 308.317 281.959 310.838C283.238 311.533 284.59 312.044 286.052 312.3C286.234 312.337 286.454 312.41 286.673 312.263C288.098 311.35 289.377 310.254 290.546 309.048C290.692 308.865 290.875 308.719 291.021 308.5C289.413 307.294 287.733 306.307 285.942 305.504C285.869 305.613 285.759 305.686 285.686 305.759C285.175 306.307 284.7 306.856 284.188 307.404C283.932 307.659 283.64 307.733 283.275 307.623C281.594 307.184 280.096 306.344 278.744 305.248C276.844 303.677 275.528 301.74 274.724 299.402C274.505 298.744 274.578 298.232 275.126 297.794C275.638 297.392 276.113 296.917 276.625 296.478C276.734 296.369 276.771 296.296 276.698 296.15C275.93 294.505 275.017 292.971 273.957 291.509C273.957 291.509 273.884 291.436 273.811 291.363Z" fill="white"/>
<path d="M281.345 291.327C281.345 290.852 281.747 290.486 282.222 290.523C286.935 290.815 291.43 294.762 291.832 300.133C291.868 300.608 291.503 301.01 291.028 301.01C290.589 301.01 290.26 300.681 290.224 300.279C290.041 298.16 289.201 296.296 287.63 294.762C286.095 293.19 284.231 292.35 282.076 292.167C281.674 292.094 281.345 291.765 281.345 291.327Z" fill="white"/>
<path d="M281.345 295.42C281.345 294.945 281.747 294.543 282.222 294.617C284.853 294.909 287.374 297.174 287.739 300.134C287.812 300.609 287.41 301.047 286.935 301.047C286.533 301.047 286.204 300.755 286.131 300.353C285.985 299.33 285.547 298.417 284.779 297.649C284.012 296.882 283.099 296.444 282.039 296.261C281.674 296.151 281.345 295.822 281.345 295.42Z" fill="white"/>
<rect x="562.629" y="271.536" width="301.042" height="58.946" rx="29.473" fill="black" stroke="#828282" stroke-width="1.1998"/>
<path d="M625.009 293.315L621.764 282.206H623.73L626.073 290.925L628.76 282.206H630.093L632.786 290.925L635.129 282.206H637.088L633.85 293.315H631.884L629.433 285.62L626.975 293.315H625.009ZM639.047 293.315V282.206H640.811V286.973H645.652V282.206H647.409V293.315H645.652V288.522H640.811V293.315H639.047ZM649.251 293.315L653.675 282.206H655.311L659.741 293.315H657.842L656.752 290.42H652.241L651.143 293.315H649.251ZM652.84 288.872H656.153L654.49 284.576L652.84 288.872ZM662.774 293.315V283.775H659.751V282.206H667.561V283.775H664.531V293.315H662.774ZM672.328 293.531C671.794 293.531 671.309 293.464 670.873 293.329C670.438 293.194 670.054 293.028 669.722 292.831C669.394 292.629 669.118 292.427 668.894 292.225C668.67 292.023 668.499 291.857 668.382 291.727L669.311 290.299C669.437 290.429 669.594 290.584 669.783 290.764C669.976 290.943 670.2 291.121 670.456 291.296C670.712 291.466 670.999 291.61 671.318 291.727C671.636 291.839 671.989 291.895 672.375 291.895C672.738 291.895 673.064 291.834 673.351 291.713C673.638 291.592 673.867 291.412 674.038 291.174C674.208 290.932 674.294 290.634 674.294 290.279C674.294 289.969 674.229 289.704 674.098 289.485C673.973 289.265 673.791 289.074 673.553 288.912C673.315 288.746 673.032 288.589 672.705 288.441C672.377 288.288 672.011 288.131 671.607 287.97C671.32 287.848 671.035 287.707 670.752 287.545C670.474 287.384 670.22 287.191 669.991 286.966C669.767 286.742 669.588 286.484 669.453 286.192C669.318 285.896 669.251 285.555 669.251 285.169C669.251 284.751 669.332 284.354 669.493 283.977C669.659 283.596 669.893 283.257 670.193 282.96C670.494 282.664 670.851 282.431 671.264 282.26C671.681 282.09 672.146 282.004 672.658 282.004C673.075 282.004 673.481 282.065 673.876 282.186C674.271 282.307 674.63 282.465 674.953 282.658C675.281 282.851 675.548 283.057 675.755 283.277L674.987 284.617C674.817 284.442 674.612 284.278 674.374 284.125C674.141 283.968 673.881 283.842 673.593 283.748C673.306 283.654 673.005 283.607 672.691 283.607C672.323 283.607 672.011 283.679 671.755 283.822C671.5 283.966 671.302 284.154 671.163 284.388C671.028 284.617 670.961 284.866 670.961 285.135C670.961 285.369 671.008 285.568 671.102 285.734C671.201 285.896 671.336 286.035 671.506 286.152C671.677 286.269 671.872 286.376 672.092 286.475C672.317 286.569 672.552 286.663 672.799 286.758C673.288 286.955 673.739 287.157 674.152 287.364C674.57 287.566 674.931 287.797 675.236 288.057C675.541 288.313 675.777 288.618 675.943 288.973C676.114 289.323 676.199 289.745 676.199 290.239C676.199 290.93 676.033 291.522 675.701 292.016C675.373 292.51 674.918 292.887 674.334 293.147C673.755 293.403 673.086 293.531 672.328 293.531ZM677.264 293.315L681.688 282.206H683.324L687.754 293.315H685.855L684.765 290.42H680.254L679.156 293.315H677.264ZM680.853 288.872H684.165L682.502 284.576L680.853 288.872ZM689.593 293.315V282.206H693.053C693.776 282.206 694.411 282.332 694.959 282.583C695.511 282.835 695.942 283.203 696.251 283.688C696.561 284.172 696.716 284.772 696.716 285.485C696.716 286.19 696.561 286.798 696.251 287.31C695.942 287.817 695.511 288.21 694.959 288.488C694.411 288.762 693.776 288.899 693.053 288.899H691.357V293.315H689.593ZM691.357 287.471H692.535C692.979 287.471 693.377 287.4 693.727 287.256C694.081 287.112 694.362 286.899 694.568 286.616C694.775 286.329 694.878 285.968 694.878 285.532C694.878 285.097 694.775 284.738 694.568 284.455C694.362 284.172 694.081 283.964 693.727 283.829C693.377 283.69 692.979 283.62 692.535 283.62H691.357V287.471ZM698.873 293.315V282.206H702.334C703.057 282.206 703.692 282.332 704.239 282.583C704.791 282.835 705.222 283.203 705.532 283.688C705.842 284.172 705.997 284.772 705.997 285.485C705.997 286.19 705.842 286.798 705.532 287.31C705.222 287.817 704.791 288.21 704.239 288.488C703.692 288.762 703.057 288.899 702.334 288.899H700.637V293.315H698.873ZM700.637 287.471H701.816C702.26 287.471 702.657 287.4 703.007 287.256C703.362 287.112 703.642 286.899 703.849 286.616C704.055 286.329 704.159 285.968 704.159 285.532C704.159 285.097 704.055 284.738 703.849 284.455C703.642 284.172 703.362 283.964 703.007 283.829C702.657 283.69 702.26 283.62 701.816 283.62H700.637V287.471ZM715.495 293.531C714.144 293.531 713.125 293.181 712.438 292.481C711.751 291.78 711.408 290.741 711.408 289.363V282.206H713.165V288.885C713.165 289.895 713.352 290.634 713.724 291.1C714.101 291.567 714.691 291.801 715.495 291.801C716.298 291.801 716.886 291.567 717.259 291.1C717.636 290.634 717.824 289.895 717.824 288.885V282.206H719.588V289.363C719.588 290.741 719.245 291.78 718.558 292.481C717.871 293.181 716.85 293.531 715.495 293.531ZM725.106 293.531C724.571 293.531 724.087 293.464 723.651 293.329C723.216 293.194 722.832 293.028 722.5 292.831C722.172 292.629 721.896 292.427 721.672 292.225C721.447 292.023 721.277 291.857 721.16 291.727L722.089 290.299C722.215 290.429 722.372 290.584 722.561 290.764C722.754 290.943 722.978 291.121 723.234 291.296C723.49 291.466 723.777 291.61 724.096 291.727C724.414 291.839 724.767 291.895 725.153 291.895C725.516 291.895 725.842 291.834 726.129 291.713C726.416 291.592 726.645 291.412 726.816 291.174C726.986 290.932 727.071 290.634 727.071 290.279C727.071 289.969 727.006 289.704 726.876 289.485C726.751 289.265 726.569 289.074 726.331 288.912C726.093 288.746 725.81 288.589 725.483 288.441C725.155 288.288 724.789 288.131 724.385 287.97C724.098 287.848 723.813 287.707 723.53 287.545C723.252 287.384 722.998 287.191 722.769 286.966C722.545 286.742 722.365 286.484 722.231 286.192C722.096 285.896 722.029 285.555 722.029 285.169C722.029 284.751 722.109 284.354 722.271 283.977C722.437 283.596 722.671 283.257 722.971 282.96C723.272 282.664 723.629 282.431 724.042 282.26C724.459 282.09 724.924 282.004 725.435 282.004C725.853 282.004 726.259 282.065 726.654 282.186C727.049 282.307 727.408 282.465 727.731 282.658C728.059 282.851 728.326 283.057 728.532 283.277L727.765 284.617C727.594 284.442 727.39 284.278 727.152 284.125C726.919 283.968 726.659 283.842 726.371 283.748C726.084 283.654 725.783 283.607 725.469 283.607C725.101 283.607 724.789 283.679 724.533 283.822C724.277 283.966 724.08 284.154 723.941 284.388C723.806 284.617 723.739 284.866 723.739 285.135C723.739 285.369 723.786 285.568 723.88 285.734C723.979 285.896 724.114 286.035 724.284 286.152C724.455 286.269 724.65 286.376 724.87 286.475C725.094 286.569 725.33 286.663 725.577 286.758C726.066 286.955 726.517 287.157 726.93 287.364C727.348 287.566 727.709 287.797 728.014 288.057C728.319 288.313 728.555 288.618 728.721 288.973C728.892 289.323 728.977 289.745 728.977 290.239C728.977 290.93 728.811 291.522 728.479 292.016C728.151 292.51 727.695 292.887 727.112 293.147C726.533 293.403 725.864 293.531 725.106 293.531Z" fill="white"/>
<path d="M627.945 316.074V311.363H623.234V308.087H627.945V303.376H631.221L631.221 308.087H635.932V311.363H631.221V316.074H627.945ZM640.863 319.981L646.921 312.798C646.435 313.102 645.833 313.255 645.116 313.255C644.275 313.255 643.463 313.086 642.68 312.748C641.897 312.402 641.196 311.916 640.578 311.289C639.96 310.663 639.47 309.921 639.107 309.064C638.744 308.198 638.563 307.246 638.563 306.208C638.563 304.905 638.86 303.727 639.453 302.671C640.047 301.608 640.9 300.763 642.012 300.137C643.125 299.502 644.465 299.185 646.031 299.185C647.621 299.185 649.01 299.51 650.197 300.162C651.384 300.813 652.307 301.686 652.967 302.783C653.626 303.871 653.96 305.082 653.968 306.418C653.968 307.217 653.902 307.939 653.77 308.581C653.639 309.224 653.437 309.826 653.165 310.387C652.901 310.947 652.575 311.495 652.188 312.031C651.809 312.567 651.376 313.127 650.89 313.712L645.709 319.981H640.863ZM646.228 309.793C646.731 309.793 647.197 309.702 647.626 309.521C648.062 309.332 648.442 309.072 648.763 308.742C649.085 308.404 649.336 308.013 649.517 307.568C649.707 307.122 649.802 306.644 649.802 306.133C649.802 305.441 649.645 304.823 649.332 304.279C649.027 303.735 648.606 303.31 648.071 303.005C647.535 302.7 646.921 302.548 646.228 302.548C645.528 302.548 644.901 302.704 644.349 303.018C643.805 303.323 643.372 303.747 643.051 304.291C642.738 304.827 642.581 305.441 642.581 306.133C642.581 306.826 642.738 307.448 643.051 308C643.372 308.553 643.809 308.989 644.362 309.311C644.914 309.632 645.536 309.793 646.228 309.793ZM655.381 319.981L664.963 303.092H655.901V299.58H670.886V300.767L660.104 319.981H655.381ZM674.535 319.981V303.512H671.494V299.58H678.541V319.981H674.535ZM695.394 320.352C694.306 320.352 693.28 320.183 692.315 319.845C691.351 319.507 690.51 319.008 689.793 318.349C689.076 317.69 688.54 316.882 688.186 315.926L691.363 314.392C691.602 315.184 692.076 315.818 692.785 316.297C693.502 316.775 694.343 317.014 695.307 317.014C696.057 317.014 696.7 316.869 697.236 316.581C697.78 316.284 698.196 315.872 698.485 315.344C698.781 314.817 698.93 314.211 698.93 313.527C698.93 312.678 698.707 311.953 698.262 311.351C697.825 310.741 697.203 310.275 696.395 309.954C695.596 309.624 694.648 309.459 693.552 309.459C692.793 309.459 692.072 309.562 691.388 309.768C690.704 309.974 690.065 310.275 689.471 310.671L691.215 299.58H701.625V303.092H694.627L694.021 307.085C695.901 306.682 697.59 306.813 699.091 307.481C699.874 307.745 700.55 308.153 701.118 308.705C701.695 309.249 702.14 309.908 702.454 310.683C702.775 311.458 702.936 312.324 702.936 313.28C702.936 314.747 702.602 316.012 701.934 317.075C701.267 318.13 700.364 318.942 699.227 319.511C698.089 320.072 696.812 320.352 695.394 320.352ZM704.879 319.981V317.929C706.486 316.7 707.891 315.588 709.095 314.59C710.298 313.585 711.324 312.674 712.173 311.858C713.022 311.042 713.711 310.3 714.238 309.632C714.766 308.956 715.149 308.338 715.388 307.778C715.635 307.209 715.759 306.673 715.759 306.17C715.759 305.544 715.611 304.975 715.314 304.464C715.017 303.945 714.613 303.533 714.102 303.228C713.599 302.923 713.031 302.77 712.396 302.77C711.786 302.77 711.221 302.927 710.702 303.24C710.191 303.545 709.742 303.999 709.354 304.6C708.967 305.202 708.646 305.94 708.39 306.813L705.027 305.243C705.274 304.312 705.629 303.475 706.09 302.733C706.56 301.983 707.121 301.344 707.772 300.817C708.431 300.289 709.169 299.885 709.985 299.605C710.801 299.325 711.683 299.185 712.631 299.185C714.073 299.185 715.355 299.486 716.476 300.087C717.597 300.681 718.475 301.493 719.11 302.523C719.752 303.553 720.074 304.728 720.074 306.047C720.074 306.706 719.983 307.353 719.802 307.988C719.621 308.623 719.336 309.266 718.949 309.917C718.561 310.56 718.059 311.223 717.44 311.907C716.822 312.583 716.076 313.296 715.203 314.046C714.337 314.788 713.327 315.579 712.173 316.42H720.445V319.981H704.879ZM731.786 319.981V303.512H728.744V299.58H735.792V319.981H731.786ZM748.514 319.981V316.247H738.339V314.986L748.316 299.58H752.273V312.723H754.647V316.247H752.273V319.981H748.514ZM743.779 312.723H748.514V304.959L743.779 312.723ZM765.267 320.377C763.602 320.377 762.139 319.932 760.878 319.041C759.617 318.151 758.632 316.911 757.923 315.32C757.222 313.729 756.872 311.887 756.872 309.793C756.872 307.691 757.222 305.849 757.923 304.266C758.632 302.676 759.617 301.435 760.878 300.545C762.139 299.655 763.602 299.21 765.267 299.21C766.932 299.21 768.391 299.655 769.644 300.545C770.905 301.435 771.886 302.676 772.586 304.266C773.295 305.849 773.65 307.691 773.65 309.793C773.65 311.887 773.295 313.729 772.586 315.32C771.886 316.911 770.905 318.151 769.644 319.041C768.391 319.932 766.932 320.377 765.267 320.377ZM765.267 316.853C766.124 316.853 766.862 316.569 767.48 316C768.098 315.431 768.576 314.619 768.914 313.564C769.252 312.501 769.421 311.244 769.421 309.793C769.421 308.334 769.252 307.077 768.914 306.022C768.576 304.967 768.098 304.155 767.48 303.586C766.862 303.018 766.124 302.733 765.267 302.733C764.41 302.733 763.668 303.018 763.041 303.586C762.423 304.155 761.945 304.967 761.607 306.022C761.269 307.077 761.1 308.334 761.1 309.793C761.1 311.244 761.269 312.501 761.607 313.564C761.945 314.619 762.423 315.431 763.041 316C763.668 316.569 764.41 316.853 765.267 316.853ZM790.949 320.377C789.284 320.377 787.821 319.932 786.56 319.041C785.299 318.151 784.314 316.911 783.605 315.32C782.904 313.729 782.554 311.887 782.554 309.793C782.554 307.691 782.904 305.849 783.605 304.266C784.314 302.676 785.299 301.435 786.56 300.545C787.821 299.655 789.284 299.21 790.949 299.21C792.614 299.21 794.073 299.655 795.326 300.545C796.587 301.435 797.568 302.676 798.269 304.266C798.977 305.849 799.332 307.691 799.332 309.793C799.332 311.887 798.977 313.729 798.269 315.32C797.568 316.911 796.587 318.151 795.326 319.041C794.073 319.932 792.614 320.377 790.949 320.377ZM790.949 316.853C791.806 316.853 792.544 316.569 793.162 316C793.78 315.431 794.258 314.619 794.596 313.564C794.934 312.501 795.103 311.244 795.103 309.793C795.103 308.334 794.934 307.077 794.596 306.022C794.258 304.967 793.78 304.155 793.162 303.586C792.544 303.018 791.806 302.733 790.949 302.733C790.092 302.733 789.35 303.018 788.724 303.586C788.105 304.155 787.627 304.967 787.289 306.022C786.951 307.077 786.782 308.334 786.782 309.793C786.782 311.244 786.951 312.501 787.289 313.564C787.627 314.619 788.105 315.431 788.724 316C789.35 316.569 790.092 316.853 790.949 316.853ZM809.385 320.377C808.207 320.377 807.131 320.191 806.158 319.82C805.186 319.449 804.349 318.934 803.648 318.275C802.948 317.615 802.408 316.849 802.029 315.975C801.65 315.101 801.46 314.158 801.46 313.144C801.46 312.014 801.732 310.803 802.276 309.509C802.828 308.215 803.578 306.995 804.526 305.849L809.707 299.58H814.566L808.557 306.702C808.812 306.57 809.097 306.471 809.41 306.405C809.723 306.339 810.057 306.306 810.411 306.306C811.335 306.306 812.188 306.48 812.971 306.826C813.754 307.164 814.434 307.646 815.011 308.272C815.596 308.899 816.049 309.641 816.371 310.498C816.701 311.347 816.865 312.282 816.865 313.304C816.865 314.706 816.552 315.938 815.926 317.001C815.299 318.065 814.426 318.893 813.305 319.486C812.184 320.08 810.877 320.377 809.385 320.377ZM809.2 317.038C809.9 317.038 810.527 316.882 811.079 316.569C811.631 316.255 812.064 315.827 812.377 315.283C812.699 314.739 812.859 314.12 812.859 313.428C812.859 312.719 812.699 312.089 812.377 311.536C812.064 310.984 811.631 310.547 811.079 310.226C810.535 309.904 809.925 309.744 809.249 309.744C808.573 309.744 807.959 309.908 807.407 310.238C806.855 310.56 806.414 311.001 806.084 311.561C805.763 312.122 805.602 312.752 805.602 313.453C805.602 314.129 805.75 314.739 806.047 315.283C806.352 315.818 806.772 316.247 807.308 316.569C807.852 316.882 808.483 317.038 809.2 317.038ZM820.788 319.981L826.847 312.798C826.36 313.102 825.759 313.255 825.042 313.255C824.201 313.255 823.389 313.086 822.606 312.748C821.823 312.402 821.122 311.916 820.504 311.289C819.886 310.663 819.395 309.921 819.033 309.064C818.67 308.198 818.489 307.246 818.489 306.208C818.489 304.905 818.785 303.727 819.379 302.671C819.972 301.608 820.826 300.763 821.938 300.137C823.051 299.502 824.39 299.185 825.957 299.185C827.547 299.185 828.936 299.51 830.123 300.162C831.31 300.813 832.233 301.686 832.893 302.783C833.552 303.871 833.886 305.082 833.894 306.418C833.894 307.217 833.828 307.939 833.696 308.581C833.564 309.224 833.363 309.826 833.091 310.387C832.827 310.947 832.501 311.495 832.114 312.031C831.735 312.567 831.302 313.127 830.816 313.712L825.635 319.981H820.788ZM826.154 309.793C826.657 309.793 827.123 309.702 827.552 309.521C827.988 309.332 828.368 309.072 828.689 308.742C829.01 308.404 829.262 308.013 829.443 307.568C829.633 307.122 829.728 306.644 829.728 306.133C829.728 305.441 829.571 304.823 829.258 304.279C828.953 303.735 828.532 303.31 827.997 303.005C827.461 302.7 826.847 302.548 826.154 302.548C825.454 302.548 824.827 302.704 824.275 303.018C823.731 303.323 823.298 303.747 822.977 304.291C822.664 304.827 822.507 305.441 822.507 306.133C822.507 306.826 822.664 307.448 822.977 308C823.298 308.553 823.735 308.989 824.287 309.311C824.84 309.632 825.462 309.793 826.154 309.793ZM842.59 320.377C841.37 320.377 840.253 320.166 839.239 319.746C838.225 319.326 837.368 318.736 836.667 317.978C835.967 317.22 835.476 316.325 835.196 315.295L838.905 313.539C838.963 314.199 839.144 314.784 839.449 315.295C839.762 315.798 840.187 316.193 840.723 316.482C841.267 316.762 841.893 316.902 842.602 316.902C843.591 316.902 844.378 316.63 844.964 316.086C845.557 315.542 845.854 314.821 845.854 313.923C845.854 313.28 845.71 312.707 845.421 312.204C845.133 311.693 844.741 311.293 844.246 311.005C843.76 310.708 843.216 310.56 842.614 310.56C842.268 310.56 841.971 310.609 841.724 310.708V308.037H842.652C843.187 308.037 843.669 307.906 844.098 307.642C844.535 307.37 844.881 307.011 845.137 306.566C845.4 306.121 845.532 305.643 845.532 305.132C845.532 304.629 845.4 304.176 845.137 303.772C844.881 303.368 844.535 303.047 844.098 302.807C843.661 302.568 843.171 302.449 842.627 302.449C842.083 302.449 841.576 302.573 841.106 302.82C840.644 303.067 840.261 303.405 839.956 303.834C839.651 304.262 839.458 304.757 839.375 305.317L836.198 303.834C836.428 302.911 836.853 302.103 837.471 301.41C838.089 300.71 838.848 300.17 839.746 299.791C840.653 299.403 841.638 299.21 842.701 299.21C843.946 299.21 845.054 299.465 846.027 299.976C847.008 300.487 847.778 301.184 848.339 302.066C848.899 302.939 849.18 303.937 849.18 305.058C849.18 305.635 849.093 306.175 848.92 306.677C848.755 307.18 848.516 307.638 848.203 308.05C847.89 308.462 847.511 308.816 847.065 309.113C847.642 309.418 848.141 309.805 848.561 310.275C848.982 310.745 849.303 311.285 849.526 311.895C849.748 312.497 849.86 313.168 849.86 313.91C849.86 315.147 849.555 316.255 848.945 317.236C848.335 318.209 847.482 318.975 846.385 319.536C845.297 320.096 844.032 320.377 842.59 320.377Z" fill="white"/>
<circle cx="593.911" cy="301.905" r="21.4324" fill="#00BF62" stroke="#00BF62" stroke-width="1.12046"/>
<path d="M603.15 293.059C605.444 295.353 606.865 298.358 606.865 301.636C606.865 308.302 601.292 313.765 594.572 313.765C592.551 313.765 590.584 313.219 588.781 312.29L582.389 313.929L584.082 307.646C583.044 305.843 582.443 303.767 582.443 301.582C582.443 294.916 587.907 289.453 594.572 289.453C597.85 289.453 600.91 290.764 603.15 293.059ZM594.572 311.689C600.145 311.689 604.789 307.154 604.789 301.636C604.789 298.905 603.641 296.391 601.729 294.479C599.817 292.567 597.304 291.529 594.627 291.529C589.054 291.529 584.519 296.064 584.519 301.582C584.519 303.494 585.066 305.351 586.049 306.99L586.322 307.373L585.284 311.088L589.109 310.05L589.436 310.268C591.021 311.197 592.769 311.689 594.572 311.689ZM600.145 304.149C600.418 304.313 600.636 304.368 600.691 304.532C600.8 304.641 600.8 305.242 600.527 305.952C600.254 306.663 599.052 307.318 598.506 307.373C597.522 307.537 596.757 307.482 594.845 306.608C591.786 305.297 589.819 302.237 589.655 302.073C589.491 301.855 588.453 300.434 588.453 298.905C588.453 297.43 589.218 296.719 589.491 296.391C589.764 296.064 590.092 296.009 590.311 296.009C590.474 296.009 590.693 296.009 590.857 296.009C591.075 296.009 591.294 295.954 591.567 296.555C591.786 297.156 592.441 298.631 592.496 298.795C592.551 298.959 592.605 299.123 592.496 299.342C591.95 300.489 591.294 300.434 591.622 300.981C592.824 303.002 593.971 303.712 595.774 304.587C596.047 304.75 596.211 304.696 596.43 304.532C596.593 304.313 597.194 303.603 597.358 303.33C597.577 303.002 597.795 303.057 598.069 303.166C598.342 303.275 599.817 303.986 600.145 304.149Z" fill="white"/>
<path fill-rule="evenodd" clip-rule="evenodd" d="M298.215 359.174C273.653 373.341 245.154 381.447 214.762 381.447C122.38 381.447 47.4894 306.556 47.4894 214.174C47.4894 121.792 122.38 46.902 214.762 46.902C249.216 46.902 281.236 57.3186 307.847 75.1743H377.478C338.228 29.2708 279.893 0.174316 214.762 0.174316C96.5728 0.174316 0.761719 95.9854 0.761719 214.174C0.761719 332.363 96.5728 428.174 214.762 428.174C277.008 428.174 333.047 401.598 372.151 359.174H298.215Z" fill="#D59117"/>
</svg>
