<svg width="780" height="156" viewBox="0 0 780 156" fill="none" xmlns="http://www.w3.org/2000/svg">
<rect x="195.165" y="0.893311" width="194.823" height="154.668" fill="#161616"/>
<path d="M337.241 65.0587C336.886 66.6849 336.305 67.0865 334.668 66.6339C319.713 62.4597 310.061 59.6249 295.087 55.5206L298.083 53.2173C312.877 57.3094 320.325 59.4425 335.119 63.5346C335.596 63.6666 336.123 63.8873 336.625 64.0637C336.892 64.4375 337.066 64.7481 337.241 65.0587Z" fill="white"/>
<path d="M255.058 56.0715C252.911 56.0715 250.964 56.0715 248.967 56.0715C248.218 56.0715 247.568 55.9179 247.269 55.099C246.969 54.3313 247.269 53.7171 247.868 53.2052C256.956 44.6065 265.993 35.9565 275.081 27.3066C276.079 26.3341 276.678 26.3853 277.727 27.3578C285.616 34.8305 293.455 42.3032 301.345 49.8272C302.543 50.9532 303.691 52.0792 304.89 53.2052C305.439 53.7171 305.788 54.3313 305.489 55.099C305.189 55.8668 304.54 56.0715 303.791 56.0715C301.794 56.0715 299.797 56.0715 297.7 56.0715C297.7 56.481 297.7 56.7881 297.7 57.1463C297.7 69.5839 297.7 82.0214 297.7 94.4589C297.7 96.1991 297.3 96.6597 295.602 96.6597C282.82 96.6597 270.038 96.6597 257.255 96.6597C255.557 96.6597 255.158 96.2503 255.158 94.51C255.158 82.0725 255.158 69.6862 255.158 57.2487C255.058 56.9416 255.058 56.5833 255.058 56.0715ZM252.462 53.0517C253.81 53.0517 254.908 53.0517 255.957 53.0517C257.605 53.0517 258.054 53.5123 258.054 55.2014C258.054 67.6389 258.054 80.0764 258.054 92.5139C258.054 92.8722 258.054 93.2305 258.054 93.5888C270.287 93.5888 282.47 93.5888 294.654 93.5888C294.654 93.1793 294.654 92.821 294.654 92.4627C294.654 79.974 294.654 67.5365 294.654 55.0478C294.654 53.6147 295.153 53.1029 296.551 53.1029C297.7 53.1029 298.848 53.1029 300.246 53.1029C292.157 45.4254 284.268 37.9015 276.329 30.3776C268.39 37.8503 260.501 45.3742 252.462 53.0517Z" fill="white"/>
<path d="M310.451 57.5831C311.788 58.0034 312.092 59.4116 311.316 60.2053C311.168 60.3765 310.923 60.5213 310.74 60.6299C306.337 63.2357 301.934 65.8415 297.482 68.4341C297.177 68.6151 296.823 68.7828 296.507 68.8022C295.829 68.8277 295.289 68.5204 295.058 67.8212C294.779 67.1087 294.982 66.5287 295.571 66.0546C295.707 65.9328 295.877 65.8736 296.012 65.7518C300.415 63.146 304.77 60.5269 309.16 57.9706C309.672 57.7932 310.158 57.7146 310.451 57.5831Z" fill="white"/>
<path d="M276.327 59.142C279.522 59.142 282.718 59.142 285.914 59.142C287.162 59.142 287.711 59.705 287.761 60.9846C287.761 67.4849 287.761 74.0363 287.761 80.5366C287.761 81.8673 287.212 82.4303 285.864 82.4303C279.522 82.4303 273.131 82.4303 266.79 82.4303C265.442 82.4303 264.942 81.8673 264.942 80.4854C264.942 73.9851 264.942 67.4849 264.942 61.0358C264.942 59.6026 265.442 59.0908 266.84 59.0908C270.035 59.142 273.181 59.142 276.327 59.142ZM284.715 62.2642C279.123 62.2642 273.581 62.2642 267.988 62.2642C267.988 67.9967 267.988 73.678 267.988 79.3593C273.581 79.3593 279.123 79.3593 284.715 79.3593C284.715 73.6268 284.715 67.9967 284.715 62.2642Z" fill="white"/>
<path d="M321.241 44.8348C324.296 44.8348 326.773 42.2962 326.773 39.1646C326.773 36.033 324.296 33.4944 321.241 33.4944C318.187 33.4944 315.71 36.033 315.71 39.1646C315.71 42.2962 318.187 44.8348 321.241 44.8348Z" fill="white" stroke="white" stroke-width="2.54752" stroke-miterlimit="10" stroke-linecap="round"/>
<path d="M321.247 26.6023V32.5778" stroke="white" stroke-width="2.54752" stroke-miterlimit="10" stroke-linecap="round"/>
<path d="M321.247 45.7068V51.6823" stroke="white" stroke-width="2.54752" stroke-miterlimit="10" stroke-linecap="round"/>
<path d="M325.581 43.8752L328.347 46.7103" stroke="white" stroke-width="2.54752" stroke-miterlimit="10" stroke-linecap="round"/>
<path d="M314.056 32.0547L316.821 34.8898" stroke="white" stroke-width="2.54752" stroke-miterlimit="10" stroke-linecap="round"/>
<path d="M325.63 34.6707L328.396 31.792" stroke="white" stroke-width="2.54752" stroke-miterlimit="10" stroke-linecap="round"/>
<path d="M314.104 46.4923L316.869 43.6572" stroke="white" stroke-width="2.54752" stroke-miterlimit="10" stroke-linecap="round"/>
<path d="M309.632 39.1646H315.504" stroke="white" stroke-width="2.54752" stroke-miterlimit="10" stroke-linecap="round"/>
<path d="M327.545 38.8584H333.374" stroke="white" stroke-width="2.54752" stroke-miterlimit="10" stroke-linecap="round"/>
<path d="M260.496 131.562C259.65 131.562 258.882 131.455 258.193 131.242C257.504 131.029 256.896 130.766 256.37 130.453C255.851 130.133 255.414 129.813 255.059 129.494C254.703 129.174 254.433 128.911 254.249 128.705L255.72 126.445C255.919 126.651 256.167 126.896 256.466 127.18C256.772 127.465 257.127 127.745 257.532 128.022C257.937 128.293 258.392 128.52 258.897 128.705C259.401 128.882 259.959 128.971 260.57 128.971C261.146 128.971 261.661 128.875 262.116 128.683C262.571 128.492 262.933 128.207 263.203 127.831C263.474 127.447 263.609 126.974 263.609 126.413C263.609 125.922 263.506 125.503 263.299 125.155C263.1 124.807 262.813 124.504 262.436 124.249C262.059 123.986 261.612 123.737 261.093 123.502C260.574 123.261 259.995 123.012 259.355 122.756C258.9 122.564 258.449 122.34 258.001 122.085C257.56 121.829 257.159 121.523 256.796 121.168C256.441 120.812 256.157 120.404 255.944 119.942C255.73 119.473 255.624 118.932 255.624 118.321C255.624 117.66 255.752 117.031 256.008 116.434C256.271 115.83 256.64 115.294 257.116 114.825C257.592 114.356 258.157 113.986 258.811 113.716C259.472 113.446 260.208 113.311 261.018 113.311C261.679 113.311 262.322 113.407 262.948 113.599C263.573 113.79 264.142 114.039 264.653 114.345C265.172 114.65 265.595 114.977 265.922 115.326L264.707 117.447C264.437 117.17 264.113 116.911 263.737 116.669C263.367 116.42 262.955 116.221 262.5 116.072C262.045 115.923 261.569 115.848 261.071 115.848C260.489 115.848 259.995 115.962 259.59 116.189C259.184 116.417 258.872 116.715 258.651 117.085C258.438 117.447 258.332 117.842 258.332 118.268C258.332 118.638 258.406 118.954 258.555 119.217C258.712 119.473 258.925 119.693 259.195 119.878C259.465 120.063 259.774 120.233 260.123 120.389C260.478 120.539 260.851 120.688 261.242 120.837C262.017 121.15 262.731 121.47 263.385 121.797C264.046 122.116 264.618 122.483 265.101 122.895C265.584 123.3 265.958 123.783 266.22 124.345C266.491 124.899 266.626 125.567 266.626 126.349C266.626 127.443 266.363 128.381 265.837 129.163C265.318 129.945 264.596 130.542 263.673 130.954C262.756 131.359 261.697 131.562 260.496 131.562ZM269.816 131.221V112.874H272.47V121.615C272.847 121.132 273.348 120.738 273.973 120.432C274.606 120.119 275.327 119.963 276.137 119.963C276.976 119.963 277.708 120.144 278.333 120.507C278.966 120.862 279.456 121.367 279.805 122.021C280.153 122.674 280.327 123.449 280.327 124.345V131.221H277.673V124.899C277.673 123.989 277.445 123.289 276.99 122.799C276.543 122.301 275.921 122.053 275.125 122.053C274.577 122.053 274.105 122.166 273.707 122.394C273.309 122.614 273.003 122.912 272.79 123.289C272.577 123.659 272.47 124.071 272.47 124.526V131.221H269.816ZM288.627 131.562C287.617 131.562 286.701 131.313 285.876 130.816C285.059 130.311 284.408 129.622 283.925 128.747C283.449 127.873 283.211 126.875 283.211 125.752C283.211 124.643 283.442 123.655 283.904 122.788C284.373 121.914 285.016 121.225 285.833 120.72C286.651 120.215 287.582 119.963 288.627 119.963C289.479 119.963 290.265 120.141 290.983 120.496C291.7 120.851 292.269 121.345 292.688 121.978V120.304H295.343V131.221H292.688V129.472C292.205 130.133 291.612 130.649 290.908 131.018C290.211 131.381 289.451 131.562 288.627 131.562ZM289.383 129.291C290.044 129.291 290.627 129.142 291.132 128.843C291.636 128.538 292.034 128.118 292.326 127.585C292.617 127.052 292.763 126.445 292.763 125.762C292.763 125.073 292.617 124.465 292.326 123.939C292.034 123.406 291.636 122.991 291.132 122.692C290.627 122.387 290.044 122.234 289.383 122.234C288.73 122.234 288.147 122.387 287.635 122.692C287.123 122.991 286.722 123.406 286.43 123.939C286.139 124.472 285.993 125.08 285.993 125.762C285.993 126.445 286.139 127.052 286.43 127.585C286.722 128.118 287.123 128.538 287.635 128.843C288.147 129.142 288.73 129.291 289.383 129.291ZM303.821 131.562C302.826 131.562 301.916 131.313 301.092 130.816C300.274 130.318 299.624 129.632 299.141 128.758C298.665 127.884 298.427 126.885 298.427 125.762C298.427 124.647 298.661 123.655 299.13 122.788C299.606 121.914 300.253 121.225 301.07 120.72C301.895 120.215 302.833 119.963 303.885 119.963C304.723 119.963 305.495 120.141 306.198 120.496C306.902 120.851 307.47 121.345 307.904 121.978V112.874H310.558V131.221H307.904V129.472C307.428 130.126 306.834 130.638 306.124 131.007C305.42 131.377 304.652 131.562 303.821 131.562ZM304.588 129.291C305.249 129.291 305.832 129.142 306.337 128.843C306.848 128.538 307.25 128.122 307.541 127.596C307.833 127.063 307.979 126.455 307.979 125.773C307.979 125.091 307.833 124.483 307.541 123.95C307.25 123.41 306.848 122.991 306.337 122.692C305.832 122.387 305.249 122.234 304.588 122.234C303.942 122.234 303.362 122.387 302.851 122.692C302.339 122.991 301.937 123.41 301.646 123.95C301.355 124.483 301.209 125.094 301.209 125.784C301.209 126.459 301.351 127.063 301.635 127.596C301.927 128.122 302.328 128.538 302.84 128.843C303.352 129.142 303.935 129.291 304.588 129.291ZM319.665 131.562C318.5 131.562 317.455 131.31 316.531 130.805C315.614 130.3 314.886 129.611 314.346 128.737C313.813 127.863 313.546 126.878 313.546 125.784C313.546 124.974 313.699 124.217 314.005 123.513C314.31 122.809 314.733 122.191 315.273 121.658C315.813 121.125 316.442 120.709 317.16 120.411C317.878 120.112 318.653 119.963 319.484 119.963C320.621 119.963 321.616 120.198 322.469 120.667C323.329 121.136 323.997 121.79 324.473 122.628C324.957 123.467 325.198 124.444 325.198 125.56C325.198 125.652 325.195 125.73 325.188 125.794C325.181 125.851 325.166 125.951 325.145 126.093H316.254C316.254 126.754 316.403 127.337 316.702 127.841C317 128.339 317.416 128.73 317.949 129.014C318.489 129.291 319.108 129.43 319.804 129.43C320.465 129.43 321.051 129.298 321.563 129.035C322.082 128.765 322.551 128.357 322.97 127.809L324.9 128.801C324.381 129.668 323.66 130.347 322.736 130.837C321.819 131.32 320.795 131.562 319.665 131.562ZM316.371 124.43H322.565C322.473 123.932 322.284 123.502 322 123.14C321.716 122.777 321.357 122.497 320.923 122.298C320.49 122.092 320.007 121.989 319.474 121.989C318.912 121.989 318.411 122.088 317.97 122.287C317.53 122.486 317.171 122.767 316.894 123.129C316.616 123.492 316.442 123.925 316.371 124.43ZM331.123 131.562C330.207 131.562 329.389 131.391 328.671 131.05C327.961 130.702 327.381 130.204 326.934 129.558L328.106 127.831C328.526 128.385 328.991 128.815 329.503 129.121C330.022 129.426 330.558 129.579 331.113 129.579C331.454 129.579 331.756 129.519 332.019 129.398C332.282 129.27 332.491 129.089 332.648 128.854C332.804 128.612 332.882 128.328 332.882 128.001C332.882 127.66 332.794 127.394 332.616 127.202C332.438 127.01 332.172 126.836 331.816 126.679C331.461 126.523 331.013 126.338 330.473 126.125C330.018 125.933 329.585 125.72 329.172 125.485C328.76 125.251 328.419 124.956 328.149 124.6C327.886 124.238 327.755 123.78 327.755 123.225C327.755 122.593 327.929 122.031 328.277 121.541C328.632 121.05 329.116 120.667 329.727 120.389C330.345 120.112 331.049 119.974 331.838 119.974C332.406 119.974 332.978 120.077 333.554 120.283C334.13 120.482 334.705 120.773 335.281 121.157L334.322 122.831C333.49 122.141 332.669 121.797 331.859 121.797C331.383 121.797 330.999 121.91 330.708 122.138C330.423 122.365 330.281 122.657 330.281 123.012C330.281 123.303 330.406 123.552 330.654 123.758C330.903 123.964 331.212 124.146 331.582 124.302C331.951 124.458 332.321 124.608 332.69 124.75C333.273 124.963 333.785 125.19 334.226 125.432C334.666 125.674 335.011 125.986 335.26 126.37C335.508 126.754 335.633 127.266 335.633 127.905C335.633 128.673 335.448 129.33 335.078 129.877C334.716 130.425 334.197 130.844 333.522 131.135C332.847 131.42 332.047 131.562 331.123 131.562Z" fill="white"/>
<rect x="584.822" y="0.893311" width="194.823" height="154.668" fill="#161616"/>
<path d="M696.36 71.03C696.36 68.0022 696.36 65.077 696.36 62.0493C694.958 62.0493 693.556 62.0493 692.154 62.0493C691.504 62.0493 690.853 62.0493 690.202 62.0493C689.451 61.9979 689 61.5874 689 60.9716C689.05 60.2531 689.501 59.9452 690.152 59.9452C692.004 59.9452 693.856 59.9452 695.709 59.9452C695.909 59.9452 696.109 59.8939 696.36 59.8939C696.36 56.9687 696.36 54.0436 696.36 51.0671C693.306 51.0671 690.302 51.0671 687.148 51.0671C687.148 51.3237 687.098 51.5803 687.098 51.8882C687.098 53.9923 687.098 56.0963 687.098 58.2004C687.098 59.1754 686.697 59.6886 685.947 59.6886C685.196 59.6886 684.795 59.1754 684.795 58.2004C684.795 56.0963 684.795 54.0436 684.795 51.9395C684.795 51.6316 684.795 51.375 684.795 51.0158C681.691 51.0158 678.637 51.0158 675.483 51.0158C675.483 51.7343 675.483 52.4527 675.483 53.1712C675.483 53.9923 675.033 54.5055 674.332 54.5055C673.631 54.5055 673.23 53.9923 673.18 53.1712C673.18 52.5041 673.18 51.7856 673.18 51.0671C670.026 51.0671 666.973 51.0671 663.819 51.0671C663.819 51.529 663.819 51.9395 663.819 52.4014C663.819 53.0686 663.418 53.4278 662.817 53.4791C662.166 53.5304 661.666 53.2225 661.566 52.5554C661.516 52.0935 661.566 51.5803 661.566 51.0671C658.912 51.0671 656.309 51.0671 653.606 51.0671C653.606 52.2988 653.606 53.5817 653.606 54.8134C653.606 56.6095 653.606 58.4057 653.606 60.2018C653.606 61.1255 653.055 61.69 652.254 61.5361C651.553 61.4334 651.303 60.9203 651.303 60.2018C651.303 56.6095 651.303 52.9659 651.303 49.3736C651.303 42.5996 651.303 35.8769 651.303 29.1029C651.303 27.7173 651.553 27.4607 652.905 27.4607C670.177 27.4607 687.448 27.4607 704.77 27.4607C709.927 27.4607 715.083 27.4607 720.24 27.4607C721.391 27.4607 721.692 27.7686 721.692 29.0002C721.692 50.1434 721.692 71.2866 721.692 92.4297C721.692 93.61 721.391 93.918 720.19 93.918C709.476 93.918 698.763 93.918 688.049 93.918C687.899 93.918 687.749 93.918 687.599 93.918C686.748 93.918 686.297 93.5074 686.297 92.8403C686.297 92.1731 686.748 91.7626 687.599 91.7626C690.202 91.7626 692.805 91.7626 695.408 91.7626C695.709 91.7626 695.959 91.7626 696.31 91.7626C696.31 89.248 696.31 86.836 696.31 84.2188C695.859 84.2188 695.408 84.2188 694.958 84.2188C694.257 84.1675 693.806 83.7569 693.856 83.1411C693.907 82.474 694.307 82.1661 694.958 82.1147C695.408 82.0634 695.859 82.1147 696.36 82.1147C696.36 79.1383 696.36 76.1618 696.36 73.134C695.659 73.134 694.958 73.134 694.257 73.134C693.506 73.134 693.005 72.6722 693.005 72.1077C693.005 71.4918 693.506 71.0813 694.207 71.03C694.958 71.03 695.609 71.03 696.36 71.03ZM698.763 48.7578C701.867 48.7578 704.92 48.7578 707.974 48.7578C707.974 45.7813 707.974 42.8562 707.974 39.8797C704.87 39.8797 701.817 39.8797 698.763 39.8797C698.763 42.8562 698.763 45.7813 698.763 48.7578ZM708.024 62.1006C704.92 62.1006 701.867 62.1006 698.813 62.1006C698.813 65.077 698.813 68.0022 698.813 70.9787C701.917 70.9787 704.92 70.9787 708.024 70.9787C708.024 68.0022 708.024 65.077 708.024 62.1006ZM663.919 39.8797C663.919 42.8562 663.919 45.7813 663.919 48.7065C667.023 48.7065 670.076 48.7065 673.18 48.7065C673.18 45.73 673.18 42.8049 673.18 39.8797C670.076 39.8797 666.973 39.8797 663.919 39.8797ZM684.795 48.7578C684.795 45.7813 684.795 42.8562 684.795 39.8797C684.545 39.8797 684.294 39.8284 684.094 39.8284C681.491 39.8284 678.888 39.8284 676.284 39.8284C675.633 39.8284 675.483 40.0337 675.533 40.6495C675.583 43.1128 675.533 45.5761 675.533 48.0394C675.533 48.2446 675.583 48.5012 675.583 48.7578C678.637 48.7578 681.691 48.7578 684.795 48.7578ZM698.763 82.0634C701.867 82.0634 704.92 82.0634 708.024 82.0634C708.024 79.087 708.024 76.1105 708.024 73.1853C704.92 73.1853 701.867 73.1853 698.763 73.1853C698.763 76.1618 698.763 79.087 698.763 82.0634ZM698.763 51.0158C698.763 53.9923 698.763 56.9174 698.763 59.8426C701.867 59.8426 704.92 59.8426 707.974 59.8426C707.974 56.8661 707.974 53.941 707.974 51.0158C704.92 51.0158 701.867 51.0158 698.763 51.0158ZM696.36 39.8797C693.256 39.8797 690.252 39.8797 687.148 39.8797C687.148 42.8562 687.148 45.7813 687.148 48.7065C690.252 48.7065 693.256 48.7065 696.36 48.7065C696.36 45.7813 696.36 42.9075 696.36 39.8797ZM710.377 70.9787C713.381 70.9787 716.385 70.9787 719.389 70.9787C719.389 68.0022 719.389 65.077 719.389 62.1006C716.385 62.1006 713.381 62.1006 710.377 62.1006C710.377 65.077 710.377 68.0022 710.377 70.9787ZM719.389 73.1853C716.335 73.1853 713.381 73.1853 710.427 73.1853C710.427 76.1618 710.427 79.1383 710.427 82.0634C713.431 82.0634 716.435 82.0634 719.389 82.0634C719.389 79.087 719.389 76.1618 719.389 73.1853ZM719.389 59.8426C719.389 56.8661 719.389 53.941 719.389 51.0158C716.335 51.0158 713.381 51.0158 710.377 51.0158C710.377 53.9923 710.377 56.8661 710.377 59.8426C713.381 59.8426 716.335 59.8426 719.389 59.8426ZM719.389 39.9311C716.335 39.9311 713.331 39.9311 710.377 39.9311C710.377 42.9075 710.377 45.8327 710.377 48.7578C713.381 48.7578 716.385 48.7578 719.389 48.7578C719.389 45.7813 719.389 42.8562 719.389 39.9311ZM673.18 37.673C673.18 34.9019 673.18 32.2846 673.18 29.5647C670.076 29.5647 667.023 29.5647 663.919 29.5647C663.919 32.2846 663.919 34.9532 663.919 37.673C667.023 37.673 670.076 37.673 673.18 37.673ZM675.533 37.6217C678.687 37.6217 681.741 37.6217 684.795 37.6217C684.795 34.9019 684.795 32.2333 684.795 29.5647C681.691 29.5647 678.637 29.5647 675.533 29.5647C675.533 32.2846 675.533 34.9532 675.533 37.6217ZM698.813 29.5647C698.813 32.2846 698.813 35.0045 698.813 37.673C701.917 37.673 704.971 37.673 708.024 37.673C708.024 34.9532 708.024 32.2846 708.024 29.5647C704.92 29.5647 701.917 29.5647 698.813 29.5647ZM687.198 29.5647C687.198 32.2846 687.198 35.0045 687.198 37.673C690.302 37.673 693.306 37.673 696.36 37.673C696.36 34.9532 696.36 32.2846 696.36 29.5647C693.306 29.5647 690.302 29.5647 687.198 29.5647ZM710.377 37.673C713.431 37.673 716.385 37.673 719.389 37.673C719.389 34.9532 719.389 32.2846 719.389 29.6161C716.335 29.6161 713.381 29.6161 710.377 29.6161C710.377 32.2846 710.377 34.9019 710.377 37.673ZM698.813 84.2701C698.813 86.7847 698.813 89.248 698.813 91.7113C701.917 91.7113 704.971 91.7113 708.024 91.7113C708.024 89.1967 708.024 86.7334 708.024 84.2701C704.92 84.2701 701.867 84.2701 698.813 84.2701ZM653.706 48.7578C656.359 48.7578 658.912 48.7578 661.516 48.7578C661.516 45.7813 661.516 42.8562 661.516 39.9311C658.862 39.9311 656.309 39.9311 653.706 39.9311C653.706 42.9075 653.706 45.7813 653.706 48.7578ZM710.377 91.66C713.381 91.66 716.385 91.66 719.339 91.66C719.339 89.1454 719.339 86.6821 719.339 84.2701C716.335 84.2701 713.331 84.2701 710.377 84.2701C710.377 86.7847 710.377 89.1967 710.377 91.66ZM653.706 37.673C656.359 37.673 658.912 37.673 661.516 37.673C661.516 34.9532 661.516 32.2846 661.516 29.6161C658.862 29.6161 656.309 29.6161 653.706 29.6161C653.706 32.2846 653.706 34.9532 653.706 37.673Z" fill="white"/>
<path d="M687.997 75.802C687.747 82.0629 684.893 87.1947 679.687 90.7357C672.277 95.7649 662.265 94.5332 656.257 87.9645C649.448 80.5233 649.599 69.182 656.658 61.9974C664.117 54.351 676.432 54.8128 683.441 62.9724C686.395 66.3595 687.897 70.4649 687.997 75.802ZM653.253 74.3651C653.253 78.4706 654.154 81.4471 655.856 84.1669C661.413 92.8397 673.128 94.3793 680.638 87.4C687.496 81.0365 687.647 69.9517 680.988 63.383C675.331 57.7893 666.62 57.0195 660.262 61.6382C655.907 64.7686 653.453 69.2333 653.253 74.3651Z" fill="white"/>
<path d="M668.526 73.0308C668.326 72.5689 668.276 72.1583 668.025 71.9531C667.024 71.132 666.674 70.2082 667.124 69.1819C667.575 68.1555 668.826 67.5397 669.978 67.8476C670.879 68.1042 671.53 68.6174 671.73 69.6437C671.93 70.6188 671.53 71.3372 670.779 71.9017C670.528 72.107 670.478 72.4663 670.278 72.8255C672.08 72.5689 673.682 72.261 675.334 72.1583C676.586 72.0557 677.838 72.0557 679.089 72.2097C680.992 72.4149 682.544 74.0571 682.644 75.8533C682.744 77.8547 681.492 79.5482 679.54 80.0614C678.488 80.318 677.487 80.2666 676.486 79.9074C674.483 79.189 672.481 78.4705 670.428 77.752C670.428 78.7784 670.428 79.8561 670.428 80.8825C670.428 82.2167 670.428 83.6023 670.428 84.9366C670.428 85.809 670.028 86.2709 669.377 86.2709C668.726 86.2709 668.326 85.809 668.326 84.9366C668.326 82.4733 668.326 80.0614 668.326 77.5468C668.125 77.5981 667.975 77.6494 667.825 77.7007C665.572 78.5218 663.369 79.4455 661.066 80.1127C658.413 80.8311 655.81 78.7784 655.76 76.2125C655.76 74.2111 657.312 72.4149 659.264 72.2097C662.218 71.9018 665.122 72.1583 667.975 73.0308C668.125 73.0308 668.175 73.0308 668.526 73.0308ZM668.225 75.1861C668.025 75.0322 667.975 74.9808 667.925 74.9808C665.172 74.1084 662.418 73.8005 659.565 74.1084C658.613 74.2111 657.912 75.2374 657.963 76.2125C658.013 77.6494 659.514 78.6245 661.117 78.1113C663.019 77.4955 664.821 76.777 666.674 76.0585C667.174 75.8533 667.675 75.5454 668.225 75.1861ZM670.428 75.0322C670.428 75.0835 670.428 75.1861 670.428 75.2374C670.729 75.4427 671.029 75.648 671.379 75.8019C672.781 76.3664 674.133 76.9309 675.535 77.4441C676.336 77.752 677.187 78.06 678.038 78.2139C679.289 78.4705 680.441 77.5468 680.591 76.3664C680.741 75.1348 679.89 74.1598 678.589 74.0571C676.336 73.8518 674.133 74.1598 671.88 74.6216C671.379 74.7243 670.929 74.8782 670.428 75.0322Z" fill="white"/>
<path d="M664.467 86.6295C663.415 86.6295 662.915 85.9624 663.215 85.2439C664.016 83.4991 664.817 81.7543 665.668 80.0094C665.969 79.4449 666.569 79.2397 667.12 79.5476C667.671 79.8042 667.771 80.3173 667.47 80.9845C666.72 82.6267 665.969 84.2689 665.168 85.8597C665.017 86.219 664.617 86.4755 664.467 86.6295Z" fill="white"/>
<path d="M672.328 79.4458C672.478 79.5998 672.928 79.805 673.078 80.1129C673.93 81.7551 674.681 83.4486 675.482 85.1421C675.732 85.7066 675.682 86.1685 675.131 86.5277C674.63 86.8356 673.93 86.6304 673.629 86.0145C673.229 85.2448 672.878 84.475 672.528 83.6539C672.077 82.7302 671.627 81.8064 671.226 80.8314C670.876 80.1643 671.326 79.4458 672.328 79.4458Z" fill="white"/>
<path d="M676.378 68.5671C676.027 69.5935 675.777 70.4659 675.326 71.2357C675.176 71.4923 674.475 71.5949 674.075 71.4923C673.574 71.3896 673.424 70.8764 673.574 70.3632C673.774 69.6448 673.975 68.9777 674.225 68.3105C674.425 67.746 674.926 67.5407 675.426 67.746C675.827 67.9513 676.077 68.2592 676.378 68.5671Z" fill="white"/>
<path d="M665.766 70.7732C665.516 71.0298 665.265 71.389 664.965 71.543C664.464 71.7483 663.914 71.6456 663.714 71.0811C663.413 70.3627 663.113 69.5929 663.013 68.8231C662.963 68.5152 663.313 67.8994 663.563 67.8481C663.914 67.7454 664.615 67.8481 664.765 68.156C665.165 68.9257 665.416 69.7982 665.766 70.7732Z" fill="white"/>
<path d="M668.171 65.4363C668.171 65.231 668.171 65.0257 668.171 64.8718C668.171 64.2047 668.522 63.8967 669.122 63.8454C669.723 63.7941 670.174 64.1533 670.224 64.7692C670.274 65.1797 670.274 65.5902 670.224 66.0008C670.174 66.7193 669.773 67.0785 669.122 67.0785C668.522 67.0785 668.121 66.6679 668.121 65.9495C668.171 65.7442 668.171 65.5902 668.171 65.4363Z" fill="white"/>
<path d="M631.942 129.284V111.694H641.462V114.146H633.978L634.735 113.485V120.201L633.978 119.242H640.993V121.694H633.978L634.735 120.734V129.284H631.942ZM644.543 129.284V110.948H647.198V129.284H644.543ZM651.004 134.828L654.234 128.314L649.042 118.368H652.07L655.769 125.724L659.042 118.368H662.07L654.032 134.828H651.004ZM674.14 129.625C673.294 129.625 672.526 129.519 671.837 129.306C671.148 129.092 670.54 128.829 670.014 128.517C669.495 128.197 669.058 127.877 668.703 127.557C668.347 127.237 668.077 126.974 667.893 126.768L669.364 124.508C669.563 124.714 669.811 124.959 670.11 125.244C670.416 125.528 670.771 125.809 671.176 126.086C671.581 126.356 672.036 126.583 672.541 126.768C673.045 126.946 673.603 127.035 674.214 127.035C674.79 127.035 675.305 126.939 675.76 126.747C676.215 126.555 676.577 126.271 676.848 125.894C677.118 125.51 677.253 125.038 677.253 124.476C677.253 123.986 677.15 123.567 676.943 123.218C676.744 122.87 676.457 122.568 676.08 122.312C675.703 122.049 675.256 121.8 674.737 121.566C674.218 121.324 673.639 121.075 672.999 120.82C672.544 120.628 672.093 120.404 671.645 120.148C671.204 119.892 670.803 119.587 670.44 119.231C670.085 118.876 669.801 118.467 669.588 118.005C669.374 117.536 669.268 116.996 669.268 116.385C669.268 115.724 669.396 115.095 669.652 114.498C669.915 113.894 670.284 113.357 670.76 112.888C671.236 112.419 671.801 112.049 672.455 111.779C673.116 111.509 673.852 111.374 674.662 111.374C675.323 111.374 675.966 111.47 676.592 111.662C677.217 111.854 677.786 112.103 678.297 112.408C678.816 112.714 679.239 113.041 679.566 113.389L678.351 115.511C678.081 115.233 677.757 114.974 677.381 114.732C677.011 114.484 676.599 114.285 676.144 114.135C675.689 113.986 675.213 113.911 674.715 113.911C674.133 113.911 673.639 114.025 673.234 114.253C672.828 114.48 672.516 114.779 672.295 115.148C672.082 115.511 671.976 115.905 671.976 116.331C671.976 116.701 672.05 117.017 672.199 117.28C672.356 117.536 672.569 117.756 672.839 117.941C673.109 118.126 673.418 118.297 673.767 118.453C674.122 118.602 674.495 118.751 674.886 118.901C675.661 119.213 676.375 119.533 677.029 119.86C677.69 120.18 678.262 120.546 678.745 120.958C679.228 121.363 679.602 121.847 679.865 122.408C680.135 122.962 680.27 123.63 680.27 124.412C680.27 125.507 680.007 126.445 679.481 127.227C678.962 128.008 678.241 128.605 677.317 129.018C676.4 129.423 675.341 129.625 674.14 129.625ZM688.555 129.625C687.731 129.625 686.953 129.48 686.221 129.188C685.496 128.89 684.856 128.478 684.302 127.952C683.748 127.426 683.31 126.811 682.991 126.107C682.678 125.404 682.522 124.643 682.522 123.826C682.522 123.037 682.671 122.294 682.969 121.598C683.275 120.894 683.698 120.276 684.238 119.743C684.785 119.21 685.425 118.791 686.157 118.485C686.896 118.179 687.692 118.027 688.545 118.027C689.256 118.027 689.934 118.13 690.581 118.336C691.235 118.542 691.775 118.812 692.201 119.146L691.253 120.937C690.627 120.461 689.856 120.223 688.939 120.223C688.186 120.223 687.536 120.39 686.988 120.724C686.441 121.051 686.022 121.491 685.73 122.046C685.439 122.593 685.293 123.186 685.293 123.826C685.293 124.501 685.446 125.112 685.752 125.66C686.057 126.2 686.487 126.63 687.042 126.949C687.596 127.269 688.236 127.429 688.961 127.429C689.408 127.429 689.828 127.365 690.219 127.237C690.617 127.109 690.958 126.935 691.242 126.715L692.201 128.506C691.768 128.833 691.231 129.099 690.592 129.306C689.952 129.519 689.273 129.625 688.555 129.625ZM694.844 129.284V118.368H697.499V119.956C697.882 119.331 698.362 118.854 698.938 118.528C699.513 118.194 700.146 118.027 700.835 118.027C701.198 118.027 701.567 118.076 701.944 118.176C702.328 118.268 702.655 118.393 702.925 118.549L701.827 120.798C701.592 120.656 701.319 120.542 701.006 120.457C700.7 120.372 700.416 120.329 700.153 120.329C699.698 120.329 699.268 120.446 698.863 120.681C698.458 120.916 698.128 121.218 697.872 121.587C697.623 121.957 697.499 122.355 697.499 122.781V129.284H694.844ZM709.994 129.625C708.829 129.625 707.784 129.373 706.86 128.868C705.943 128.364 705.215 127.674 704.675 126.8C704.142 125.926 703.875 124.942 703.875 123.847C703.875 123.037 704.028 122.28 704.333 121.577C704.639 120.873 705.062 120.255 705.602 119.722C706.142 119.189 706.771 118.773 707.489 118.474C708.207 118.176 708.981 118.027 709.813 118.027C710.95 118.027 711.945 118.261 712.798 118.73C713.658 119.199 714.326 119.853 714.802 120.692C715.286 121.53 715.527 122.508 715.527 123.623C715.527 123.716 715.524 123.794 715.516 123.858C715.509 123.915 715.495 124.014 715.474 124.156H706.583C706.583 124.817 706.732 125.4 707.031 125.905C707.329 126.402 707.745 126.793 708.278 127.077C708.818 127.355 709.436 127.493 710.133 127.493C710.794 127.493 711.38 127.362 711.892 127.099C712.411 126.829 712.88 126.42 713.299 125.873L715.229 126.864C714.71 127.731 713.988 128.41 713.065 128.9C712.148 129.384 711.124 129.625 709.994 129.625ZM706.7 122.493H712.894C712.802 121.996 712.613 121.566 712.329 121.203C712.045 120.841 711.686 120.56 711.252 120.361C710.819 120.155 710.335 120.052 709.802 120.052C709.241 120.052 708.74 120.152 708.299 120.351C707.859 120.55 707.5 120.83 707.222 121.193C706.945 121.555 706.771 121.989 706.7 122.493ZM723.732 129.625C722.566 129.625 721.521 129.373 720.597 128.868C719.68 128.364 718.952 127.674 718.412 126.8C717.879 125.926 717.612 124.942 717.612 123.847C717.612 123.037 717.765 122.28 718.071 121.577C718.376 120.873 718.799 120.255 719.339 119.722C719.879 119.189 720.508 118.773 721.226 118.474C721.944 118.176 722.719 118.027 723.55 118.027C724.687 118.027 725.682 118.261 726.535 118.73C727.395 119.199 728.063 119.853 728.54 120.692C729.023 121.53 729.264 122.508 729.264 123.623C729.264 123.716 729.261 123.794 729.254 123.858C729.247 123.915 729.232 124.014 729.211 124.156H720.32C720.32 124.817 720.469 125.4 720.768 125.905C721.066 126.402 721.482 126.793 722.015 127.077C722.555 127.355 723.174 127.493 723.87 127.493C724.531 127.493 725.117 127.362 725.629 127.099C726.148 126.829 726.617 126.42 727.036 125.873L728.966 126.864C728.447 127.731 727.726 128.41 726.802 128.9C725.885 129.384 724.862 129.625 723.732 129.625ZM720.437 122.493H726.631C726.539 121.996 726.351 121.566 726.066 121.203C725.782 120.841 725.423 120.56 724.99 120.361C724.556 120.155 724.073 120.052 723.54 120.052C722.978 120.052 722.477 120.152 722.036 120.351C721.596 120.55 721.237 120.83 720.96 121.193C720.683 121.555 720.508 121.989 720.437 122.493ZM732.225 129.284V118.368H734.879V119.679C735.256 119.196 735.757 118.801 736.382 118.496C737.015 118.183 737.736 118.027 738.547 118.027C739.385 118.027 740.117 118.208 740.743 118.57C741.375 118.926 741.866 119.43 742.214 120.084C742.562 120.738 742.736 121.513 742.736 122.408V129.284H740.082V122.962C740.082 122.053 739.854 121.353 739.399 120.862C738.952 120.365 738.33 120.116 737.534 120.116C736.987 120.116 736.514 120.23 736.116 120.457C735.718 120.677 735.412 120.976 735.199 121.353C734.986 121.722 734.879 122.134 734.879 122.589V129.284H732.225Z" fill="white"/>
<rect x="389.994" y="0.893311" width="194.823" height="154.668" fill="black"/>
<path d="M456.812 31.3031C456.378 31.3031 456.04 31.3031 455.702 31.3031C455.075 31.2536 454.641 30.8577 454.593 30.2142C454.593 28.6799 454.593 27.0961 454.593 25.5618C454.593 24.9183 455.027 24.5224 455.654 24.4729C455.847 24.4729 456.088 24.4729 456.281 24.4729C477.366 24.4729 498.403 24.4729 519.487 24.4729C520.887 24.4729 521.128 24.7699 521.128 26.1557C521.128 27.3436 521.128 28.5809 521.128 29.7688C521.128 30.9072 520.79 31.2536 519.68 31.2536C519.439 31.2536 519.198 31.2536 518.908 31.2536C518.908 31.6001 518.908 31.8971 518.908 32.194C518.908 51.7443 518.908 71.3441 518.908 90.8943C518.908 92.4287 518.667 92.6761 517.123 92.6761C511.189 92.6761 505.254 92.6761 499.319 92.6761C498.161 92.6761 497.824 92.3297 497.824 91.1418C497.824 88.0237 498.21 84.955 499.03 81.9853C499.078 81.7874 499.126 81.5894 499.175 81.3419C491.6 81.3419 484.121 81.3419 476.546 81.3419C476.835 82.6288 477.173 83.9156 477.318 85.2025C477.559 87.2812 477.704 89.4095 477.849 91.4883C477.897 92.2307 477.463 92.6761 476.691 92.6761C470.467 92.6761 464.243 92.6761 457.97 92.6761C457.198 92.6761 456.812 92.2307 456.764 91.4388C456.764 91.2408 456.764 90.9933 456.764 90.7953C456.764 71.2946 456.764 51.7443 456.764 32.2435C456.812 31.9465 456.812 31.6496 456.812 31.3031ZM484.507 74.5117C484.507 60.0593 484.507 45.706 484.507 31.3526C483.397 31.3526 482.336 31.3526 481.226 31.3526C480.84 43.7262 477.173 55.0604 471.046 65.5532C472.734 66.7906 472.927 69.6613 471.528 71.8885C472.059 72.6309 472.59 73.3733 473.169 74.0662C473.362 74.3137 473.699 74.4622 473.989 74.5117C475.34 74.5612 476.642 74.5117 477.993 74.5117C480.165 74.5117 482.288 74.5117 484.507 74.5117ZM491.214 31.3031C491.214 45.706 491.214 60.1088 491.214 74.5117C494.832 74.5117 498.403 74.5117 501.973 74.5117C502.118 74.5117 502.311 74.4127 502.359 74.3137C502.986 73.5218 503.565 72.6804 504.193 71.839C502.793 70.0572 502.986 66.9886 504.627 65.5037C498.547 55.0109 494.881 43.6767 494.495 31.3031C493.385 31.3031 492.323 31.3031 491.214 31.3031ZM507.763 31.3526C507.908 34.3718 507.956 37.2919 508.294 40.1626C508.728 44.2212 509.21 48.2797 509.934 52.2887C510.754 56.5452 511.912 60.7523 512.926 64.9593C512.974 65.1573 513.167 65.4047 513.312 65.4047C514.421 65.4542 515.531 65.4047 516.641 65.4047C516.641 53.9715 516.641 42.6373 516.641 31.3031C513.698 31.3526 510.803 31.3526 507.763 31.3526ZM459.08 31.3526C459.08 42.7363 459.08 54.0705 459.08 65.4542C460.19 65.4542 461.203 65.4542 462.216 65.4542C462.409 65.4542 462.699 65.2068 462.747 65.0088C464.146 60.3068 465.256 55.5059 466.076 50.7049C466.896 45.8545 467.427 41.004 467.668 36.1041C467.765 34.5697 467.668 32.9859 467.668 31.4021C464.918 31.3526 462.023 31.3526 459.08 31.3526ZM505.592 31.3526C502.6 31.3526 499.705 31.3526 496.762 31.3526C496.762 31.5506 496.762 31.6991 496.762 31.8476C496.955 37.7374 498.017 43.4787 499.802 49.0716C501.587 54.615 503.903 59.8614 506.943 64.7613C507.088 65.0088 507.377 65.3057 507.618 65.3552C508.631 65.4047 509.645 65.4047 510.706 65.4047C507.474 54.2685 505.785 42.9343 505.592 31.3526ZM465.015 65.4047C466.124 65.4047 467.137 65.4047 468.151 65.4047C468.344 65.4047 468.537 65.2068 468.681 65.0583C469.26 64.1674 469.791 63.2765 470.274 62.3361C474.761 54.0705 477.704 45.31 478.717 35.9061C478.862 34.4213 478.91 32.8869 479.007 31.3526C476.015 31.3526 473.072 31.3526 470.129 31.3526C470.032 37.1435 469.55 42.8848 468.73 48.5767C467.861 54.2685 466.607 59.8614 465.015 65.4047ZM518.86 26.7991C498.161 26.7991 477.511 26.7991 456.86 26.7991C456.86 27.591 456.86 28.284 456.86 28.9769C477.559 28.9769 498.21 28.9769 518.86 28.9769C518.86 28.2345 518.86 27.5416 518.86 26.7991ZM475.581 90.3994C475.726 87.5782 474.761 82.6783 473.458 79.5601C472.397 76.9864 470.997 74.6107 469.019 72.6309C468.826 72.4824 468.633 72.235 468.392 72.235C467.379 72.1855 466.317 72.235 465.208 72.235C467.282 78.1743 467.716 84.2621 467.909 90.3994C470.515 90.3994 473.024 90.3994 475.581 90.3994ZM507.811 90.3994C507.956 84.2126 508.438 78.1743 510.513 72.235C509.548 72.235 508.68 72.2845 507.811 72.235C507.281 72.1855 506.943 72.3834 506.605 72.7299C504.772 74.6107 503.421 76.8874 502.359 79.3127C500.863 82.8268 500.236 86.5388 500.091 90.3994C502.649 90.3994 505.206 90.3994 507.811 90.3994ZM516.641 90.3994C516.641 84.3116 516.641 78.2733 516.641 72.235C515.531 72.235 514.421 72.235 513.36 72.235C513.167 72.235 512.877 72.4329 512.829 72.6309C512.491 73.4228 512.202 74.2147 512.009 75.0066C510.899 78.8672 510.465 82.8268 510.224 86.8358C510.175 88.0237 510.224 89.162 510.224 90.3994C512.298 90.3994 514.421 90.3994 516.641 90.3994ZM465.642 90.3994C465.642 90.2509 465.69 90.1519 465.69 90.0529C465.594 86.3903 465.401 82.7278 464.677 79.1147C464.243 76.9864 463.567 74.8582 462.988 72.7794C462.94 72.5814 462.699 72.235 462.554 72.235C461.396 72.235 460.238 72.235 459.08 72.235C459.08 78.3723 459.08 84.3611 459.08 90.3994C461.251 90.3994 463.422 90.3994 465.642 90.3994ZM488.946 74.4622C488.946 60.0593 488.946 45.6565 488.946 31.3526C488.174 31.3526 487.498 31.3526 486.823 31.3526C486.823 45.7555 486.823 60.1088 486.823 74.4622C487.498 74.4622 488.174 74.4622 488.946 74.4622ZM500.96 76.8379C492.227 76.8379 483.542 76.8379 474.809 76.8379C475.05 77.4319 475.292 77.9268 475.485 78.4218C475.629 78.9167 475.919 79.0652 476.449 79.0652C481.13 79.0652 485.81 79.0652 490.538 79.0652C493.53 79.0652 496.521 79.0652 499.464 79.0652C499.705 79.0652 500.043 79.0157 500.14 78.8672C500.381 78.2238 500.622 77.5309 500.96 76.8379ZM459.08 69.9087C462.795 69.9087 466.462 69.9087 470.081 69.9087C470.081 69.1168 470.081 68.4239 470.081 67.731C466.365 67.731 462.747 67.731 459.08 67.731C459.08 68.4734 459.08 69.1663 459.08 69.9087ZM516.641 67.731C512.926 67.731 509.259 67.731 505.64 67.731C505.64 68.5229 505.64 69.2158 505.64 69.9087C509.355 69.9087 512.974 69.9087 516.641 69.9087C516.641 69.2158 516.641 68.4734 516.641 67.731Z" fill="white"/>
<path d="M450.655 131.562C449.326 131.562 448.086 131.331 446.934 130.869C445.783 130.4 444.77 129.75 443.896 128.918C443.029 128.086 442.35 127.12 441.86 126.018C441.369 124.91 441.124 123.716 441.124 122.436C441.124 121.164 441.369 119.974 441.86 118.865C442.357 117.756 443.04 116.786 443.907 115.955C444.774 115.123 445.779 114.476 446.924 114.014C448.075 113.545 449.312 113.311 450.634 113.311C451.721 113.311 452.751 113.467 453.725 113.78C454.699 114.093 455.541 114.508 456.252 115.027L455.026 117.394C454.493 116.967 453.86 116.637 453.128 116.402C452.396 116.168 451.625 116.051 450.815 116.051C449.855 116.051 448.97 116.214 448.16 116.541C447.35 116.868 446.643 117.323 446.039 117.906C445.442 118.481 444.98 119.156 444.653 119.931C444.326 120.706 444.162 121.541 444.162 122.436C444.162 123.332 444.326 124.167 444.653 124.942C444.98 125.716 445.442 126.395 446.039 126.978C446.643 127.553 447.35 128.005 448.16 128.332C448.97 128.659 449.855 128.822 450.815 128.822C451.625 128.822 452.396 128.705 453.128 128.47C453.86 128.236 454.493 127.905 455.026 127.479L456.252 129.845C455.562 130.35 454.731 130.762 453.757 131.082C452.791 131.402 451.756 131.562 450.655 131.562ZM463.731 131.562C461.855 131.562 460.508 131.178 459.691 130.41C458.873 129.636 458.465 128.36 458.465 126.583V120.304H461.119V125.986C461.119 127.216 461.315 128.09 461.706 128.609C462.104 129.128 462.779 129.387 463.731 129.387C464.683 129.387 465.355 129.128 465.746 128.609C466.144 128.09 466.343 127.216 466.343 125.986V120.304H468.998V126.583C468.998 128.36 468.589 129.636 467.772 130.41C466.954 131.178 465.607 131.562 463.731 131.562ZM472.655 131.221V120.304H475.31V121.893C475.694 121.267 476.173 120.791 476.749 120.464C477.325 120.13 477.957 119.963 478.647 119.963C479.009 119.963 479.379 120.013 479.755 120.112C480.139 120.205 480.466 120.329 480.736 120.485L479.638 122.735C479.404 122.593 479.13 122.479 478.817 122.394C478.512 122.308 478.227 122.266 477.964 122.266C477.51 122.266 477.08 122.383 476.675 122.618C476.269 122.852 475.939 123.154 475.683 123.524C475.434 123.893 475.31 124.291 475.31 124.718V131.221H472.655ZM486.118 131.562C485.13 131.562 484.359 131.242 483.805 130.602C483.258 129.963 482.984 129.064 482.984 127.905V122.319H481.651V120.304H482.984V116.221H485.639V120.304H488.154V122.319H485.639V127.724C485.639 128.2 485.734 128.566 485.926 128.822C486.118 129.071 486.392 129.195 486.747 129.195C487.117 129.195 487.454 129.081 487.76 128.854L488.432 130.976C488.112 131.16 487.746 131.302 487.334 131.402C486.921 131.509 486.516 131.562 486.118 131.562ZM495.813 131.562C494.804 131.562 493.887 131.313 493.063 130.816C492.245 130.311 491.595 129.622 491.112 128.747C490.636 127.873 490.397 126.875 490.397 125.752C490.397 124.643 490.628 123.655 491.09 122.788C491.56 121.914 492.203 121.225 493.02 120.72C493.837 120.215 494.768 119.963 495.813 119.963C496.666 119.963 497.451 120.141 498.169 120.496C498.887 120.851 499.456 121.345 499.875 121.978V120.304H502.529V131.221H499.875V129.472C499.392 130.133 498.798 130.649 498.095 131.018C497.398 131.381 496.638 131.562 495.813 131.562ZM496.57 129.291C497.231 129.291 497.814 129.142 498.318 128.843C498.823 128.538 499.221 128.118 499.512 127.585C499.804 127.052 499.949 126.445 499.949 125.762C499.949 125.073 499.804 124.465 499.512 123.939C499.221 123.406 498.823 122.991 498.318 122.692C497.814 122.387 497.231 122.234 496.57 122.234C495.916 122.234 495.333 122.387 494.822 122.692C494.31 122.991 493.908 123.406 493.617 123.939C493.326 124.472 493.18 125.08 493.18 125.762C493.18 126.445 493.326 127.052 493.617 127.585C493.908 128.118 494.31 128.538 494.822 128.843C495.333 129.142 495.916 129.291 496.57 129.291ZM506.423 131.221V120.304H509.078V131.221H506.423ZM507.756 118.065C507.465 118.065 507.194 117.994 506.946 117.852C506.704 117.703 506.509 117.508 506.359 117.266C506.217 117.017 506.146 116.744 506.146 116.445C506.146 116.154 506.217 115.887 506.359 115.645C506.509 115.404 506.704 115.212 506.946 115.07C507.194 114.921 507.465 114.846 507.756 114.846C508.054 114.846 508.321 114.921 508.555 115.07C508.797 115.212 508.989 115.404 509.131 115.645C509.28 115.887 509.355 116.154 509.355 116.445C509.355 116.744 509.28 117.017 509.131 117.266C508.989 117.508 508.797 117.703 508.555 117.852C508.321 117.994 508.054 118.065 507.756 118.065ZM512.988 131.221V120.304H515.642V121.615C516.019 121.132 516.52 120.738 517.145 120.432C517.778 120.119 518.499 119.963 519.31 119.963C520.148 119.963 520.88 120.144 521.506 120.507C522.138 120.862 522.629 121.367 522.977 122.021C523.325 122.674 523.499 123.449 523.499 124.345V131.221H520.845V124.899C520.845 123.989 520.617 123.289 520.162 122.799C519.715 122.301 519.093 122.053 518.297 122.053C517.75 122.053 517.277 122.166 516.879 122.394C516.481 122.614 516.175 122.912 515.962 123.289C515.749 123.659 515.642 124.071 515.642 124.526V131.221H512.988ZM530.106 131.562C529.189 131.562 528.372 131.391 527.654 131.05C526.944 130.702 526.364 130.204 525.917 129.558L527.089 127.831C527.509 128.385 527.974 128.815 528.486 129.121C529.005 129.426 529.541 129.579 530.096 129.579C530.437 129.579 530.739 129.519 531.002 129.398C531.265 129.27 531.474 129.089 531.631 128.854C531.787 128.612 531.865 128.328 531.865 128.001C531.865 127.66 531.776 127.394 531.599 127.202C531.421 127.01 531.154 126.836 530.799 126.679C530.444 126.523 529.996 126.338 529.456 126.125C529.001 125.933 528.567 125.72 528.155 125.485C527.743 125.251 527.402 124.956 527.132 124.6C526.869 124.238 526.737 123.78 526.737 123.225C526.737 122.593 526.912 122.031 527.26 121.541C527.615 121.05 528.098 120.667 528.71 120.389C529.328 120.112 530.032 119.974 530.82 119.974C531.389 119.974 531.961 120.077 532.537 120.283C533.112 120.482 533.688 120.773 534.264 121.157L533.304 122.831C532.473 122.141 531.652 121.797 530.842 121.797C530.366 121.797 529.982 121.91 529.69 122.138C529.406 122.365 529.264 122.657 529.264 123.012C529.264 123.303 529.388 123.552 529.637 123.758C529.886 123.964 530.195 124.146 530.565 124.302C530.934 124.458 531.304 124.608 531.673 124.75C532.256 124.963 532.768 125.19 533.208 125.432C533.649 125.674 533.994 125.986 534.243 126.37C534.491 126.754 534.616 127.266 534.616 127.905C534.616 128.673 534.431 129.33 534.061 129.877C533.699 130.425 533.18 130.844 532.505 131.135C531.83 131.42 531.03 131.562 530.106 131.562Z" fill="white"/>
<rect x="0.353516" y="0.893066" width="194.823" height="154.668" fill="black"/>
<path d="M71.208 36.6794C70.7255 36.6299 70.2913 36.6299 69.9053 36.4815C68.9886 36.1848 68.3613 35.344 68.3613 34.3548C68.3613 32.8216 68.3613 31.2883 68.3613 29.7551C68.3613 28.5186 69.3263 27.5789 70.4843 27.5294C70.6291 27.5294 70.822 27.5294 70.9668 27.5294C91.3763 27.5294 111.786 27.5294 132.195 27.48C133.884 27.48 134.945 28.667 134.849 30.1508C134.752 31.4367 134.849 32.7721 134.849 34.058C134.849 35.6902 134.029 36.531 132.436 36.5804C132.34 36.5804 132.195 36.5804 132.002 36.5804C132.292 37.5202 132.629 38.4599 132.919 39.3501C133.16 40.092 133.401 40.8339 133.643 41.5758C134.029 42.7628 133.594 43.3563 132.388 43.4058C132.292 43.4058 132.195 43.4058 132.002 43.4552C132.292 44.395 132.581 45.2852 132.871 46.126C133.112 46.8679 133.353 47.6592 133.594 48.4011C133.98 49.5881 133.546 50.1817 132.388 50.2311C132.292 50.2311 132.195 50.2311 132.002 50.2806C132.195 50.8246 132.34 51.3687 132.485 51.9127C132.822 52.9019 133.16 53.9405 133.45 54.9297C133.98 56.5619 133.691 57.007 131.954 57.1059C132.099 57.6005 132.292 58.0951 132.436 58.5402C132.822 59.6778 133.16 60.8153 133.546 61.9529C133.932 63.2388 133.594 63.7829 132.292 63.8323C132.195 63.8323 132.099 63.8818 131.954 63.8818C132.485 65.5139 133.015 67.0966 133.498 68.6793C133.932 70.0642 133.546 70.6577 132.147 70.6577C131.23 70.6577 130.313 70.6577 129.252 70.6577C129.252 70.9544 129.252 71.2512 129.252 71.4985C129.252 79.0162 129.252 86.4845 129.252 94.0023C129.252 95.3377 128.962 95.6345 127.708 95.6345C110.29 95.6345 92.8237 95.6345 75.4057 95.6345C74.1513 95.6345 73.8618 95.3377 73.8618 94.0518C73.8618 86.534 73.8618 79.0657 73.8618 71.5479C73.8618 71.2512 73.8618 71.0039 73.8618 70.6577C72.8003 70.6577 71.787 70.6577 70.7738 70.6577C69.6641 70.6577 69.2298 70.0147 69.5676 68.9266C70.0501 67.4428 70.5325 65.9096 71.015 64.4258C71.0633 64.228 71.1115 64.0796 71.1598 63.8323C70.9668 63.8323 70.822 63.7829 70.629 63.7829C69.6641 63.7334 69.2298 63.0904 69.5193 62.1507C70.0018 60.6175 70.4843 59.0843 70.9668 57.6005C71.015 57.4027 71.0633 57.2543 71.1115 57.007C70.9185 57.007 70.7738 56.9575 70.5808 56.9575C69.6158 56.9081 69.1816 56.2651 69.4711 55.3254C69.9536 53.7922 70.4361 52.2589 70.9185 50.7752C70.9668 50.5773 71.015 50.4289 71.0633 50.1817C70.8703 50.1817 70.7738 50.1322 70.629 50.1322C69.5676 50.0827 69.1333 49.4892 69.4228 48.4506C69.9053 46.9174 70.3878 45.3841 70.8703 43.9004C70.9185 43.752 70.9668 43.6036 71.015 43.4058C70.822 43.4058 70.6773 43.3563 70.5325 43.3563C69.5193 43.3069 69.0851 42.6639 69.4228 41.6747C69.9053 40.1415 70.3878 38.6083 70.8703 37.1245C71.1115 37.075 71.1598 36.8772 71.208 36.6794ZM82.8361 70.7566C82.8361 76.0487 82.8361 81.3408 82.8361 86.6329C95.381 86.6329 107.878 86.6329 120.422 86.6329C120.422 81.3408 120.422 76.0487 120.422 70.806C118.927 70.806 117.527 70.806 116.032 70.806C116.032 73.0812 116.032 75.2574 116.032 77.483C116.032 77.6808 116.273 77.8787 116.466 77.9776C117.817 78.7689 118.492 80.3022 118.106 81.7859C117.72 83.3686 116.418 84.4073 114.825 84.4073C113.281 84.4073 112.027 83.3686 111.593 81.7859C111.207 80.3022 111.882 78.7689 113.233 78.0271C113.619 77.8292 113.716 77.5819 113.716 77.1368C113.716 75.2079 113.716 73.279 113.716 71.3996C113.716 71.2017 113.667 71.0039 113.667 70.806C103.439 70.7566 93.1615 70.7566 82.8361 70.7566ZM70.629 34.3053C91.328 34.3053 111.979 34.3053 132.629 34.3053C132.629 32.7721 132.629 31.2883 132.629 29.854C111.93 29.854 91.328 29.854 70.629 29.854C70.629 31.3378 70.629 32.8216 70.629 34.3053ZM127.081 88.9575C110.049 88.9575 93.1132 88.9575 76.1777 88.9575C76.1777 90.4907 76.1777 91.9745 76.1777 93.4088C93.1615 93.4088 110.097 93.4088 127.081 93.4088C127.081 91.925 127.081 90.4413 127.081 88.9575ZM79.4587 41.1307C94.2712 41.1307 108.987 41.1307 123.703 41.1307C123.703 39.5974 123.703 38.1137 123.703 36.6794C108.939 36.6794 94.223 36.6794 79.4587 36.6794C79.4587 38.1631 79.4587 39.6469 79.4587 41.1307ZM123.703 48.0055C123.703 46.5217 123.703 45.0379 123.703 43.5047C108.939 43.5047 94.223 43.5047 79.4587 43.5047C79.4587 45.0379 79.4587 46.5217 79.4587 48.0055C94.2712 48.0055 108.939 48.0055 123.703 48.0055ZM79.4587 54.7813C94.2712 54.7813 108.987 54.7813 123.703 54.7813C123.703 53.2481 123.703 51.7643 123.703 50.33C108.939 50.33 94.223 50.33 79.4587 50.33C79.4587 51.8138 79.4587 53.2481 79.4587 54.7813ZM123.752 57.1554C108.939 57.1554 94.223 57.1554 79.5069 57.1554C79.5069 58.6886 79.5069 60.1724 79.5069 61.6067C94.2712 61.6067 108.987 61.6067 123.752 61.6067C123.752 60.1229 123.752 58.6391 123.752 57.1554ZM79.4587 68.432C94.2712 68.432 108.987 68.432 123.703 68.432C123.703 66.8988 123.703 65.415 123.703 63.9807C108.939 63.9807 94.223 63.9807 79.4587 63.9807C79.4587 65.415 79.4587 66.8988 79.4587 68.432ZM76.1777 70.7566C76.1777 76.0487 76.1777 81.3408 76.1777 86.5835C77.6734 86.5835 79.1209 86.5835 80.5202 86.5835C80.5202 81.2914 80.5202 76.0487 80.5202 70.7566C79.0727 70.7566 77.6252 70.7566 76.1777 70.7566ZM122.738 70.7566C122.738 76.0982 122.738 81.3408 122.738 86.5835C124.234 86.5835 125.682 86.5835 127.081 86.5835C127.081 81.2914 127.081 76.0487 127.081 70.7566C125.633 70.7566 124.186 70.7566 122.738 70.7566ZM77.191 41.1801C77.191 39.6469 77.191 38.1631 77.191 36.6794C76.0812 36.6794 75.0197 36.6794 73.9583 36.6794C73.8135 36.6794 73.5723 36.8277 73.524 36.9266C73.0415 38.3115 72.6073 39.7458 72.1248 41.1801C73.8618 41.1801 75.5022 41.1801 77.191 41.1801ZM131.085 41.1801C130.603 39.6964 130.169 38.3115 129.686 36.9266C129.638 36.7783 129.445 36.6794 129.3 36.6299C128.239 36.6299 127.129 36.6299 126.019 36.6299C126.019 38.1631 126.019 39.6469 126.019 41.1307C127.708 41.1801 129.348 41.1801 131.085 41.1801ZM77.191 47.956C77.191 46.4228 77.191 44.939 77.191 43.4552C76.0812 43.4552 75.0197 43.4552 73.9583 43.4552C73.8135 43.4552 73.5723 43.5541 73.524 43.7025C73.0415 45.0874 72.6073 46.5217 72.1248 47.956C73.8618 47.956 75.5022 47.956 77.191 47.956ZM126.068 43.4552C126.068 45.0379 126.068 46.5217 126.068 47.956C127.756 47.956 129.397 47.956 131.085 47.956C130.603 46.5217 130.169 45.0874 129.686 43.7025C129.638 43.6036 129.397 43.4552 129.252 43.4552C128.191 43.4552 127.129 43.4552 126.068 43.4552ZM77.191 50.2806C76.0812 50.2806 75.0197 50.2806 74.0065 50.2806C73.8618 50.2806 73.5723 50.4289 73.524 50.5279C73.0415 51.9127 72.6073 53.347 72.1248 54.7813C73.8618 54.7813 75.5022 54.7813 77.191 54.7813C77.191 53.2481 77.191 51.8138 77.191 50.2806ZM126.019 54.7813C127.708 54.7813 129.348 54.7813 131.085 54.7813C130.651 53.347 130.169 51.9622 129.734 50.5773C129.686 50.4784 129.541 50.2806 129.397 50.2806C128.287 50.2806 127.177 50.2806 126.019 50.2806C126.019 51.8138 126.019 53.2481 126.019 54.7813ZM77.191 57.1059C76.4672 57.1059 75.7917 57.1059 75.1645 57.1059C73.6205 57.1059 73.6205 57.1059 73.0898 58.5897C72.752 59.5789 72.4625 60.568 72.1248 61.6067C73.8618 61.6067 75.5022 61.6067 77.191 61.6067C77.191 60.0735 77.191 58.6391 77.191 57.1059ZM126.019 57.1059C126.019 58.6391 126.019 60.1229 126.019 61.6067C127.708 61.6067 129.348 61.6067 131.037 61.6067C130.555 60.1724 130.12 58.7381 129.638 57.3532C129.59 57.2048 129.3 57.1059 129.155 57.1059C128.191 57.0565 127.129 57.1059 126.019 57.1059ZM72.173 68.3826C73.91 68.3826 75.5987 68.3826 77.2392 68.3826C77.2392 66.8493 77.2392 65.415 77.2392 63.8818C76.1295 63.8818 75.068 63.8818 73.9583 63.8818C73.8135 63.8818 73.6205 64.0302 73.5723 64.1785C73.0415 65.5634 72.6073 66.9482 72.173 68.3826ZM131.085 68.432C130.603 66.9482 130.169 65.5634 129.686 64.1785C129.638 64.0302 129.445 63.9313 129.3 63.8818C128.239 63.8818 127.129 63.8818 126.019 63.8818C126.019 65.415 126.019 66.8988 126.019 68.3826C127.708 68.432 129.348 68.432 131.085 68.432ZM114.874 82.0827C115.453 82.1322 115.983 81.5881 116.032 80.9946C116.08 80.4011 115.549 79.857 114.97 79.8076C114.391 79.7581 113.86 80.3022 113.812 80.8957C113.764 81.4892 114.295 82.0332 114.874 82.0827Z" fill="white"/>
<path d="M69.8405 131.22V113.63H74.4139C76.1125 113.63 77.438 114.007 78.3903 114.76C79.3498 115.507 79.8295 116.608 79.8295 118.065C79.8295 119.927 79.0406 121.228 77.4629 121.967C78.7279 122.159 79.698 122.635 80.3732 123.396C81.0484 124.149 81.386 125.14 81.386 126.37C81.386 127.379 81.1586 128.246 80.7037 128.971C80.2488 129.696 79.5985 130.254 78.7528 130.645C77.9142 131.029 76.9156 131.22 75.7572 131.22H69.8405ZM72.6336 121.04H73.7956C74.8759 121.04 75.7038 120.812 76.2795 120.357C76.8552 119.902 77.143 119.252 77.143 118.406C77.143 117.553 76.8588 116.907 76.2902 116.466C75.7216 116.025 74.8901 115.805 73.7956 115.805H72.6336V121.04ZM72.6336 129.024H74.851C76.0379 129.024 76.9369 128.79 77.5481 128.321C78.1665 127.852 78.4756 127.173 78.4756 126.285C78.4756 125.382 78.1594 124.685 77.5268 124.195C76.9014 123.705 76.0095 123.459 74.851 123.459H72.6336V129.024ZM83.992 131.22V112.884H86.6465V131.22H83.992ZM90.5352 131.22V120.304H93.1897V131.22H90.5352ZM91.8678 118.065C91.5764 118.065 91.3063 117.994 91.0576 117.852C90.8159 117.703 90.6205 117.507 90.4712 117.266C90.3291 117.017 90.258 116.743 90.258 116.445C90.258 116.153 90.3291 115.887 90.4712 115.645C90.6205 115.404 90.8159 115.212 91.0576 115.07C91.3063 114.92 91.5764 114.846 91.8678 114.846C92.1663 114.846 92.4328 114.92 92.6673 115.07C92.909 115.212 93.1009 115.404 93.243 115.645C93.3922 115.887 93.4669 116.153 93.4669 116.445C93.4669 116.743 93.3922 117.017 93.243 117.266C93.1009 117.507 92.909 117.703 92.6673 117.852C92.4328 117.994 92.1663 118.065 91.8678 118.065ZM97.0997 131.22V120.304H99.7542V121.615C100.131 121.132 100.632 120.737 101.257 120.432C101.89 120.119 102.611 119.963 103.421 119.963C104.26 119.963 104.992 120.144 105.618 120.506C106.25 120.862 106.74 121.366 107.089 122.02C107.437 122.674 107.611 123.449 107.611 124.344V131.22H104.957V124.899C104.957 123.989 104.729 123.289 104.274 122.799C103.827 122.301 103.205 122.052 102.409 122.052C101.861 122.052 101.389 122.166 100.991 122.393C100.593 122.614 100.287 122.912 100.074 123.289C99.8608 123.658 99.7542 124.071 99.7542 124.526V131.22H97.0997ZM115.889 131.562C114.894 131.562 113.985 131.313 113.16 130.815C112.343 130.318 111.693 129.632 111.209 128.758C110.733 127.884 110.495 126.885 110.495 125.762C110.495 124.646 110.73 123.655 111.199 122.788C111.675 121.914 112.321 121.224 113.139 120.72C113.963 120.215 114.901 119.963 115.953 119.963C116.792 119.963 117.563 120.14 118.267 120.496C118.97 120.851 119.539 121.345 119.972 121.978V112.873H122.627V131.22H119.972V129.472C119.496 130.126 118.903 130.638 118.192 131.007C117.488 131.377 116.721 131.562 115.889 131.562ZM116.657 129.291C117.318 129.291 117.901 129.142 118.405 128.843C118.917 128.538 119.318 128.122 119.61 127.596C119.901 127.063 120.047 126.455 120.047 125.773C120.047 125.091 119.901 124.483 119.61 123.95C119.318 123.41 118.917 122.99 118.405 122.692C117.901 122.386 117.318 122.234 116.657 122.234C116.01 122.234 115.431 122.386 114.919 122.692C114.407 122.99 114.006 123.41 113.714 123.95C113.423 124.483 113.277 125.094 113.277 125.784C113.277 126.459 113.42 127.063 113.704 127.596C113.995 128.122 114.397 128.538 114.908 128.843C115.42 129.142 116.003 129.291 116.657 129.291ZM129.538 131.562C128.621 131.562 127.804 131.391 127.086 131.05C126.375 130.702 125.796 130.204 125.348 129.557L126.521 127.83C126.94 128.385 127.406 128.815 127.917 129.12C128.436 129.426 128.973 129.579 129.527 129.579C129.868 129.579 130.17 129.518 130.433 129.397C130.696 129.27 130.906 129.088 131.062 128.854C131.219 128.612 131.297 128.328 131.297 128.001C131.297 127.66 131.208 127.393 131.03 127.201C130.853 127.009 130.586 126.835 130.231 126.679C129.875 126.523 129.428 126.338 128.887 126.125C128.433 125.933 127.999 125.72 127.587 125.485C127.175 125.25 126.834 124.956 126.563 124.6C126.3 124.238 126.169 123.779 126.169 123.225C126.169 122.592 126.343 122.031 126.691 121.541C127.047 121.05 127.53 120.666 128.141 120.389C128.76 120.112 129.463 119.973 130.252 119.973C130.821 119.973 131.393 120.076 131.968 120.283C132.544 120.482 133.12 120.773 133.695 121.157L132.736 122.831C131.904 122.141 131.084 121.796 130.273 121.796C129.797 121.796 129.413 121.91 129.122 122.138C128.838 122.365 128.696 122.656 128.696 123.012C128.696 123.303 128.82 123.552 129.069 123.758C129.317 123.964 129.627 124.145 129.996 124.302C130.366 124.458 130.735 124.607 131.105 124.749C131.688 124.963 132.199 125.19 132.64 125.432C133.081 125.673 133.425 125.986 133.674 126.37C133.923 126.754 134.047 127.265 134.047 127.905C134.047 128.673 133.862 129.33 133.493 129.877C133.13 130.424 132.612 130.844 131.936 131.135C131.261 131.419 130.462 131.562 129.538 131.562Z" fill="white"/>
</svg>
