<svg width="62" height="63" viewBox="0 0 62 63" fill="none" xmlns="http://www.w3.org/2000/svg">
<circle cx="31" cy="31.1946" r="30.4238" fill="black" stroke="#303030" stroke-width="1.15242"/>
<path d="M34.9278 37.0689C32.2458 39.1198 29.3008 39.8561 25.9878 39.1724C23.4635 38.6465 21.36 37.3318 19.7824 35.2809C16.4693 31.0213 16.8374 25.0788 20.6238 21.2398C24.3575 17.5587 29.9845 17.0328 34.1915 19.9777C36.7158 21.7131 38.2934 24.1322 38.7141 27.2349C39.1874 30.285 38.346 33.0196 36.4528 35.5438C37.1365 36.2275 37.8727 36.9111 38.5563 37.5948C40.3969 39.4354 42.2375 41.276 44.0781 43.1165C44.3936 43.4321 44.5514 43.8002 44.4462 44.2735C44.3411 44.6942 44.0255 44.9571 43.6048 45.0623C43.1841 45.1675 42.816 45.0097 42.5005 44.6942C41.5013 43.695 40.5547 42.7484 39.5555 41.7492C38.0831 40.2768 36.6106 38.8043 35.1381 37.3844C35.0855 37.2267 34.9803 37.1741 34.9278 37.0689ZM36.6106 28.76C36.6106 24.1322 32.8242 20.3458 28.1965 20.3458C23.5687 20.3458 19.7824 24.1322 19.7824 28.76C19.7824 33.3877 23.5687 37.2267 28.2491 37.1741C32.8768 37.1741 36.6106 33.3877 36.6106 28.76Z" fill="white"/>
</svg>
