<svg width="166" height="31" viewBox="0 0 166 31" fill="none" xmlns="http://www.w3.org/2000/svg">
<path d="M22.0078 9.22705L30.3867 10.4575C31.0898 10.5747 31.6758 11.0435 31.9102 11.7466C32.1445 12.3911 31.9688 13.1528 31.4414 13.6216L25.3477 19.6567L26.8125 28.2114C26.9297 28.9146 26.6367 29.6177 26.0508 30.0278C25.4648 30.4966 24.7031 30.4966 24.0586 30.2036L16.5586 26.1606L9 30.2036C8.41406 30.4966 7.59375 30.4966 7.06641 30.0278C6.48047 29.6177 6.1875 28.9146 6.30469 28.2114L7.71094 19.6567L1.61719 13.6216C1.08984 13.1528 0.914062 12.3911 1.14844 11.7466C1.38281 11.0435 1.96875 10.5747 2.67188 10.4575L11.1094 9.22705L14.8594 1.43408C15.1523 0.789551 15.7969 0.379395 16.5586 0.379395C17.2617 0.379395 17.9062 0.789551 18.1992 1.43408L22.0078 9.22705ZM55.4578 9.22705L63.8367 10.4575C64.5398 10.5747 65.1258 11.0435 65.3602 11.7466C65.5945 12.3911 65.4188 13.1528 64.8914 13.6216L58.7977 19.6567L60.2625 28.2114C60.3797 28.9146 60.0867 29.6177 59.5008 30.0278C58.9148 30.4966 58.1531 30.4966 57.5086 30.2036L50.0086 26.1606L42.45 30.2036C41.8641 30.4966 41.0438 30.4966 40.5164 30.0278C39.9305 29.6177 39.6375 28.9146 39.7547 28.2114L41.1609 19.6567L35.0672 13.6216C34.5398 13.1528 34.3641 12.3911 34.5984 11.7466C34.8328 11.0435 35.4188 10.5747 36.1219 10.4575L44.5594 9.22705L48.3094 1.43408C48.6023 0.789551 49.2469 0.379395 50.0086 0.379395C50.7117 0.379395 51.3563 0.789551 51.6492 1.43408L55.4578 9.22705ZM88.9078 9.22705L97.2867 10.4575C97.9898 10.5747 98.5758 11.0435 98.8102 11.7466C99.0445 12.3911 98.8688 13.1528 98.3414 13.6216L92.2477 19.6567L93.7125 28.2114C93.8297 28.9146 93.5367 29.6177 92.9508 30.0278C92.3648 30.4966 91.6031 30.4966 90.9586 30.2036L83.4586 26.1606L75.9 30.2036C75.3141 30.4966 74.4938 30.4966 73.9664 30.0278C73.3805 29.6177 73.0875 28.9146 73.2047 28.2114L74.6109 19.6567L68.5172 13.6216C67.9898 13.1528 67.8141 12.3911 68.0484 11.7466C68.2828 11.0435 68.8688 10.5747 69.5719 10.4575L78.0094 9.22705L81.7594 1.43408C82.0523 0.789551 82.6969 0.379395 83.4586 0.379395C84.1617 0.379395 84.8063 0.789551 85.0992 1.43408L88.9078 9.22705ZM122.358 9.22705L130.737 10.4575C131.44 10.5747 132.026 11.0435 132.26 11.7466C132.495 12.3911 132.319 13.1528 131.791 13.6216L125.698 19.6567L127.162 28.2114C127.28 28.9146 126.987 29.6177 126.401 30.0278C125.815 30.4966 125.053 30.4966 124.409 30.2036L116.909 26.1606L109.35 30.2036C108.764 30.4966 107.944 30.4966 107.416 30.0278C106.83 29.6177 106.537 28.9146 106.655 28.2114L108.061 19.6567L101.967 13.6216C101.44 13.1528 101.264 12.3911 101.498 11.7466C101.733 11.0435 102.319 10.5747 103.022 10.4575L111.459 9.22705L115.209 1.43408C115.502 0.789551 116.147 0.379395 116.909 0.379395C117.612 0.379395 118.256 0.789551 118.549 1.43408L122.358 9.22705ZM155.808 9.22705L164.187 10.4575C164.89 10.5747 165.476 11.0435 165.71 11.7466C165.945 12.3911 165.769 13.1528 165.241 13.6216L159.148 19.6567L160.613 28.2114C160.73 28.9146 160.437 29.6177 159.851 30.0278C159.265 30.4966 158.503 30.4966 157.859 30.2036L150.359 26.1606L142.8 30.2036C142.214 30.4966 141.394 30.4966 140.866 30.0278C140.28 29.6177 139.988 28.9146 140.105 28.2114L141.511 19.6567L135.417 13.6216C134.89 13.1528 134.714 12.3911 134.948 11.7466C135.183 11.0435 135.769 10.5747 136.472 10.4575L144.909 9.22705L148.659 1.43408C148.952 0.789551 149.597 0.379395 150.359 0.379395C151.062 0.379395 151.706 0.789551 151.999 1.43408L155.808 9.22705Z" fill="#EFD700"/>
</svg>
