<svg width="38" height="37" viewBox="0 0 38 37" fill="none" xmlns="http://www.w3.org/2000/svg">
<path d="M36.5413 18.5544C36.5413 28.4201 28.5436 36.4178 18.678 36.4178C8.81229 36.4178 0.814591 28.4201 0.814591 18.5544C0.814591 8.68876 8.81229 0.691056 18.678 0.691056C28.5436 0.691056 36.5413 8.68876 36.5413 18.5544Z" fill="#00BF62" stroke="#00BF62" stroke-width="0.93387"/>
<path d="M26.3779 11.5107C28.2904 13.4232 29.4743 15.9277 29.4743 18.6598C29.4743 24.2152 24.8296 28.7688 19.2287 28.7688C17.5439 28.7688 15.9046 28.3134 14.4019 27.5393L9.07422 28.9054L10.4858 23.6688C9.62065 22.1661 9.11975 20.4357 9.11975 18.6143C9.11975 13.0589 13.6733 8.50531 19.2287 8.50531C21.9609 8.50531 24.5109 9.59817 26.3779 11.5107ZM19.2287 27.0384C23.8734 27.0384 27.7439 23.2589 27.7439 18.6598C27.7439 16.383 26.7877 14.2884 25.1939 12.6946C23.6002 11.1009 21.5055 10.2357 19.2743 10.2357C14.6296 10.2357 10.8501 14.0152 10.8501 18.6143C10.8501 20.208 11.3055 21.7563 12.1251 23.1223L12.3528 23.4411L11.4876 26.5375L14.6751 25.6723L14.9483 25.8545C16.2689 26.6286 17.726 27.0384 19.2287 27.0384ZM23.8734 20.7545C24.1011 20.8911 24.2832 20.9366 24.3287 21.0732C24.4198 21.1643 24.4198 21.6652 24.1921 22.2572C23.9645 22.8491 22.9627 23.3955 22.5073 23.4411C21.6877 23.5777 21.0502 23.5322 19.4564 22.8036C16.9064 21.7107 15.2671 19.1607 15.1305 19.0241C14.9939 18.842 14.1287 17.658 14.1287 16.383C14.1287 15.1536 14.7662 14.5616 14.9939 14.2884C15.2216 14.0152 15.4948 13.9696 15.6769 13.9696C15.8135 13.9696 15.9957 13.9696 16.1323 13.9696C16.3144 13.9696 16.4966 13.9241 16.7242 14.425C16.9064 14.9259 17.4528 16.1553 17.4984 16.2919C17.5439 16.4286 17.5894 16.5652 17.4984 16.7473C17.043 17.7036 16.4966 17.658 16.7698 18.1134C17.7716 19.7982 18.7278 20.3902 20.2305 21.1188C20.4582 21.2554 20.5948 21.2098 20.7769 21.0732C20.9136 20.8911 21.4144 20.2991 21.5511 20.0714C21.7332 19.7982 21.9153 19.8437 22.143 19.9348C22.3707 20.0259 23.6002 20.6179 23.8734 20.7545Z" fill="white"/>
</svg>
