<svg width="35" height="35" viewBox="0 0 35 35" fill="none" xmlns="http://www.w3.org/2000/svg">
<circle cx="17.3646" cy="17.8185" r="17.1552" fill="black" fill-opacity="0.7"/>
<path d="M5.92798 19.056C5.98017 18.881 6.03236 18.6957 6.09499 18.5206C6.38727 17.697 6.97181 17.0999 7.67118 16.5955C7.85907 16.4617 8.0574 16.3278 8.25573 16.2146C8.60019 15.9984 8.99685 16.0808 9.19518 16.3896C9.38307 16.6984 9.28912 17.0691 8.95509 17.2853C8.50625 17.5632 8.07827 17.8618 7.73381 18.2633C7.05532 19.0663 7.05532 19.8693 7.75469 20.6517C8.34967 21.3208 9.12211 21.7429 9.9363 22.093C11.2411 22.6489 12.6085 22.968 14.0072 23.143C14.1847 23.1636 14.3726 23.1842 14.55 23.2048C14.5605 23.1842 14.5814 23.1636 14.5918 23.1533C14.4457 23.0298 14.2891 22.9063 14.1429 22.7621C13.8611 22.4842 13.8507 22.0827 14.1116 21.8253C14.3726 21.5782 14.7692 21.5885 15.0511 21.8665C15.6043 22.4018 16.1575 22.9474 16.7003 23.4931C16.9926 23.7916 17.003 24.1519 16.7003 24.4402C16.1471 24.9858 15.5939 25.5417 15.0406 26.0771C14.7588 26.355 14.3621 26.355 14.1012 26.0977C13.8507 25.8403 13.8611 25.4491 14.1325 25.1711C14.3413 24.9652 14.5605 24.7696 14.7797 24.5637C14.7692 24.5431 14.7588 24.5328 14.7484 24.5123C14.4143 24.4711 14.0803 24.4402 13.7463 24.3887C11.8778 24.121 10.0616 23.6784 8.40186 22.7415C7.54592 22.2577 6.77348 21.6709 6.30376 20.7855C6.13675 20.4767 6.05324 20.1266 5.92798 19.7869C5.92798 19.5604 5.92798 19.3133 5.92798 19.056Z" fill="white"/>
<path d="M27.848 19.4577C27.8167 20.271 27.4826 20.9402 26.9503 21.527C26.2822 22.2682 25.4367 22.7727 24.5286 23.1845C23.182 23.7919 21.7624 24.1419 20.3011 24.3684C20.1445 24.389 19.9879 24.4096 19.8418 24.4302C19.466 24.4919 19.1424 24.2551 19.0798 23.8948C19.0171 23.586 19.2572 23.2565 19.6017 23.1845C20.3428 23.0404 21.0839 22.9374 21.8146 22.7624C22.9837 22.4844 24.1215 22.0932 25.1236 21.4035C25.4993 21.1461 25.8543 20.8372 26.1361 20.4872C26.6998 19.7975 26.6893 19.0356 26.1048 18.3562C25.8334 18.0473 25.4993 17.7797 25.1758 17.5223C24.8 17.2135 24.7895 16.7193 25.1653 16.4619C25.3741 16.3178 25.6246 16.2869 25.8334 16.431C26.7311 17.0179 27.4722 17.7385 27.7436 18.8195C27.7958 19.0254 27.8167 19.2415 27.848 19.4577Z" fill="white"/>
<path d="M16.1364 16.6573C16.7 16.2558 17.2846 16.2867 17.8587 16.4514C18.4641 16.6264 18.7668 17.0794 18.819 17.6662C18.8503 18.0163 18.8399 18.3869 18.7668 18.7266C18.5998 19.4678 18.0153 19.9311 17.1906 19.9723C16.8357 19.9929 16.4599 19.9723 16.1155 19.8899C15.3744 19.7252 14.8942 19.1384 14.8733 18.3869C14.8524 17.4912 14.8524 16.5853 14.8733 15.6896C14.8942 14.866 15.4787 14.2689 16.3347 14.1248C16.8149 14.0424 17.295 14.0527 17.7647 14.2072C18.4328 14.4336 18.8608 14.9999 18.8295 15.6484C18.819 15.9058 18.7251 16.0396 18.4745 16.0705C18.2867 16.0911 18.0883 16.0808 17.9109 16.0499C17.723 16.019 17.6082 15.8852 17.5873 15.6793C17.556 15.3911 17.4412 15.2778 17.1593 15.2058C16.5226 15.0513 16.1468 15.3396 16.1259 15.9779C16.1259 16.1941 16.1364 16.4103 16.1364 16.6573ZM16.1259 18.1089C16.1364 18.2222 16.1364 18.3045 16.1468 18.3869C16.1886 18.7369 16.4078 18.9531 16.7627 18.9737C17.2011 19.0046 17.4725 18.8501 17.5351 18.4795C17.5769 18.2324 17.5664 17.9545 17.5142 17.7074C17.4516 17.4089 17.1906 17.2956 16.7835 17.3162C16.4495 17.3265 16.2407 17.4809 16.1677 17.7692C16.1364 17.8927 16.1364 18.0163 16.1259 18.1089Z" fill="white"/>
<path d="M23.8085 17.0588C23.8085 17.4911 23.8293 17.9132 23.8085 18.3456C23.7667 19.303 23.1195 19.931 22.1383 19.9825C21.8147 19.9928 21.4807 19.9928 21.1676 19.9207C20.3429 19.7457 19.8523 19.1383 19.8419 18.2838C19.8314 17.45 19.821 16.6264 19.8419 15.7925C19.8628 14.7836 20.5308 14.135 21.606 14.0835C21.9191 14.0732 22.2531 14.0938 22.5559 14.1659C23.297 14.3306 23.7771 14.9071 23.8085 15.6587C23.8189 16.1219 23.798 16.5955 23.8085 17.0588ZM21.1049 17.0279C21.1049 17.4191 21.1049 17.8 21.1049 18.1912C21.1154 18.6339 21.345 18.8912 21.7521 18.9015C22.2427 18.9221 22.5141 18.7162 22.5245 18.2427C22.5454 17.45 22.5454 16.6573 22.5245 15.8646C22.5141 15.4013 22.2323 15.1748 21.773 15.1851C21.345 15.2057 21.1049 15.4528 21.0945 15.916C21.1049 16.2763 21.1049 16.647 21.1049 17.0279Z" fill="white"/>
<path d="M13.1094 16.8528C13.7984 17.1307 13.9549 17.6558 13.9132 18.294C13.8714 18.9426 13.6209 19.4882 12.9842 19.7662C12.2848 20.0648 11.575 20.0853 10.8652 19.8074C10.3224 19.5912 9.99882 19.1897 9.92575 18.6029C9.87356 18.222 10.0093 18.047 10.3955 18.0161C10.5416 18.0058 10.6982 18.0264 10.8443 18.0367C11.0635 18.0573 11.1679 18.1808 11.1888 18.397C11.2097 18.6955 11.2932 18.7985 11.5854 18.85C11.7838 18.8808 11.9925 18.8808 12.2013 18.8603C12.4414 18.8294 12.5875 18.6852 12.6188 18.4485C12.6397 18.2632 12.6606 18.0676 12.6397 17.8822C12.6084 17.6043 12.4309 17.4499 12.1491 17.4087C12.0969 17.3984 12.0447 17.3984 12.003 17.3984C11.6063 17.3675 11.4393 17.1513 11.5228 16.7601C11.5646 16.5439 11.6794 16.4307 11.909 16.4101C12.4309 16.3586 12.6919 15.8953 12.4414 15.4218C12.3892 15.3188 12.2535 15.2159 12.1387 15.185C11.9717 15.1438 11.7838 15.1644 11.6063 15.185C11.4289 15.2056 11.3349 15.3291 11.314 15.5247C11.2827 15.885 11.1575 15.9983 10.7817 16.0086C10.7295 16.0086 10.6669 16.0086 10.6147 16.0086C10.1241 15.9983 9.97794 15.8336 10.0614 15.3497C10.1658 14.7114 10.5625 14.3408 11.1575 14.1658C11.6794 14.0217 12.2013 14.032 12.7232 14.1658C13.4748 14.3717 13.8506 15.01 13.7044 15.8233C13.6105 16.338 13.4748 16.5748 13.1094 16.8528Z" fill="white"/>
<path d="M27.2848 12.1789C27.2848 13.2187 26.4288 14.0732 25.3746 14.0835C24.2994 14.0835 23.433 13.2496 23.4226 12.1995C23.4226 11.1494 24.289 10.2847 25.3537 10.2847C26.4184 10.2847 27.2848 11.1186 27.2848 12.1789ZM25.9904 12.1789C25.9904 11.8289 25.6982 11.5406 25.3537 11.5509C25.0197 11.5612 24.7378 11.8392 24.7274 12.1789C24.7274 12.5187 25.0092 12.8172 25.3537 12.8172C25.7086 12.8172 25.9904 12.529 25.9904 12.1789Z" fill="white"/>
</svg>
