<svg width="35" height="35" viewBox="0 0 35 35" fill="none" xmlns="http://www.w3.org/2000/svg">
<circle cx="17.5341" cy="17.8185" r="17.1552" fill="black" fill-opacity="0.7"/>
<path d="M22.6359 15.0172V18.197C22.6359 19.5109 21.9527 20.6672 20.9541 21.3242V24.688H14.2265V21.3242L12.8075 20.3256C12.1242 19.8 11.7037 18.9854 11.7037 18.1181V16.2786C11.7037 15.9107 11.8614 15.5428 12.1505 15.3063L12.9651 14.6755V15.8581C12.9651 16.0946 13.1491 16.2786 13.3856 16.2786C13.5958 16.2786 13.8061 16.0946 13.8061 15.8581V12.4944C13.8061 11.8111 14.3579 11.233 15.0675 11.233C15.7245 11.233 16.2501 11.7585 16.3026 12.4155C16.5391 12.2053 16.8282 12.0739 17.1698 12.0739C17.8531 12.0739 18.4312 12.652 18.4312 13.3353V13.493C18.6415 13.1513 19.0357 12.9148 19.4824 12.9148C20.0868 12.9148 20.5862 13.3616 20.7175 13.966C20.9015 13.8346 21.1117 13.7558 21.3745 13.7558C22.0578 13.7558 22.6359 14.3339 22.6359 15.0172Z" fill="white"/>
</svg>
