<svg width="35" height="35" viewBox="0 0 35 35" fill="none" xmlns="http://www.w3.org/2000/svg">
<circle cx="17.7037" cy="17.8185" r="17.1552" fill="black" fill-opacity="0.7"/>
<path d="M16.6419 15.3325C16.6682 15.4902 16.6944 15.6742 16.6944 15.8581C16.6944 16.0684 16.6682 16.2523 16.6419 16.41L17.22 16.9356C17.404 17.0932 17.4828 17.356 17.3777 17.5926C17.3251 17.724 17.2463 17.8816 17.1937 18.013L17.1149 18.1444C17.0098 18.2758 16.9309 18.4072 16.8521 18.5386C16.6944 18.7226 16.4316 18.8014 16.1951 18.7226L15.4593 18.4598C15.1702 18.6963 14.8549 18.8802 14.5132 19.0116L14.3293 19.7737C14.303 20.0365 14.0928 20.2205 13.8563 20.2468C13.6723 20.2731 13.4883 20.2731 13.3307 20.2731C13.1467 20.2731 12.9628 20.2731 12.7788 20.2468C12.5423 20.2205 12.3321 20.0365 12.3058 19.7737L12.1218 19.0116C11.7802 18.8802 11.4648 18.6963 11.1758 18.4598L10.4399 18.7226C10.2034 18.8014 9.94064 18.7226 9.78296 18.5386C9.70412 18.4072 9.599 18.2758 9.52017 18.1444L9.44133 18.013C9.38877 17.8816 9.30993 17.724 9.25737 17.5926C9.15226 17.356 9.23109 17.0932 9.41505 16.9356L9.9932 16.41C9.96692 16.2523 9.94064 16.0684 9.94064 15.8581C9.94064 15.6742 9.96692 15.4902 9.9932 15.3325L9.41505 14.8069C9.23109 14.623 9.15226 14.3602 9.25737 14.15C9.30993 13.9923 9.38877 13.8609 9.44133 13.7295L9.52017 13.5981C9.599 13.4667 9.70412 13.3353 9.78296 13.2039C9.94064 13.02 10.2034 12.9411 10.4399 13.02L11.1758 13.2827C11.4648 13.0462 11.7802 12.8623 12.1218 12.7309L12.3058 11.9688C12.3321 11.706 12.5423 11.522 12.7788 11.4957C12.9628 11.4695 13.1467 11.4432 13.3307 11.4432C13.4883 11.4432 13.6723 11.4695 13.8563 11.4957C14.0928 11.522 14.303 11.706 14.3293 11.9688L14.5132 12.7309C14.8549 12.8623 15.1702 13.0462 15.4593 13.2827L16.1951 13.02C16.4316 12.9411 16.6944 13.02 16.8521 13.2039C16.9309 13.3353 17.0098 13.4667 17.1149 13.5981L17.1937 13.7295C17.2463 13.8609 17.3251 13.9923 17.3777 14.15C17.4828 14.3602 17.404 14.623 17.22 14.8069L16.6419 15.3325ZM13.3307 14.5967C12.6211 14.5967 12.0693 15.1749 12.0693 15.8581C12.0693 16.5677 12.6211 17.1195 13.3307 17.1195C14.0139 17.1195 14.5921 16.5677 14.5921 15.8581C14.5921 15.1749 14.0139 14.5967 13.3307 14.5967ZM21.8452 23.8208C21.6875 23.847 21.5036 23.847 21.3196 23.847C21.1094 23.847 20.9254 23.847 20.7677 23.8208L20.2421 24.3989C20.0582 24.5829 19.8217 24.6617 19.5852 24.5566C19.4538 24.504 19.2961 24.4252 19.1647 24.3726L19.0333 24.2675C18.9019 24.1887 18.7705 24.1098 18.6391 24.031C18.4551 23.8733 18.3763 23.6105 18.4551 23.374L18.7179 22.6382C18.4814 22.3491 18.2975 22.0338 18.1661 21.6659L17.404 21.5082C17.1412 21.4556 16.9572 21.2717 16.9309 21.0352C16.9047 20.8512 16.9047 20.6672 16.9047 20.4833C16.9047 20.3256 16.9047 20.1417 16.9309 19.9577C16.9572 19.7212 17.1412 19.5109 17.404 19.4584L18.1661 19.3007C18.2975 18.9591 18.4814 18.6437 18.7179 18.3547L18.4551 17.6188C18.3763 17.3823 18.4551 17.1195 18.6391 16.9619C18.7705 16.883 18.9019 16.7779 19.0333 16.6991L19.1647 16.6202C19.2961 16.5677 19.4275 16.4888 19.5852 16.4363C19.8217 16.3311 20.0582 16.41 20.2421 16.5939L20.7677 17.1721C20.9254 17.1458 21.1094 17.1195 21.3196 17.1195C21.5036 17.1195 21.6875 17.1458 21.8452 17.1721L22.3708 16.5939C22.5547 16.41 22.7912 16.3311 23.0278 16.4363C23.1854 16.4888 23.3168 16.5677 23.4482 16.6202L23.5796 16.6991C23.711 16.7779 23.8424 16.883 23.9738 16.9619C24.1578 17.1195 24.2366 17.3823 24.1578 17.6188L23.895 18.3547C24.1315 18.6437 24.3154 18.9591 24.4468 19.3007L25.2089 19.4584C25.4717 19.5109 25.6557 19.7212 25.682 19.9577C25.7082 20.1417 25.7345 20.3256 25.7345 20.4833C25.7345 20.6672 25.7082 20.8512 25.682 21.0352C25.6557 21.2717 25.4717 21.4556 25.2089 21.5082L24.4468 21.6659C24.3154 22.0338 24.1315 22.3491 23.895 22.6382L24.1578 23.374C24.2366 23.6105 24.1578 23.8733 23.9738 24.031C23.8424 24.1098 23.711 24.1887 23.5796 24.2675L23.4482 24.3726C23.3168 24.4252 23.1591 24.504 23.0278 24.5566C22.7912 24.6617 22.5547 24.5829 22.3708 24.3989L21.8452 23.8208ZM22.581 20.4833C22.581 19.8 22.0029 19.2219 21.3196 19.2219C20.6101 19.2219 20.0582 19.8 20.0582 20.4833C20.0582 21.1928 20.6101 21.7447 21.3196 21.7447C22.0029 21.7447 22.581 21.1928 22.581 20.4833Z" fill="white"/>
</svg>
