<svg width="138" height="138" viewBox="0 0 138 138" fill="none" xmlns="http://www.w3.org/2000/svg">
<circle cx="68.865" cy="68.865" r="68.865" fill="white" fill-opacity="0.1"/>
<g clip-path="url(#clip0_61_25)">
<path d="M68.8779 106C59.0164 106 49.1549 106 39.2629 106C33.5536 105.969 29.9204 102.367 29.9204 96.6575C29.9204 79.8655 29.9204 63.0735 29.9204 46.2814C29.9204 40.6942 33.5841 37 39.1408 37C59.0164 37 78.9226 37 98.7983 37C104.416 37 108.08 40.6942 108.08 46.2509C108.08 63.104 108.08 79.9266 108.08 96.7796C108.08 102.306 104.416 105.969 98.9509 106C88.9063 106 78.8921 106 68.8779 106ZM32.6377 57.7611C32.5766 58.0969 32.5155 58.219 32.5155 58.3717C32.5155 71.2252 32.4545 84.1093 32.5461 96.9628C32.5766 101.054 35.0801 103.344 39.2934 103.344C59.1386 103.374 78.9532 103.374 98.7983 103.313C100.081 103.313 101.454 102.977 102.584 102.397C104.904 101.176 105.576 98.9473 105.576 96.4743C105.576 84.0177 105.576 71.5611 105.576 59.1044C105.576 58.677 105.515 58.219 105.485 57.7305C81.0903 57.7611 56.8793 57.7611 32.6377 57.7611ZM32.6377 54.9522C56.9403 54.9522 81.1514 54.9522 105.362 54.9522C105.362 51.4412 105.515 48.0522 105.301 44.6633C105.149 42.3429 103.653 40.7553 101.454 40.0226C100.416 39.6867 99.2563 39.6257 98.1571 39.6257C78.7394 39.5951 59.3217 39.5951 39.8735 39.6257C39.2018 39.6257 38.5607 39.6562 37.889 39.7173C35.1412 39.9615 32.8209 42.0376 32.6682 44.7854C32.485 48.1133 32.6377 51.4717 32.6377 54.9522Z" fill="white"/>
<path d="M72.5416 66.493C71.6562 70.6758 70.893 74.4616 70.0992 78.2169C69.2443 82.3386 68.3284 86.4298 67.4735 90.5514C67.2598 91.5284 67.0766 92.6886 65.8248 92.4444C64.4509 92.1696 64.7562 91.0399 64.9699 89.9713C66.6186 82.247 68.2368 74.5227 69.8549 66.7678C70.0381 65.8824 70.4045 65.0886 71.412 65.3634C71.931 65.516 72.2974 66.2182 72.5416 66.493Z" fill="white"/>
<path d="M54.4062 78.7664C56.3297 80.4151 58.1005 81.9416 59.8713 83.4377C60.2987 83.804 60.7261 84.1704 61.1536 84.5368C61.8558 85.1474 62.4664 85.8496 61.642 86.7045C60.8482 87.5288 60.085 87.0403 59.3828 86.4297C57.3372 84.6894 55.2916 82.9186 53.246 81.2089C50.7425 79.1023 50.2235 78.7664 53.246 76.385C55.3832 74.6753 57.4288 72.8434 59.5049 71.0726C60.1766 70.4925 60.9398 70.0956 61.642 70.8589C62.4359 71.6832 61.9168 72.4465 61.2146 73.0571C58.9859 74.889 56.7876 76.7514 54.4062 78.7664Z" fill="white"/>
<path d="M83.5938 78.7969C81.4566 76.965 79.5026 75.3164 77.5487 73.6372C77.2128 73.3319 76.6938 73.1181 76.5411 72.7212C76.3274 72.1411 76.3885 71.4695 76.3274 70.8283C76.938 70.7978 77.7318 70.523 78.0982 70.7978C80.9071 73.0571 83.6243 75.408 86.3416 77.7588C87.0743 78.4 86.9827 79.2549 86.2805 79.896C83.6243 82.1858 80.9987 84.4757 78.2509 86.6739C77.854 86.9792 76.938 86.6739 76.2664 86.6434C76.3885 86.0327 76.2664 85.1473 76.6633 84.8115C78.831 82.7659 81.1208 80.873 83.5938 78.7969Z" fill="white"/>
<path d="M40.0261 50.2505C41.5774 50.2505 42.835 48.9929 42.835 47.4417C42.835 45.8904 41.5774 44.6328 40.0261 44.6328C38.4748 44.6328 37.2173 45.8904 37.2173 47.4417C37.2173 48.9929 38.4748 50.2505 40.0261 50.2505Z" fill="white"/>
<path d="M48.361 50.2505C49.9123 50.2505 51.1698 48.9929 51.1698 47.4417C51.1698 45.8904 49.9123 44.6328 48.361 44.6328C46.8097 44.6328 45.5521 45.8904 45.5521 47.4417C45.5521 48.9929 46.8097 50.2505 48.361 50.2505Z" fill="white"/>
<path d="M56.6044 50.2505C58.1557 50.2505 59.4132 48.9929 59.4132 47.4417C59.4132 45.8904 58.1557 44.6328 56.6044 44.6328C55.0531 44.6328 53.7955 45.8904 53.7955 47.4417C53.7955 48.9929 55.0531 50.2505 56.6044 50.2505Z" fill="white"/>
</g>
<defs>
<clipPath id="clip0_61_25">
<rect width="78.1593" height="69" fill="white" transform="translate(29.9204 37)"/>
</clipPath>
</defs>
</svg>
