<svg width="138" height="139" viewBox="0 0 138 139" fill="none" xmlns="http://www.w3.org/2000/svg">
<circle cx="69.0276" cy="69.5696" r="68.8648" fill="white" fill-opacity="0.1"/>
<path d="M38.3786 45.4387C38.3786 44.2313 38.357 43.1318 38.3786 42.0322C38.4001 39.8547 39.5428 38.7335 41.7204 38.7335C43.9841 38.7335 46.2264 38.7335 48.598 38.7335C48.598 37.1597 48.598 35.6936 48.598 34.2275C48.598 33.1064 49.0292 32.4812 49.8269 32.5674C50.7755 32.6752 51.0127 33.322 50.9911 34.1844C50.9695 35.5858 50.9911 36.9872 51.0127 38.3886C51.0127 38.4533 51.0558 38.5179 51.1205 38.6473C53.1686 38.6473 55.2168 38.6473 57.4591 38.6473C57.4591 37.0087 57.5669 35.3702 57.4375 33.7316C57.1788 30.8426 59.7228 29.6999 61.9866 30.6917C69.9422 34.1628 77.9841 37.4184 86.0043 40.6955C87.686 41.3854 88.4406 42.5065 88.419 44.3175C88.3759 49.0176 88.3975 53.7392 88.3975 58.4393C88.3975 58.8705 88.3975 59.3017 88.3975 59.9053C88.8502 59.9053 89.2383 59.9053 89.6048 59.9053C92.1489 59.9053 94.7145 59.8838 97.2586 59.9053C99.0481 59.9269 99.8673 60.7677 99.8889 62.5572C99.8889 63.3118 99.9105 64.0664 99.8889 64.821C99.8458 66.3949 99.0481 67.1926 97.4526 67.2141C94.8654 67.2357 92.2783 67.2141 89.6911 67.2141C89.303 67.2141 88.9149 67.2141 88.4622 67.2141C88.4622 68.4646 88.4622 69.5857 88.4622 70.8578C89.9929 70.8578 91.5021 70.8578 92.9897 70.8578C94.4989 70.8578 96.0081 70.8362 97.5173 70.8578C99.0049 70.8793 99.8242 71.6986 99.8673 73.2078C99.8889 74.0271 99.8889 74.8679 99.8673 75.6872C99.8242 77.3042 99.0049 78.145 97.388 78.1666C94.8439 78.1881 92.2783 78.1666 89.7342 78.1666C89.3461 78.1666 88.958 78.1666 88.4622 78.1666C88.4622 79.3308 88.4622 80.4303 88.4622 81.6593C88.8071 81.6808 89.1736 81.7239 89.5617 81.7239C91.998 81.7239 94.4558 81.7239 96.8921 81.7239C99.1559 81.7239 99.8673 82.457 99.8889 84.6776C99.8889 85.2813 99.8889 85.9065 99.8889 86.5102C99.8458 88.1703 99.0481 89.0543 97.3664 89.0758C94.8223 89.119 92.2567 89.0974 89.7126 89.0974C89.3246 89.0974 88.9365 89.0974 88.4622 89.0974C88.4622 90.2832 88.4622 91.3828 88.4622 92.6332C88.8287 92.6332 89.1952 92.6332 89.5833 92.6332C92.1273 92.6332 94.693 92.6332 97.237 92.6332C99.0265 92.6332 99.8458 93.4956 99.8889 95.2851C99.8889 96.0828 99.9105 96.859 99.8889 97.6567C99.8242 99.1227 98.9618 99.9636 97.4742 99.9851C94.887 100.007 92.2998 99.9851 89.7126 99.9851C89.3246 99.9851 88.9365 99.9851 88.4622 99.9851C88.4622 102.012 88.4622 103.931 88.4622 105.936C93.4856 105.936 98.4875 105.936 103.619 105.936C103.64 105.569 103.662 105.181 103.662 104.815C103.662 88.4722 103.662 72.1082 103.662 55.7658C103.662 54.2998 103.662 54.2782 102.153 54.2782C99.199 54.2782 96.2668 54.2782 93.3131 54.2782C92.4507 54.2782 91.6315 54.1704 91.653 53.0709C91.6746 52.036 92.4723 51.8635 93.3347 51.8635C96.3962 51.8635 99.4361 51.8635 102.498 51.8635C105.02 51.8635 106.12 52.9631 106.12 55.464C106.12 71.8064 106.12 88.1703 106.12 104.513C106.12 104.944 106.12 105.375 106.12 105.979C107.025 105.979 107.909 105.979 108.793 105.979C109.85 106 110.496 106.475 110.432 107.251C110.345 108.221 109.677 108.415 108.815 108.415C99.6086 108.415 90.4241 108.415 81.218 108.415C64.6601 108.415 48.0805 108.372 31.5225 108.458C28.4826 108.48 27.4477 106.82 27.6418 104.577C27.728 103.586 27.6633 102.572 27.6633 101.559C27.6633 99.3599 28.6119 98.325 30.7679 98.131C30.8973 98.1094 31.0482 98.0879 31.3069 98.0232C31.3069 97.5704 31.3069 97.0961 31.3069 96.6434C31.3069 80.7537 31.3069 64.8857 31.3069 48.996C31.3069 46.4304 32.3849 45.374 34.9937 45.3524C36.1148 45.4387 37.1712 45.4387 38.3786 45.4387ZM68.7133 105.957C70.7831 105.957 72.7019 105.957 74.6854 105.957C74.6854 105.591 74.6854 105.31 74.6854 105.03C74.6854 103.09 74.6854 101.149 74.6854 99.209C74.6854 98.4113 75.0304 97.8507 75.8496 97.8292C76.7551 97.8076 77.1001 98.3681 77.1001 99.2305C77.1001 99.942 77.1001 100.675 77.1001 101.387C77.1001 102.917 77.1001 104.448 77.1001 106C80.1185 106 82.986 106 85.9612 106C85.9612 105.526 85.9612 105.095 85.9612 104.685C85.9612 93.5172 85.9612 82.3492 85.9612 71.1596C85.9612 62.2769 85.9397 53.4158 85.9828 44.5331C85.9828 43.7139 85.7887 43.2396 84.9695 42.9377C82.9644 42.1831 80.9809 41.3207 78.9974 40.4799C78.4153 40.2427 77.8331 40.0056 77.1001 39.7037C77.1001 40.3721 77.1001 40.8248 77.1001 41.2992C77.1001 58.2883 77.1001 75.2775 77.1001 92.2883C77.1001 92.6763 77.2295 93.1507 77.057 93.4525C76.8198 93.8621 76.3671 94.4227 76.0006 94.4011C75.5694 94.3796 75.0519 93.9268 74.7501 93.5387C74.556 93.28 74.6854 92.7841 74.6854 92.3745C74.6854 74.911 74.6638 57.4475 74.707 39.984C74.707 38.9491 74.3836 38.4748 73.4565 38.1083C69.3601 36.4697 65.3069 34.745 61.232 33.0417C59.9384 32.5027 59.8306 32.5674 59.8306 33.9472C59.8306 43.3689 59.8306 52.769 59.8306 62.1907C59.8306 62.5356 59.8738 62.8806 59.8953 63.3334C61.5123 63.3334 63.0646 63.4412 64.5954 63.3118C66.967 63.1178 68.778 64.5407 68.7564 67.4082C68.6702 79.8051 68.7133 92.202 68.7133 104.599C68.7133 105.009 68.7133 105.44 68.7133 105.957ZM66.2339 106C66.2555 105.677 66.2771 105.483 66.2771 105.267C66.2771 92.547 66.2771 79.8482 66.2986 67.1279C66.2986 66.093 65.889 65.7265 64.8757 65.7481C60.8224 65.7696 56.7691 65.7481 52.6943 65.7696C51.1205 65.7696 50.9695 65.9205 50.9695 67.4944C50.9695 79.956 50.9695 92.4176 50.9695 104.879C50.9695 105.246 50.9695 105.634 50.9695 106.022C56.1439 106 61.1458 106 66.2339 106ZM33.851 54.58C33.851 57.5984 33.851 60.4012 33.851 63.2471C41.7419 63.2471 49.5466 63.2471 57.3944 63.2471C57.3944 60.3581 57.3944 57.5337 57.3944 54.58C56.9201 54.58 56.5104 54.58 56.0792 54.58C51.8319 54.58 47.6062 54.58 43.3589 54.58C42.9708 54.58 42.4965 54.6663 42.1947 54.4938C41.8066 54.2351 41.3107 53.7608 41.2892 53.3943C41.2892 53.0062 41.7635 52.5319 42.1515 52.23C42.3887 52.0575 42.8415 52.1438 43.208 52.1438C47.5631 52.1438 51.8966 52.1438 56.2517 52.1438C56.6398 52.1438 57.0063 52.1222 57.3728 52.1007C57.3728 50.6346 57.3728 49.2763 57.3728 47.8534C56.9201 47.8534 56.532 47.8534 56.1439 47.8534C52.759 47.8534 49.3957 47.8534 46.0108 47.8534C42.3456 47.8534 38.6804 47.8534 35.0152 47.8534C34.4762 47.8534 33.8294 47.7456 33.8079 48.5433C33.7648 49.7075 33.7863 50.8933 33.7863 52.1438C34.7781 52.1438 35.6405 52.1653 36.5029 52.1438C37.3437 52.1222 37.9474 52.4887 37.9689 53.3511C37.9689 54.2351 37.3437 54.58 36.5029 54.58C35.6405 54.58 34.7996 54.58 33.851 54.58ZM48.5117 87.0061C48.5117 83.8152 48.5117 80.7322 48.5117 77.6707C43.5745 77.6707 38.702 77.6707 33.851 77.6707C33.851 80.8184 33.851 83.9015 33.851 87.0061C38.7666 87.0061 43.5961 87.0061 48.5117 87.0061ZM48.5548 75.1266C48.5548 71.9789 48.5548 68.9174 48.5548 65.7481C43.7901 65.7481 39.1116 65.7481 34.4116 65.7481C33.7432 65.7481 33.7863 66.1793 33.7863 66.6105C33.7863 68.4862 33.7863 70.3403 33.7863 72.216C33.7863 73.1647 33.7863 74.1349 33.7863 75.1266C38.7666 75.1266 43.5961 75.1266 48.5548 75.1266ZM48.5333 98.2172C48.5333 95.1988 48.5333 92.3529 48.5333 89.507C43.5961 89.507 38.7451 89.507 33.7863 89.507C33.7863 92.2667 33.7648 94.9401 33.8294 97.6351C33.8294 97.8292 34.39 98.1957 34.6918 98.1957C37.4515 98.2388 40.2112 98.2172 42.9708 98.2172C44.8034 98.2172 46.6144 98.2172 48.5333 98.2172ZM48.5764 100.783C48.4255 100.718 48.3608 100.654 48.2961 100.654C42.5181 100.632 36.74 100.632 30.962 100.632C30.2936 100.632 30.078 100.934 30.078 101.559C30.0996 102.637 30.1427 103.715 30.0565 104.793C29.9702 105.828 30.4014 106.065 31.3716 106.065C36.7616 106.022 42.13 106.043 47.52 106.043C47.8649 106.043 48.2099 106.043 48.5764 106.043C48.5764 104.189 48.5764 102.508 48.5764 100.783ZM40.8364 45.374C46.442 45.374 51.9182 45.374 57.3728 45.374C57.3728 43.951 57.3728 42.5928 57.3728 41.1698C52.0691 41.1698 46.83 41.1482 41.591 41.2129C41.3323 41.2129 40.9011 41.6872 40.8795 41.9891C40.7933 43.0671 40.8364 44.1666 40.8364 45.374ZM88.4622 75.7734C91.3081 75.7734 94.0893 75.795 96.8921 75.7518C97.0861 75.7518 97.4311 75.4069 97.4526 75.1913C97.5389 74.5661 97.4742 73.9408 97.4742 73.294C94.3696 73.294 91.459 73.294 88.4622 73.294C88.4622 74.1133 88.4622 74.8895 88.4622 75.7734ZM88.4622 97.5273C91.5237 97.5273 94.4342 97.5273 97.4095 97.5273C97.4095 96.6865 97.4095 95.9319 97.4095 95.1342C94.3911 95.1342 91.4374 95.1342 88.4622 95.1342C88.4622 95.9534 88.4622 96.708 88.4622 97.5273ZM88.4406 64.7779C91.4805 64.7779 94.4342 64.7779 97.4095 64.7779C97.4095 63.9802 97.4095 63.2471 97.4095 62.4494C94.3911 62.4494 91.4374 62.4494 88.4406 62.4494C88.4406 63.2471 88.4406 63.9586 88.4406 64.7779ZM88.4837 84.2464C88.4837 85.1088 88.4837 85.8419 88.4837 86.5533C91.5237 86.5533 94.4558 86.5533 97.388 86.5533C97.388 85.7341 97.388 85.001 97.388 84.2464C94.3911 84.2464 91.459 84.2464 88.4837 84.2464Z" fill="white"/>
<path d="M57.0279 71.2023C57.0279 71.6766 57.071 72.1294 57.0279 72.6037C56.9632 73.3152 56.5105 73.811 55.8205 73.6386C55.3678 73.5308 54.7641 73.0349 54.6994 72.6253C54.5269 71.6766 54.5269 70.6849 54.6994 69.7362C54.7641 69.3266 55.454 68.7876 55.8637 68.7876C56.2517 68.7876 56.7692 69.3697 56.9848 69.8009C57.1788 70.2105 57.0279 70.7495 57.0279 71.2023Z" fill="white"/>
<path d="M57.0279 80.2793C57.0279 80.7752 57.1788 81.3573 56.9848 81.767C56.8123 82.1766 56.2733 82.694 55.9068 82.6725C55.4756 82.6509 54.7641 82.1766 54.6994 81.7885C54.5269 80.8183 54.5269 79.7619 54.6994 78.7917C54.7641 78.4036 55.4756 77.8431 55.8637 77.8646C56.2517 77.8862 56.7476 78.4467 56.9848 78.8995C57.1788 79.266 57.0279 79.805 57.0279 80.2793Z" fill="white"/>
<path d="M60.2403 98.4117C60.2403 97.9805 60.2403 97.5493 60.2403 97.1181C60.2403 96.3635 60.7146 95.8892 61.3614 95.9754C61.8142 96.0401 62.461 96.536 62.5257 96.9456C62.6981 97.9158 62.6981 98.9507 62.5257 99.9209C62.461 100.287 61.7926 100.74 61.3183 100.826C60.6715 100.956 60.2619 100.481 60.2188 99.7915C60.2403 99.3388 60.2403 98.8644 60.2403 98.4117Z" fill="white"/>
<path d="M62.6121 71.3108C62.6121 71.742 62.6552 72.1732 62.6121 72.6044C62.5258 73.2944 62.1377 73.7256 61.4047 73.704C60.6717 73.6824 60.2836 73.2944 60.262 72.5613C60.2405 71.6989 60.262 70.8365 60.262 69.9741C60.262 69.1764 60.7363 68.659 61.4478 68.7883C61.9006 68.8746 62.3533 69.4567 62.5905 69.931C62.763 70.2975 62.6121 70.8365 62.6121 71.3108Z" fill="white"/>
<path d="M60.2403 80.258C60.2403 79.8268 60.2403 79.3956 60.2403 78.9644C60.2619 78.2314 60.7577 77.7355 61.383 77.8433C61.8357 77.908 62.461 78.4254 62.5257 78.8351C62.6981 79.7621 62.6335 80.7539 62.5688 81.7241C62.5041 82.414 62.0298 82.8021 61.2967 82.7374C60.6068 82.6943 60.2619 82.3062 60.2188 81.6379C60.2403 81.1851 60.2403 80.7108 60.2403 80.258Z" fill="white"/>
<path d="M57.028 89.4203C57.028 89.8515 57.0496 90.2827 57.028 90.7139C56.9849 91.4469 56.5537 91.8135 55.8206 91.8135C55.0876 91.8135 54.6564 91.4038 54.6348 90.6923C54.5917 89.7868 54.4839 88.8597 54.678 88.0189C54.7858 87.5662 55.4326 86.9409 55.8422 86.9409C56.2303 86.9409 56.7477 87.5662 56.9849 88.0405C57.1789 88.407 57.028 88.946 57.028 89.4203Z" fill="white"/>
<path d="M60.2405 89.3343C60.2405 88.9031 60.2405 88.4719 60.2405 88.0407C60.2405 87.2861 60.7148 86.8118 61.3616 86.898C61.8143 86.9627 62.4611 87.4801 62.5258 87.8682C62.6983 88.8384 62.6983 89.8733 62.5258 90.8435C62.4611 91.21 61.7928 91.6628 61.3185 91.749C60.6717 91.8784 60.262 91.404 60.2405 90.7141C60.2405 90.2829 60.2405 89.8086 60.2405 89.3343Z" fill="white"/>
<path d="M54.6348 98.3897C54.6348 97.9154 54.4839 97.3764 54.6779 97.0099C54.8935 96.5571 55.454 95.9535 55.799 95.9966C56.2518 96.0397 56.877 96.6218 56.9848 97.053C57.1788 97.9154 57.071 98.8425 57.0279 99.7264C57.0064 100.459 56.5967 100.848 55.8637 100.869C55.0875 100.891 54.6779 100.459 54.6348 99.6833C54.6132 99.2521 54.6348 98.8209 54.6348 98.3897Z" fill="white"/>
</svg>
