<svg width="138" height="138" viewBox="0 0 138 138" fill="none" xmlns="http://www.w3.org/2000/svg">
<circle cx="68.865" cy="68.865" r="68.865" fill="white" fill-opacity="0.1"/>
<g clip-path="url(#clip0_58_1524)">
<path d="M82.2087 81.6928C80.8961 88.9576 75.6459 93.6889 68.9915 93.7194C62.2456 93.7499 56.9649 89.0492 55.6218 81.6317C55.1945 81.6012 54.7366 81.5401 54.2482 81.5401C46.8002 81.5401 39.3522 81.5707 31.9043 81.5096C30.6222 81.5096 30.1033 81.8149 30.1338 83.1885C30.2254 87.1567 30.1949 91.1248 30.1338 95.093C30.1033 96.2835 30.4696 96.6803 31.6906 96.6498C35.8725 96.5887 40.0543 96.6192 44.2362 96.6192C45.1214 96.6192 46.0982 96.5277 46.1287 97.7792C46.1592 99.0612 45.1214 98.9696 44.2667 98.9696C39.8101 98.9696 35.3535 99.0002 30.9275 98.9696C28.7908 98.9696 27.7835 97.9318 27.7835 95.8256C27.7224 91.308 27.7224 86.8209 27.7224 82.3033C27.7224 80.2886 28.7602 79.2508 30.7749 79.2203C33.3389 79.1898 35.903 79.2203 38.5586 79.2203C38.8944 74.7332 39.8712 70.5513 41.8858 66.6442C43.9004 62.7676 46.5866 59.5014 50.0358 56.6932C48.1433 53.4271 46.3424 50.1915 44.4193 47.078C44.1446 46.6201 43.2899 46.4064 42.6489 46.2843C37.8871 45.3686 34.743 41.7667 34.8041 37.127C34.8651 33.2199 36.7577 30.4116 40.2985 28.7938C43.6562 27.2676 47.716 28.0002 50.28 30.5642C53.0883 33.3725 53.9124 36.6996 52.5083 40.4236C52.081 41.5836 52.081 42.4077 52.7525 43.4761C54.4924 46.2843 56.0797 49.1842 57.6059 51.8398C60.872 51.2598 63.955 50.3746 67.0685 50.222C77.8437 49.6726 86.5431 53.8239 93.167 62.3402C93.4722 62.737 93.167 63.6223 93.1364 64.2633C92.4954 64.0801 91.6102 64.1106 91.2744 63.6833C86.421 57.4563 80.1635 53.7323 72.3492 52.725C67.8927 52.145 63.4971 52.6029 59.1016 54.3428C60.4447 56.6932 61.7572 58.952 63.0698 61.2108C63.7719 62.4013 64.5655 63.5917 65.1149 64.8432C65.9086 66.5831 66.8854 67.2242 68.9915 67.1631C75.6764 66.9494 80.8656 71.7723 82.2697 79.0982C87.0315 79.0982 91.7934 79.0982 96.6773 79.0982C96.7688 75.9236 95.9447 72.9933 94.8763 70.124C94.7237 69.7272 94.4185 69.3303 94.4185 68.9335C94.449 68.323 94.6627 67.7431 94.8153 67.1326C95.4258 67.4073 96.4331 67.5904 96.5552 68.0178C97.532 71.3755 98.3561 74.7942 99.2108 78.213C99.2719 78.4572 99.2719 78.7319 99.3329 79.2203C101.744 79.2203 104.125 79.2203 106.506 79.2203C109.284 79.2203 110.169 80.1055 110.169 82.8527C110.169 87.1261 110.169 91.4301 110.169 95.7035C110.169 97.9318 109.192 98.9696 106.964 98.9696C88.4051 98.9696 69.8768 98.9696 51.3179 98.9696C50.4632 98.9696 49.578 98.8781 49.578 97.8097C49.578 96.6192 50.5242 96.5887 51.44 96.6192C69.5105 96.6192 87.581 96.6192 105.621 96.6192C107.758 96.6192 107.788 96.6192 107.788 94.4215C107.788 90.6059 107.788 86.8209 107.788 83.0053C107.788 82.0896 107.697 81.5096 106.506 81.5096C98.6308 81.5401 90.7555 81.5401 82.8802 81.5401C82.575 81.5707 82.4223 81.6317 82.2087 81.6928ZM46.7392 46.1317C47.0139 46.6506 47.2886 47.1085 47.5328 47.5664C51.6842 54.7396 55.7439 61.9739 59.9868 69.0861C61.1467 71.0702 61.2078 72.5354 59.8037 74.4585C57.1786 78.0909 57.3617 82.9748 59.9563 86.6377C62.4898 90.2396 67.099 92.01 71.2504 90.9722C76.7448 89.6291 80.4688 84.4095 79.7057 79.1592C78.8204 73.1459 74.0586 69.1472 68.0453 69.6051C65.8475 69.7882 64.6265 69.0251 63.5582 67.1326C59.4679 59.8677 55.2555 52.664 51.0737 45.4297C50.7989 44.9413 50.4632 44.4834 50.219 44.0866C49.0285 44.8192 47.9602 45.4297 46.7392 46.1317ZM51.3484 58.952C45.6403 62.6455 40.2985 73.4817 41.3669 79.0982C46.0982 79.0982 50.8295 79.0982 55.1029 79.0982C56.2323 76.6867 57.2701 74.55 58.2164 72.3828C58.3995 71.986 58.4606 71.345 58.2469 70.9787C56.0186 67.0105 53.6988 63.0423 51.3484 58.952ZM43.9004 43.934C47.716 43.9645 50.7379 40.9731 50.7379 37.1575C50.7074 33.464 47.6854 30.4421 44.0225 30.3811C40.2985 30.3505 37.1545 33.4946 37.1545 37.2186C37.185 40.912 40.1764 43.9034 43.9004 43.934Z" fill="white"/>
<path d="M84.1927 68.5367C81.1708 64.599 77.0195 62.1265 71.8914 61.2719C71.5251 61.2108 71.1588 61.2108 70.762 61.1498C69.9378 61.0277 69.0526 60.8445 69.2357 59.7151C69.3884 58.6467 70.3041 58.6467 71.1283 58.7383C76.7753 59.4099 81.5371 61.7908 85.3222 66.0947C85.78 66.6136 86.2074 67.1631 86.7263 67.8346C86.94 67.5599 87.0926 67.1936 87.3673 67.102C87.8252 66.9494 88.4051 66.7663 88.8019 66.9494C89.1072 67.102 89.2598 67.7125 89.3514 68.1399C89.4124 68.3535 89.1988 68.6283 89.1377 68.903C88.0694 72.5964 87.3368 72.9627 83.7349 71.4976C83.3075 71.3144 82.7276 70.6429 82.8191 70.3987C83.0328 69.7577 83.6128 69.2693 84.1927 68.5367Z" fill="white"/>
<path d="M74.486 80.3191C74.5165 83.4326 72.0135 85.9662 68.9305 85.9967C65.8475 86.0272 63.314 83.5242 63.2835 80.4107C63.253 77.2667 65.7254 74.7942 68.8389 74.7637C71.983 74.7637 74.4555 77.2056 74.486 80.3191ZM68.9305 83.5242C70.7009 83.4937 72.0745 82.1506 72.1051 80.4107C72.1356 78.6403 70.6094 77.1446 68.8389 77.1751C67.1296 77.2056 65.6949 78.6403 65.6644 80.3497C65.6644 82.1201 67.099 83.5547 68.9305 83.5242Z" fill="white"/>
</g>
<defs>
<clipPath id="clip0_58_1524">
<rect width="82.3551" height="71" fill="white" transform="translate(27.7224 28.0001)"/>
</clipPath>
</defs>
</svg>
