<svg width="138" height="139" viewBox="0 0 138 139" fill="none" xmlns="http://www.w3.org/2000/svg">
<circle cx="68.865" cy="69.2098" r="68.865" fill="white" fill-opacity="0.1"/>
<path d="M44.4693 91.6148C45.2994 91.6148 46.1087 91.6148 46.918 91.6148C50.7364 91.6354 52.7908 93.5715 52.9776 97.3406C52.9776 97.4848 53.0191 97.6289 53.0399 97.8349C55.9451 97.8349 58.8296 97.8349 61.7764 97.8349C61.7764 97.0728 61.7764 96.352 61.7764 95.6929C60.7181 95.4663 59.6597 95.4045 58.7466 95.0338C56.6299 94.1894 55.4886 92.5211 55.4678 90.2761C55.4056 86.404 55.4056 82.5113 55.4678 78.6392C55.5093 76.3119 56.6714 74.6024 58.8712 73.6961C59.4522 73.449 59.639 73.1606 59.6182 72.5634C59.5767 71.5747 59.5975 70.5861 59.6182 69.5975C59.7012 66.714 61.8594 64.469 64.7232 64.4484C74.5596 64.4073 84.4168 64.4073 94.2532 64.4484C97.1793 64.469 99.2752 66.6728 99.4205 69.6799C99.462 70.7097 99.379 71.7395 99.462 72.7487C99.4827 73.0577 99.7732 73.4902 100.043 73.6138C102.429 74.623 103.55 76.3942 103.529 78.9276C103.509 82.4083 103.529 85.8891 103.529 89.3493C103.529 93.3449 101.703 95.2604 97.6981 95.4869C97.5943 95.4869 97.4905 95.5281 97.3038 95.5693C97.3038 96.2696 97.3038 96.9905 97.3038 97.8761C97.6981 97.8761 98.1131 97.8761 98.5489 97.8761C101.35 97.9173 104.152 97.8143 106.933 98.0409C109.402 98.2468 111.062 100.43 110.979 102.86C110.896 105.25 109.029 107.206 106.601 107.453C106.227 107.495 105.854 107.474 105.501 107.474C80.8267 107.474 56.1526 107.474 31.4786 107.495C29.7147 107.495 28.179 107.062 27.0792 105.661C25.8755 104.137 25.668 102.448 26.4774 100.718C27.3489 98.8441 28.9468 97.9791 30.9805 97.8967C31.7691 97.8761 32.5784 97.8967 33.4915 97.8967C33.3462 95.5693 34.0103 93.7362 35.9195 92.4593C37.7457 91.2441 39.8416 91.7384 41.8961 91.5531C41.8961 84.3856 41.8961 77.2799 41.8961 70.0506C40.4434 70.0506 39.053 70.0712 37.6627 70.0506C35.3384 70.0094 34.3008 68.959 34.2801 66.6728C34.2801 65.9108 34.2801 65.1281 34.2801 64.3661C34.2801 63.5628 34.6329 62.9655 35.4837 62.9449C36.3968 62.9037 36.7703 63.5422 36.8118 64.3661C36.8533 65.1281 36.8533 65.9108 36.8118 66.6728C36.7911 67.3113 36.9778 67.5997 37.6834 67.5997C41.3773 67.5791 45.0504 67.5791 48.7442 67.5997C49.4083 67.5997 49.678 67.3937 49.678 66.714C49.6573 62.8419 49.6988 58.9493 49.6573 55.0772C49.6365 53.3883 48.3707 52.2349 46.6483 52.1937C44.3655 52.1525 42.0828 52.1525 39.7794 52.1937C38.0362 52.2349 36.8948 53.3883 36.8326 55.0978C36.7911 56.1894 36.8326 57.3016 36.8118 58.3932C36.7911 59.2582 36.5005 59.9791 35.5252 59.9791C34.5291 59.9791 34.2593 59.2582 34.2801 58.3932C34.3008 57.0338 34.2386 55.6745 34.3838 54.3357C34.6951 51.7612 36.9156 49.8251 39.5303 49.7839C41.9583 49.7428 44.407 49.7428 46.835 49.7839C49.8025 49.8251 52.1268 52.1731 52.1475 55.1184C52.1683 58.9699 52.1475 62.8008 52.1475 66.6522C52.1475 68.8766 51.2552 69.8447 49.0555 70.0918C48.8687 70.1124 48.7027 70.133 48.3914 70.1742C48.3914 70.6479 48.3914 71.1216 48.3914 71.5747C48.3914 72.9341 47.9971 73.5314 47.1255 73.4696C45.9634 73.3872 45.9012 72.5222 45.9219 71.6159C45.9427 71.1422 45.9219 70.6891 45.9219 70.1536C45.3824 70.1536 44.9673 70.1536 44.49 70.1536C44.4693 77.2799 44.4693 84.365 44.4693 91.6148ZM79.4571 93.0154C85.6204 93.0154 91.763 93.0154 97.9263 93.0154C99.9393 93.0154 101.06 91.9032 101.06 89.8848C101.081 86.2186 101.081 82.5731 101.06 78.907C101.06 77.0121 99.8355 75.7146 98.1546 75.7352C96.5359 75.7558 95.3116 77.0945 95.2908 78.8864C95.2701 80.6371 95.2908 82.4083 95.2908 84.159C95.2701 86.0333 94.0872 87.2484 92.1988 87.2896C90.8292 87.3308 89.4803 87.3102 88.1106 87.2896C87.2806 87.2896 86.6373 87.0013 86.6165 86.0539C86.5958 85.0858 87.2391 84.8387 88.0899 84.8387C89.3143 84.8593 90.5179 84.7975 91.7422 84.8593C92.5723 84.9005 92.8421 84.5503 92.8213 83.7471C92.7798 82.0376 92.8006 80.3075 92.8213 78.598C92.8628 76.7444 93.5684 75.0555 95.2078 74.314C96.9302 73.5314 97.0755 72.3574 96.9095 70.8539C96.868 70.5655 96.9095 70.2772 96.9095 69.9682C96.868 67.9292 95.7889 66.8788 93.7344 66.8582C90.1858 66.8582 86.658 66.8582 83.1094 66.8582C77.1329 66.8582 71.1563 66.8582 65.2005 66.8582C63.2498 66.8582 62.1292 67.991 62.1085 69.927C62.0877 70.8333 62.0462 71.7601 62.1292 72.6663C62.1707 72.9959 62.4405 73.4696 62.731 73.5932C65.1175 74.6024 66.2173 76.4148 66.2381 78.9276C66.2588 80.4929 66.2796 82.0788 66.2173 83.6441C66.1758 84.5709 66.5286 84.8387 67.421 84.8387C71.3638 84.7975 75.3067 84.8181 79.2496 84.8181C80.3287 84.8181 81.4078 84.7357 82.4454 84.8799C82.8397 84.9417 83.4207 85.4978 83.4622 85.8685C83.5037 86.2598 83.0472 86.7953 82.6944 87.1043C82.4661 87.2896 81.9888 87.2484 81.636 87.2484C76.8008 87.2484 71.9864 87.269 67.1512 87.2484C64.8477 87.2484 63.7064 86.0951 63.6856 83.7883C63.6649 82.0788 63.7894 80.3487 63.6233 78.6392C63.5403 77.836 63.1045 76.9709 62.565 76.3736C61.8179 75.5498 60.7181 75.488 59.7012 75.9411C58.4354 76.5178 57.8958 77.6094 57.8958 78.9688C57.8958 82.4907 57.8958 85.9921 57.8958 89.514C57.8958 91.9238 58.9749 92.9948 61.4029 92.9948C67.421 93.0154 73.439 93.0154 79.4571 93.0154ZM68.5208 100.368C56.3187 100.368 44.1165 100.368 31.8936 100.368C31.3748 100.368 30.856 100.368 30.358 100.471C29.3204 100.657 28.5318 101.625 28.4903 102.634C28.4488 103.622 29.2374 104.632 30.2542 104.879C30.7108 104.982 31.2088 105.023 31.6861 105.023C56.2357 105.023 80.806 105.023 105.356 105.023C105.874 105.023 106.393 104.982 106.891 104.858C108.302 104.467 108.925 102.881 108.219 101.604C107.576 100.451 106.497 100.368 105.356 100.368C93.0704 100.389 80.806 100.368 68.5208 100.368ZM36.0648 97.8349C40.8792 97.8349 45.5899 97.8349 50.3213 97.8349C50.7156 95.5281 49.595 94.1276 47.3538 94.107C44.6353 94.0864 41.9168 94.0864 39.1983 94.107C36.8741 94.107 35.7535 95.4251 36.0648 97.8349ZM69.8489 97.8349C76.365 97.8349 82.7566 97.8349 89.1897 97.8349C89.2105 97.5671 89.252 97.3406 89.252 97.1346C89.252 95.1986 89.3765 95.5075 87.5918 95.5075C82.0926 95.4869 76.6141 95.5075 71.1148 95.5075C70.6998 95.5075 70.264 95.5075 69.8282 95.5075C69.8489 96.3726 69.8489 97.0522 69.8489 97.8349ZM64.3912 95.5487C64.3912 96.352 64.3912 97.0934 64.3912 97.7937C65.408 97.7937 66.3419 97.7937 67.2549 97.7937C67.4832 95.4457 67.4832 95.4457 65.2835 95.4869C65.0137 95.4869 64.7232 95.5281 64.3912 95.5487ZM91.763 97.7937C92.7798 97.7937 93.7137 97.7937 94.5853 97.7937C94.5853 96.9904 94.5853 96.2696 94.5853 95.5693C93.5892 95.5693 92.6968 95.5693 91.763 95.5693C91.763 96.3314 91.763 97.0316 91.763 97.7937Z" fill="white"/>
<path d="M62.7932 43.2962C68.1265 42.946 73.0239 43.7493 77.7346 45.9531C79.3948 42.946 81.6982 40.5569 84.4375 38.559C87.1145 36.623 90.1235 35.2842 93.1948 33.9867C92.2195 33.9867 91.2441 33.9867 90.2688 33.9867C86.2844 33.9867 82.3001 33.9867 78.3157 33.9867C77.9421 33.9867 77.4856 34.0897 77.2366 33.9249C76.8215 33.6571 76.3027 33.204 76.282 32.8127C76.2612 32.4214 76.7593 31.9271 77.1328 31.6181C77.3403 31.4533 77.7761 31.5357 78.1082 31.5357C83.8149 31.5357 89.5425 31.5357 95.2493 31.5357C97.615 31.5357 98.7148 32.5861 98.7148 34.9341C98.7356 41.0512 98.7356 47.1477 98.7148 53.2647C98.7148 55.5715 97.6565 56.6219 95.353 56.6425C84.811 56.6425 74.269 56.6425 63.7271 56.6425C61.3821 56.6425 60.3237 55.5715 60.3237 53.2029C60.3237 47.1271 60.3237 41.0512 60.3237 34.9753C60.3237 32.6479 61.4236 31.5563 63.7478 31.5357C66.321 31.5357 68.915 31.5357 71.4883 31.5357C72.6504 31.5357 73.2314 31.9477 73.1899 32.7715C73.1484 33.8837 72.3391 33.9867 71.4675 33.9867C68.9565 33.9867 66.4456 34.0073 63.9553 33.9661C63.1045 33.9455 62.7725 34.1926 62.7932 35.0989C62.814 37.8176 62.7932 40.5157 62.7932 43.2962ZM80.0173 47.2094C82.7358 48.9601 85.1016 51.1227 87.0522 53.7384C87.239 53.9856 87.7371 54.1298 88.0898 54.1298C90.3726 54.171 92.6553 54.1092 94.9587 54.171C95.9133 54.1916 96.2246 53.9444 96.2039 52.9558C96.1416 48.3834 96.1831 43.8111 96.1831 39.2387C96.1831 38.2089 96.1831 37.1997 96.1831 36.1699C90.9329 36.3141 81.6982 42.6165 80.0173 47.2094ZM84.1055 54.1504C78.8137 47.2918 69.0396 44.8615 62.7932 45.9737C62.7932 48.2599 62.8555 50.5666 62.7725 52.8528C62.731 53.9444 63.146 54.1916 64.1628 54.171C70.3884 54.1298 76.614 54.1504 82.8396 54.1504C83.1924 54.1504 83.5452 54.1504 84.1055 54.1504Z" fill="white"/>
<path d="M87.5918 77.5683C87.4258 78.701 86.99 79.1336 86.2015 79.0718C85.4751 79.01 85.0809 78.5363 85.1016 77.8154C85.1224 77.0739 85.6412 76.5796 86.3052 76.6826C86.824 76.765 87.2598 77.3211 87.5918 77.5683Z" fill="white"/>
<path d="M74.4144 77.836C73.6673 78.4127 73.273 78.9482 72.775 79.0512C72.0279 79.1953 71.5091 78.6804 71.4884 77.8978C71.4676 77.1151 72.0072 76.5796 72.7335 76.6826C73.2315 76.765 73.6466 77.3005 74.4144 77.836Z" fill="white"/>
</svg>
