<svg width="138" height="138" viewBox="0 0 138 138" fill="none" xmlns="http://www.w3.org/2000/svg">
<circle cx="68.865" cy="68.865" r="68.865" fill="white" fill-opacity="0.1"/>
<path d="M80.7022 66.9377C79.2987 64.9943 77.0315 63.8067 74.6563 63.8067H73.1448C72.8209 63.8067 72.389 63.9147 72.0652 63.9147C70.6616 62.943 69.0422 62.2952 67.3148 62.2952H65.9112C65.4794 62.2952 65.0475 62.4032 64.6157 62.5112C63.3201 60.6758 61.2688 59.4882 59.0016 59.4882H57.2742C53.3875 59.4882 50.3645 62.6191 50.3645 66.3979V71.796L46.8017 75.0349C44.6424 76.7624 43.4548 79.4614 43.4548 82.2685V90.7976C43.4548 94.2524 45.2902 97.4913 48.2052 99.1108L52.0919 101.27V112.174C52.0919 113.686 53.1715 114.765 54.5751 114.765C55.8706 114.765 57.2742 113.686 57.2742 112.174V98.2471C57.0582 98.1391 56.9503 98.1391 56.7343 98.0312L50.7963 94.6843C49.3928 93.9285 48.6371 92.4171 48.6371 90.7976V82.2685C48.6371 80.9729 49.1769 79.7853 50.1486 78.9216L52.0919 77.1942V81.9446C52.0919 82.9163 52.8477 83.672 53.8193 83.672C54.683 83.672 55.5467 82.9163 55.5467 81.9446V66.3979C55.5467 65.5342 56.3025 64.6704 57.2742 64.6704H59.0016C59.8653 64.6704 60.729 65.5342 60.729 66.3979V68.1253C60.729 69.2049 61.4847 69.9607 62.4564 69.9607C63.1042 69.9607 63.752 69.5288 63.9679 68.7731C64.0759 68.6651 64.6157 67.4775 65.9112 67.4775H67.3148C69.582 67.4775 69.2581 69.6368 70.9855 69.6368C71.8492 69.6368 72.0652 68.989 73.1448 68.989H74.6563C77.3554 68.989 76.5996 72.1199 78.7589 72.1199C78.8669 72.1199 78.8669 72.1199 78.8669 72.1199L80.4863 72.012C81.8898 72.012 83.1854 73.3075 83.1854 74.819V88.8543C83.1854 92.8489 81.0261 96.1958 78.0031 97.9232V112.174C78.0031 113.686 79.0828 114.765 80.4863 114.765C81.7819 114.765 83.1854 113.686 83.1854 112.174V100.514C86.4243 97.5993 88.3676 93.3887 88.3676 88.8543V74.819C88.3676 70.6084 84.9128 67.0456 80.7022 66.9377Z" fill="white"/>
<path d="M50.0004 73C50.0004 73 41.5 69.5 47 49.5C52.4999 29.5 48.5003 24 48.5003 24" stroke="white" stroke-width="3"/>
<rect x="53" y="34" width="52" height="6" rx="3" fill="white"/>
<rect x="53" y="43" width="52" height="5" rx="2.5" fill="white"/>
<rect x="53" y="51" width="52" height="6" rx="3" fill="white"/>
</svg>
