<svg width="138" height="139" viewBox="0 0 138 139" fill="none" xmlns="http://www.w3.org/2000/svg">
<circle cx="68.865" cy="69.6946" r="68.865" fill="white" fill-opacity="0.1"/>
<path d="M84.7022 62.9377C83.2987 60.9943 81.0315 59.8067 78.6563 59.8067H77.1448C76.8209 59.8067 76.389 59.9147 76.0652 59.9147C74.6616 58.943 73.0422 58.2952 71.3148 58.2952H69.9112C69.4794 58.2952 69.0475 58.4032 68.6157 58.5112C67.3201 56.6758 65.2688 55.4882 63.0016 55.4882H61.2742C57.3875 55.4882 54.3645 58.6191 54.3645 62.3979V67.796L50.8017 71.0349C48.6424 72.7624 47.4548 75.4614 47.4548 78.2685V86.7976C47.4548 90.2524 49.2902 93.4913 52.2052 95.1108L56.0919 97.2701V108.174C56.0919 109.686 57.1715 110.765 58.5751 110.765C59.8706 110.765 61.2742 109.686 61.2742 108.174V94.2471C61.0582 94.1391 60.9503 94.1391 60.7343 94.0312L54.7963 90.6843C53.3928 89.9285 52.6371 88.4171 52.6371 86.7976V78.2685C52.6371 76.9729 53.1769 75.7853 54.1486 74.9216L56.0919 73.1942V77.9446C56.0919 78.9163 56.8477 79.672 57.8193 79.672C58.683 79.672 59.5467 78.9163 59.5467 77.9446V62.3979C59.5467 61.5342 60.3025 60.6704 61.2742 60.6704H63.0016C63.8653 60.6704 64.729 61.5342 64.729 62.3979V64.1253C64.729 65.2049 65.4847 65.9607 66.4564 65.9607C67.1042 65.9607 67.752 65.5288 67.9679 64.7731C68.0759 64.6651 68.6157 63.4775 69.9112 63.4775H71.3148C73.582 63.4775 73.2581 65.6368 74.9855 65.6368C75.8492 65.6368 76.0652 64.989 77.1448 64.989H78.6563C81.3554 64.989 80.5996 68.1199 82.7589 68.1199C82.8669 68.1199 82.8669 68.1199 82.8669 68.1199L84.4863 68.012C85.8898 68.012 87.1854 69.3075 87.1854 70.819V84.8543C87.1854 88.8489 85.0261 92.1958 82.0031 93.9232V108.174C82.0031 109.686 83.0828 110.765 84.4863 110.765C85.7819 110.765 87.1854 109.686 87.1854 108.174V96.5143C90.4243 93.5993 92.3676 89.3887 92.3676 84.8543V70.819C92.3676 66.6084 88.9128 63.0456 84.7022 62.9377Z" fill="white"/>
<circle cx="53.7118" cy="30.4144" r="4.41441" fill="white"/>
<circle cx="53.7118" cy="56.9009" r="4.41441" fill="white"/>
<circle cx="53.7118" cy="39.2433" r="4.41441" fill="white"/>
<circle cx="53.7118" cy="65.7297" r="4.41441" fill="white"/>
<circle cx="53.7118" cy="48.0721" r="4.41441" fill="white"/>
</svg>
