<svg width="138" height="139" viewBox="0 0 138 139" fill="none" xmlns="http://www.w3.org/2000/svg">
<circle cx="68.865" cy="69.6946" r="68.865" fill="white" fill-opacity="0.1"/>
<path d="M63.2452 56.5337C63.2452 55.5504 63.2134 54.7573 63.2452 53.996C63.3403 51.9025 64.8312 50.3481 66.9248 50.3164C71.1436 50.2847 75.3625 50.253 79.5814 50.3164C81.6433 50.3481 83.1659 51.9342 83.2293 54.0278C83.261 54.7891 83.2293 55.5821 83.2293 56.5337C86.2428 56.4385 89.1294 56.5971 91.4767 58.7224C93.7606 60.7843 94.6488 63.3854 94.4585 66.5575C96.33 66.5575 98.0747 66.5575 99.851 66.5575C103.15 66.5575 104.451 67.858 104.482 71.1887C104.482 71.6646 104.482 72.1086 104.482 72.8065C105.719 72.8065 106.893 72.7748 108.067 72.8065C110.351 72.8382 112 74.456 111.968 76.5813C111.937 78.6431 110.319 80.2292 108.13 80.2609C106.988 80.2926 105.846 80.2609 104.482 80.2609C104.482 81.1491 104.514 81.9421 104.482 82.7351C104.419 84.8921 102.896 86.4465 100.707 86.4782C98.6774 86.5099 96.6789 86.4782 94.7122 86.4782C94.6171 86.7002 94.5219 86.7954 94.5219 86.8906C94.8709 92.1562 90.8423 96.9778 84.4347 96.502C83.261 96.4068 82.0556 96.502 80.8185 96.502C80.8185 97.3584 80.8185 98.088 80.8185 99.0079C81.3578 99.0079 81.9287 99.0079 82.468 99.0079C86.7503 99.0079 91.0009 99.0079 95.2832 99.0079C98.0429 99.0079 99.4704 100.499 99.5021 103.259C99.5021 103.83 99.5021 104.4 99.5021 104.971C99.4704 107.414 97.9478 108.968 95.5053 108.968C91.5402 109 87.6068 108.968 83.6417 108.968C67.9716 108.968 52.3015 108.968 36.6314 108.968C33.3324 109 32.0001 107.668 32.0001 104.337C32.0001 103.861 32.0001 103.385 32.0001 102.941C32.0636 100.562 33.5544 99.0396 35.9018 99.0079C39.5497 98.9762 43.1659 99.0079 46.8772 99.0079C46.8772 98.1515 46.8772 97.3902 46.8772 96.6606C44.8153 96.502 42.7535 96.5654 40.8185 96.1848C35.7114 95.2014 32.0001 90.6019 32.0001 85.368C31.9684 79.4996 31.9684 73.5995 32.0001 67.7312C32.0318 61.5456 37.012 56.5654 43.2293 56.5337C49.2563 56.502 55.3149 56.5337 61.3419 56.5337C61.9446 56.5337 62.4839 56.5337 63.2452 56.5337ZM44.5616 94.0278C45.1643 94.0278 45.6084 94.0278 46.0842 94.0278C59.0897 94.0278 72.0953 94.0278 85.1008 94.0278C89.4149 94.0278 91.9843 91.4584 91.9843 87.1761C91.9843 80.1657 91.9843 73.1237 91.9843 66.1134C91.9843 61.5773 89.4783 59.0396 84.9739 59.0396C72.0636 59.0396 59.1849 59.0396 46.2745 59.0396C45.7352 59.0396 45.1643 59.0396 44.5616 59.0396C44.5616 70.7446 44.5616 82.2593 44.5616 94.0278ZM65.878 101.514C56.2031 101.514 46.5283 101.514 36.8534 101.514C34.6647 101.514 34.5378 101.672 34.5378 103.988C34.5378 106.367 34.6964 106.526 36.79 106.526C56.1397 106.526 75.4894 106.526 94.8708 106.526C96.901 106.526 97.0596 106.335 97.0596 103.893C97.0596 101.704 96.8693 101.514 94.8074 101.514C85.1325 101.514 75.4894 101.514 65.878 101.514ZM41.9605 59.23C37.8685 59.7692 34.6329 63.1634 34.5378 67.1919C34.4109 73.3775 34.4109 79.563 34.5378 85.7486C34.6012 89.8723 37.9954 93.3933 41.9287 93.7423C41.9605 82.291 41.9605 70.8081 41.9605 59.23ZM94.5536 84.004C96.6472 84.004 98.5505 84.004 100.454 84.004C101.469 84.004 101.976 83.4964 101.976 82.4814C101.976 78.4845 102.008 74.4877 101.913 70.4909C101.913 69.9833 101.247 69.1269 100.834 69.0952C98.7408 68.9683 96.6155 69.0317 94.4902 69.0317C94.5536 74.1071 94.5536 78.9603 94.5536 84.004ZM80.6916 56.4703C80.7233 56.0262 80.7233 55.7407 80.7551 55.4235C80.7868 52.8858 80.6599 52.7589 78.154 52.7589C74.7281 52.7589 71.3022 52.7589 67.8764 52.7589C65.9731 52.7589 65.7194 53.0127 65.7511 54.9159C65.7511 55.4235 65.8145 55.8993 65.8145 56.4385C70.7947 56.4703 75.6797 56.4703 80.6916 56.4703ZM73.1738 96.5971C66.9565 96.5971 60.7709 96.5971 54.5854 96.5971C54.5854 97.4219 54.5854 98.1515 54.5854 98.9128C60.8344 98.9128 66.9882 98.9128 73.1738 98.9128C73.1738 98.088 73.1738 97.3902 73.1738 96.5971ZM104.546 77.755C105.815 77.755 106.956 77.8818 108.035 77.6915C108.574 77.5964 108.987 76.8668 109.462 76.4544C109.018 76.042 108.606 75.3759 108.098 75.3125C106.956 75.1538 105.751 75.249 104.546 75.249C104.546 76.1372 104.546 76.8668 104.546 77.755ZM49.5735 96.5654C49.5735 97.4536 49.5735 98.1515 49.5735 98.9128C50.3982 98.9128 51.1278 98.9128 51.8891 98.9128C51.8891 98.088 51.8891 97.3267 51.8891 96.5654C51.0961 96.5654 50.3665 96.5654 49.5735 96.5654ZM75.7749 98.9128C76.6631 98.9128 77.3927 98.9128 78.154 98.9128C78.154 98.0563 78.154 97.3267 78.154 96.6289C77.2975 96.6289 76.5362 96.6289 75.7749 96.6289C75.7749 97.4219 75.7749 98.088 75.7749 98.9128Z" fill="white"/>
<path d="M100.612 46.5099C98.9628 46.5099 97.5354 46.5417 96.1397 46.5099C94.6488 46.4782 94.1412 45.7169 94.7757 44.4164C97.123 39.6265 99.5021 34.8367 101.976 30.1103C102.23 29.6027 103.055 29.1269 103.657 29.0952C105.466 28.9683 107.305 29.0318 109.113 29.0635C110.604 29.0952 111.08 29.8565 110.414 31.2205C109.177 33.7582 107.908 36.2958 106.512 39.0555C107.972 39.0555 109.209 39.0238 110.446 39.0555C111.81 39.119 112.349 39.9437 111.683 41.1174C108.479 46.8272 105.244 52.5052 101.945 58.1515C101.691 58.5956 100.866 58.6908 100.327 58.9445C100.073 58.3418 99.5338 57.6757 99.5972 57.1047C99.8193 53.6154 100.232 50.1578 100.612 46.5099ZM108.574 41.5298C107.274 41.5298 106.29 41.5298 105.307 41.5298C103.213 41.5298 102.833 40.8636 103.784 38.9287C104.958 36.5179 106.163 34.1388 107.369 31.6963C104.165 31.2839 104.165 31.2839 102.864 33.885C102.262 35.0904 101.659 36.2958 101.056 37.5012C100.01 39.6265 98.9628 41.7201 97.7891 44.0357C99.0897 44.0357 100.105 44.0357 101.152 44.0357C103.055 44.0357 103.404 44.4798 103.182 46.3831C102.991 48.0325 102.801 49.7138 102.642 51.3632C102.738 51.395 102.833 51.4267 102.928 51.4267C104.736 48.2546 106.576 45.0191 108.574 41.5298Z" fill="white"/>
<path d="M68.3205 62.7827C73.5227 62.7827 78.7249 62.7827 83.9271 62.7827C86.4965 62.7827 88.2094 64.2736 88.2412 66.4941C88.2729 68.778 86.5282 70.2688 83.8637 70.2688C73.4592 70.2688 63.0548 70.2688 52.6504 70.2688C49.9858 70.2688 48.2412 68.778 48.2729 66.4941C48.3046 64.2419 50.0175 62.7827 52.7138 62.7827C57.916 62.7827 63.1182 62.7827 68.3205 62.7827ZM68.0984 67.7629C73.3006 67.7629 78.5029 67.7629 83.7051 67.7629C84.6884 67.7629 85.7669 67.7312 85.7035 66.4306C85.6401 65.2569 84.625 65.2569 83.7051 65.2569C73.3958 65.2569 63.1182 65.2569 52.809 65.2569C51.8256 65.2569 50.7471 65.2887 50.8106 66.5892C50.874 67.7629 51.8891 67.7629 52.809 67.7629C57.8843 67.7629 62.9914 67.7629 68.0984 67.7629Z" fill="white"/>
<path d="M68.1936 80.2609C62.9914 80.2609 57.7892 80.2609 52.5869 80.2609C50.0175 80.2609 48.3046 78.8017 48.2729 76.5813C48.2412 74.2974 49.9541 72.7748 52.6187 72.7748C63.0231 72.7748 73.4275 72.7748 83.832 72.7748C86.5282 72.7748 88.2412 74.2657 88.2412 76.5496C88.2412 78.8017 86.4965 80.2609 83.8003 80.2609C78.598 80.2609 73.3958 80.2609 68.1936 80.2609ZM68.257 77.755C73.3958 77.755 78.5663 77.755 83.7051 77.755C84.625 77.755 85.6401 77.755 85.7035 76.5813C85.7669 75.2807 84.6884 75.249 83.7051 75.249C73.3958 75.249 63.1183 75.249 52.809 75.249C51.8891 75.249 50.874 75.249 50.8106 76.4227C50.7471 77.7232 51.8256 77.755 52.809 77.755C57.9478 77.755 63.0865 77.755 68.257 77.755Z" fill="white"/>
<path d="M68.3205 82.7668C73.5227 82.7668 78.7249 82.7668 83.9271 82.7668C86.4965 82.7668 88.2094 84.2577 88.2412 86.4782C88.2729 88.7621 86.5282 90.253 83.8637 90.253C73.4592 90.253 63.0548 90.253 52.6504 90.253C49.9858 90.253 48.2412 88.7621 48.2729 86.4782C48.3046 84.226 50.0175 82.7668 52.7138 82.7668C57.916 82.7668 63.1182 82.7668 68.3205 82.7668ZM68.257 85.2728C63.1182 85.2728 57.9477 85.2728 52.809 85.2728C51.8891 85.2728 50.874 85.2728 50.8106 86.4465C50.7471 87.747 51.8256 87.7787 52.809 87.7787C63.1182 87.7787 73.3958 87.7787 83.7051 87.7787C84.625 87.7787 85.6401 87.7787 85.7035 86.6051C85.7669 85.3045 84.6884 85.2728 83.7051 85.2728C78.5346 85.2728 73.3958 85.2728 68.257 85.2728Z" fill="white"/>
</svg>
