<svg width="138" height="139" viewBox="0 0 138 139" fill="none" xmlns="http://www.w3.org/2000/svg">
<circle cx="68.8653" cy="69.2098" r="68.865" fill="white" fill-opacity="0.1"/>
<path d="M99.4794 83.5942C99.4794 89.5057 99.4794 95.3318 99.4794 101.243C102.443 101.243 105.363 101.243 108.263 101.243C110.992 101.243 111.93 102.161 111.93 104.871C111.93 106.045 111.93 107.219 111.93 108.393C111.908 110.399 110.821 111.487 108.817 111.487C102.144 111.487 95.4501 111.487 88.7773 111.487C70.379 111.487 51.9594 111.487 33.5611 111.487C31.0455 111.487 30.0648 110.505 30.0648 108.03C30.0648 106.92 30.0648 105.832 30.0648 104.722C30.0648 102.46 30.7896 101.606 33.0921 101.179C33.0921 99.8348 33.0921 98.469 33.0921 97.0605C32.0048 96.9751 30.9389 96.8257 30.3633 95.7373C29.4679 94.0514 30.2354 91.5331 31.9196 90.6154C33.3266 89.8471 33.4119 89.6551 33.0495 87.9051C30.5765 87.6063 30.0435 87.0301 30.0861 84.4905C30.1074 82.9966 30.278 81.5241 30.278 80.0302C30.278 78.515 30.1074 76.9997 30.0861 75.4632C30.0435 72.9022 30.5551 72.3474 33.22 71.9632C33.22 70.9388 33.1561 69.8931 33.2413 68.8474C33.3479 67.2468 34.5205 66.0304 36.0341 65.7956C37.6757 65.5609 39.2533 66.4145 39.7863 67.9297C39.9994 68.5273 39.9994 69.1889 40.0208 69.8078C40.0634 70.512 40.0208 71.2163 40.0208 71.9846C51.128 71.9846 62.1285 71.9846 73.2571 71.9846C73.2571 71.0669 73.2357 70.1919 73.2571 69.3169C73.2997 67.2041 74.7067 65.7316 76.6468 65.7316C78.5868 65.7316 80.0365 67.2255 80.1218 69.2956C80.1431 70.1706 80.1218 71.0669 80.1218 71.9205C82.7227 72.4327 83.1491 72.9236 83.1064 75.5912C83.0851 77.0851 82.9146 78.5577 82.9146 80.0515C82.9146 81.6521 83.0851 83.2314 83.1064 84.832C83.1491 86.9447 82.3816 87.713 80.1218 87.8624C80.1218 88.46 80.0365 89.1002 80.1644 89.6978C80.207 89.9752 80.6121 90.2526 80.9106 90.402C82.2963 91.0636 83.0212 92.152 83.1277 93.6672C83.2983 95.8654 82.4669 96.8044 80.1431 97.0391C80.1431 97.722 80.1431 98.4263 80.1431 99.1306C80.1431 99.7921 80.1431 100.475 80.1431 101.201C85.7926 101.201 91.3356 101.201 96.9638 101.201C96.9638 95.3532 96.9638 89.5484 96.9638 83.9356C95.0237 83.1674 93.0837 82.5911 91.3142 81.6735C88.9478 80.457 87.2636 78.4723 86.0484 76.1248C85.5368 75.1217 85.6647 74.4388 86.4109 74.1187C87.3063 73.7345 87.754 74.2681 88.159 74.9937C90.1417 78.6003 93.2756 80.7558 97.0277 81.0973C97.0277 80.5424 97.0277 79.9875 97.0277 79.454C97.0277 77.3199 96.9851 75.1857 97.049 73.0516C97.0704 72.262 96.8785 71.6858 96.2602 71.1949C95.8552 70.8748 95.4928 70.448 95.1303 70.0639C94.5974 69.5517 94.2989 68.9541 94.8319 68.2925C95.3435 67.6523 95.9618 67.631 96.6013 68.1432C96.6866 68.2072 96.7932 68.2285 97.0277 68.3352C97.0277 66.3505 97.0704 64.4511 96.9851 62.5731C96.9638 62.1676 96.4308 61.7835 96.111 61.4207C95.7486 61.0152 95.3435 60.6737 94.9811 60.2896C94.5121 59.7988 94.3629 59.2439 94.8319 58.6677C95.3222 58.0915 95.8765 57.9848 96.5161 58.4756C96.6227 58.561 96.7506 58.6036 97.049 58.7744C97.049 57.3445 97.0704 56.064 97.049 54.7622C97.0277 53.8659 97.2836 53.183 98.2429 53.0336C98.9891 52.9269 99.4581 53.6525 99.4794 54.7836C99.4794 54.997 99.4794 55.2104 99.4794 55.4238C99.4794 56.9817 99.4794 58.561 99.4794 60.1189C99.4794 60.4603 99.5221 60.8018 99.5434 61.2926C99.8418 61.0792 99.9911 60.9725 100.162 60.8658C100.737 60.4603 101.419 60.439 101.739 61.0365C101.952 61.4634 101.739 62.1036 101.697 62.6585C101.697 62.7225 101.611 62.7865 101.547 62.8079C99.5647 64.0883 99.2236 66.009 99.4581 68.1858C99.5434 69.0181 99.4794 69.8718 99.4794 70.7041C99.6286 70.7254 99.7352 70.7681 99.7566 70.7468C100.417 70.2133 101.142 69.8291 101.782 70.6614C102.421 71.4724 101.931 72.1766 101.27 72.6675C99.7566 73.7986 99.2236 75.2284 99.4368 77.0851C99.586 78.3656 99.4581 79.6887 99.4581 81.1186C102.294 80.8198 104.532 79.6674 106.387 77.7467C110.267 73.7772 110.693 67.5029 107.261 63.128C105.598 61.0152 105.129 58.9238 105.918 56.3201C107.176 52.1373 104.852 47.8904 100.886 46.5459C96.7932 45.18 92.5507 47.1007 90.8665 51.0915C90.0777 52.9696 90.0777 54.9116 90.7386 56.811C91.4848 58.9238 91.0797 60.8018 89.7153 62.5091C88.0524 64.5578 87.0931 66.8627 87.0078 69.5303C86.9865 70.2986 86.7093 70.9389 85.7713 70.9389C84.812 70.9175 84.6414 70.2773 84.6414 69.4877C84.6627 66.3718 85.7287 63.6402 87.69 61.25C88.692 60.0335 88.9052 58.7744 88.3935 57.3018C87.0504 53.3324 88.3083 49.0001 91.5488 46.2044C94.64 43.5368 99.2236 42.9606 102.826 44.7746C106.707 46.7379 108.945 50.622 108.604 54.8689C108.54 55.7012 108.412 56.5762 108.135 57.3659C107.666 58.8171 107.879 60.0335 108.86 61.2286C112.718 66.009 113.06 72.4541 109.67 77.5119C107.24 81.0759 103.828 83.0393 99.4794 83.5942ZM71.1038 103.591C65.3051 103.591 59.5276 103.591 53.7289 103.591C47.0134 103.591 40.2979 103.612 33.5824 103.57C32.7084 103.57 32.3459 103.826 32.4099 104.722C32.4738 105.682 32.4312 106.643 32.4312 107.603C32.4312 109.118 32.4312 109.118 33.9662 109.118C58.6536 109.118 83.3409 109.118 108.028 109.118C108.199 109.118 108.391 109.097 108.561 109.118C109.286 109.182 109.606 108.905 109.585 108.137C109.542 107.112 109.585 106.066 109.585 105.042C109.585 103.591 109.585 103.591 108.092 103.591C95.7699 103.591 83.4262 103.591 71.1038 103.591ZM40.0847 90.0606C51.1919 90.0606 62.1499 90.0606 73.1931 90.0606C73.1931 89.2923 73.1931 88.5667 73.1931 87.777C72.7241 87.777 72.3403 87.777 71.9566 87.777C65.2838 87.777 58.6109 87.777 51.9168 87.777C51.597 87.777 51.2772 87.7984 50.9574 87.7557C50.2752 87.649 49.7635 87.2008 49.9554 86.5179C50.0833 86.0911 50.595 85.7283 51.0214 85.4509C51.2559 85.3015 51.6396 85.4295 51.9594 85.4295C61.1266 85.4295 70.2937 85.4295 79.4609 85.4295C79.8659 85.4295 80.2923 85.4295 80.7187 85.4295C80.7187 83.9356 80.7187 82.6125 80.7187 81.204C64.6229 81.204 48.591 81.204 32.5165 81.204C32.5165 82.6125 32.5165 83.9783 32.5165 85.4295C32.9642 85.4295 33.3692 85.4295 33.753 85.4295C37.3772 85.4295 41.0014 85.4295 44.6257 85.4295C45.5211 85.4295 46.5017 85.2801 46.6723 86.5393C46.7789 87.3929 46.0967 87.777 44.6257 87.777C43.112 87.777 41.5984 87.777 40.106 87.777C40.0847 88.6307 40.0847 89.3136 40.0847 90.0606ZM32.4952 78.6644C48.6123 78.6644 64.6442 78.6644 80.7187 78.6644C80.7187 77.2772 80.7187 75.9327 80.7187 74.5882C64.6229 74.5882 48.591 74.5882 32.4952 74.5882C32.4952 75.9327 32.4952 77.2345 32.4952 78.6644ZM40.0847 101.158C51.1493 101.158 62.1712 101.158 73.2144 101.158C73.2144 99.7495 73.2144 98.405 73.2144 97.0391C62.1499 97.0391 51.128 97.0391 40.0847 97.0391C40.0847 98.4476 40.0847 99.7921 40.0847 101.158ZM80.7187 94.4355C80.74 92.8776 80.3563 92.5148 78.8853 92.5148C66.8827 92.5148 54.8801 92.5148 42.8988 92.5148C39.9568 92.5148 37.0148 92.4935 34.0514 92.5148C32.751 92.5148 32.3033 93.1123 32.5804 94.4355C48.6123 94.4355 64.6229 94.4355 80.7187 94.4355ZM35.6717 96.9964C35.6717 98.469 35.6717 99.8348 35.6717 101.158C36.3326 101.158 36.9295 101.158 37.4838 101.158C37.4838 99.7281 37.4838 98.3623 37.4838 96.9964C36.8442 96.9964 36.2899 96.9964 35.6717 96.9964ZM75.7727 96.9964C75.7727 98.469 75.7727 99.8348 75.7727 101.158C76.4336 101.158 77.0305 101.158 77.5848 101.158C77.5848 99.7281 77.5848 98.3623 77.5848 96.9964C76.9452 96.9964 76.3696 96.9964 75.7727 96.9964ZM37.5478 72.0059C37.5478 70.9389 37.633 69.9785 37.5051 69.0395C37.4625 68.698 36.9295 68.2499 36.5671 68.2072C36.2899 68.1645 35.693 68.6553 35.6504 68.9541C35.5225 69.9572 35.6077 70.9602 35.6077 72.0059C36.3113 72.0059 36.8656 72.0059 37.5478 72.0059ZM77.6488 72.0059C77.6488 70.9389 77.734 69.9785 77.6061 69.0395C77.5635 68.698 77.0092 68.2499 76.6468 68.2072C76.3696 68.1645 75.7727 68.6553 75.7514 68.9541C75.6448 69.9572 75.7087 70.9815 75.7087 71.9846C76.4123 72.0059 76.9666 72.0059 77.6488 72.0059ZM37.5051 90.0819C37.5051 89.2709 37.5051 88.588 37.5051 87.8838C36.8442 87.8838 36.226 87.8838 35.6504 87.8838C35.6504 88.652 35.6504 89.3563 35.6504 90.0819C36.3113 90.0819 36.8656 90.0819 37.5051 90.0819ZM75.7301 90.0392C76.4123 90.0392 76.9879 90.0392 77.6061 90.0392C77.6061 89.2709 77.6061 88.588 77.6061 87.8411C76.9666 87.8411 76.3696 87.8411 75.7301 87.8411C75.7301 88.588 75.7301 89.2709 75.7301 90.0392Z" fill="white"/>
<path d="M44.4125 36.7716C48.3565 36.7716 51.5117 39.9514 51.4904 43.8782C51.469 47.805 48.2925 50.9848 44.3698 50.9635C40.4471 50.9635 37.3132 47.805 37.3132 43.8569C37.3132 39.8874 40.4471 36.7716 44.4125 36.7716ZM49.06 43.9209C49.0813 41.2533 47.0134 39.1405 44.3911 39.1405C41.8542 39.1405 39.701 41.2746 39.6796 43.8142C39.637 46.3965 41.7049 48.5093 44.2845 48.5306C47.0134 48.5733 49.0387 46.5886 49.06 43.9209Z" fill="white"/>
<path d="M82.2112 40.9971C83.3411 40.4422 84.5136 39.7593 85.7714 39.2258C86.5389 38.9057 87.3277 39.0977 87.5622 40.0154C87.7967 40.9331 87.1998 41.3172 86.347 41.5306C84.8547 41.8721 83.8101 42.8111 83.4477 44.3263C83.2771 45.0092 82.8934 45.4147 82.2112 45.4147C81.529 45.4147 81.1452 44.9666 80.996 44.305C80.6336 42.7684 79.5676 41.8721 78.0753 41.5306C77.2012 41.3385 76.6896 40.9331 76.9027 40.0154C77.1372 39.055 77.9474 38.927 78.6935 39.2471C79.93 39.7593 81.1239 40.4422 82.2112 40.9971Z" fill="white"/>
<path d="M65.2412 31.0308C66.2645 30.5613 67.2878 30.0277 68.3538 29.6223C69.0786 29.3448 69.7395 29.6436 69.9314 30.4119C70.1446 31.1802 69.7821 31.7137 68.972 31.8844C67.6289 32.1619 66.8401 32.9942 66.3711 34.2746C66.2219 34.6801 65.6463 35.2136 65.3052 35.1923C64.8788 35.171 64.2605 34.6801 64.1113 34.2746C63.6423 32.9728 62.8535 32.1619 61.5104 31.8844C60.7003 31.7137 60.3378 31.1802 60.551 30.4119C60.7642 29.6223 61.4251 29.3448 62.1286 29.6009C63.1946 30.0277 64.2179 30.5613 65.2412 31.0308Z" fill="white"/>
<path d="M54.944 34.4881C54.7522 34.9149 54.6882 35.2564 54.4963 35.4698C53.942 36.0674 53.4304 36.7289 52.7482 37.1344C52.3644 37.3692 51.5756 37.3265 51.1706 37.0917C50.595 36.7503 50.6163 36.046 51.0853 35.5125C51.6609 34.8509 52.2792 34.1893 52.9614 33.6771C53.2385 33.4637 53.8355 33.4637 54.1979 33.5918C54.5177 33.7198 54.7095 34.168 54.944 34.4881Z" fill="white"/>
<path d="M34.8401 54.314C34.7122 54.2073 34.2432 54.0152 34.1153 53.7164C33.966 53.3536 33.9873 52.7561 34.2005 52.4786C34.7548 51.753 35.4157 51.0914 36.1406 50.5366C36.4177 50.3232 37.0573 50.3232 37.3984 50.4939C37.6969 50.6433 37.9314 51.1341 37.974 51.5183C38.038 52.2439 35.9061 54.2926 34.8401 54.314Z" fill="white"/>
<path d="M32.4524 45.0947C32.026 45.0947 31.5143 45.2441 31.1945 45.052C30.7468 44.7746 30.1499 44.2837 30.1499 43.8569C30.1499 43.4727 30.7682 42.8538 31.2159 42.7471C31.9833 42.5551 32.8361 42.6618 33.6462 42.7045C34.3924 42.7258 34.8614 43.1313 34.8401 43.8996C34.8188 44.6465 34.3497 45.0306 33.6249 45.0947C33.2412 45.116 32.8574 45.0947 32.4524 45.0947Z" fill="white"/>
<path d="M45.6063 32.0552C45.6063 32.4394 45.7555 32.9302 45.5637 33.2077C45.2865 33.6558 44.8388 34.168 44.3698 34.2747C43.7089 34.4241 43.2399 33.9119 43.2186 33.2077C43.1759 32.354 43.0907 31.479 43.2612 30.6681C43.3465 30.2412 43.9647 29.601 44.2845 29.6223C44.7535 29.6437 45.3078 30.1559 45.5637 30.5827C45.7555 30.9668 45.6063 31.5644 45.6063 32.0552Z" fill="white"/>
<path d="M56.3084 42.683C56.7348 42.683 57.2252 42.5336 57.5663 42.7257C57.9926 42.9391 58.483 43.366 58.6109 43.7928C58.8028 44.4757 58.3124 44.9879 57.6302 45.0519C56.7561 45.1373 55.8607 45.1373 54.9654 45.0519C54.3045 44.9879 53.7715 44.4757 53.9847 43.7928C54.1126 43.366 54.6029 42.9391 55.0506 42.7044C55.3917 42.555 55.8821 42.7044 56.3084 42.683Z" fill="white"/>
<path d="M43.2187 55.7226C43.2187 55.3384 43.1974 54.9329 43.2187 54.5488C43.2613 53.8445 43.6877 53.311 44.3699 53.4604C44.8389 53.5671 45.4572 54.0793 45.5638 54.5061C45.7557 55.3171 45.6704 56.2134 45.6064 57.0457C45.5425 57.7073 45.1161 58.1341 44.3699 58.1128C43.6451 58.0914 43.2613 57.686 43.2187 56.9817C43.1974 56.5976 43.2187 56.1494 43.2187 55.7226Z" fill="white"/>
<path d="M38.0381 36.4728C37.8889 36.6863 37.697 37.1344 37.3773 37.2838C37.0575 37.4332 36.4605 37.4545 36.2047 37.2625C35.4372 36.6436 34.7337 35.9393 34.1368 35.171C33.9236 34.8936 34.0089 34.168 34.2434 33.8479C34.4352 33.5704 35.2027 33.3357 35.4159 33.4851C36.3113 34.1893 37.1001 35.043 37.9102 35.8539C37.9955 35.9393 37.9742 36.1314 38.0381 36.4728Z" fill="white"/>
<path d="M54.8587 53.3963C54.7094 53.5884 54.5176 54.0579 54.1978 54.1646C53.814 54.2926 53.2171 54.2499 52.9186 54.0365C52.2151 53.503 51.5756 52.8628 51.0639 52.1585C50.8294 51.8384 50.8294 51.1341 51.0426 50.814C51.2558 50.4939 52.0659 50.1951 52.2791 50.3658C53.1745 51.0701 53.9633 51.9451 54.7734 52.7561C54.8374 52.8414 54.816 53.0335 54.8587 53.3963Z" fill="white"/>
</svg>
