<svg width="138" height="139" viewBox="0 0 138 139" fill="none" xmlns="http://www.w3.org/2000/svg">
<circle cx="69.0061" cy="69.399" r="68.8648" fill="white" fill-opacity="0.1"/>
<g clip-path="url(#clip0_237_1338)">
<path d="M96.2604 75.6148C96.2604 76.0215 96.2604 76.3575 96.2604 76.7112C96.2604 82.9888 96.2785 89.2664 96.2604 95.544C96.2604 99.1337 94.4411 101.769 91.1626 102.865C90.406 103.113 89.5774 103.219 88.7848 103.219C85.2181 103.254 81.6334 103.236 78.0667 103.236C76.4816 103.236 75.743 102.529 75.743 100.973C75.743 95.9684 75.6709 90.9463 75.761 85.9419C75.815 83.5547 74.2839 81.7863 71.6539 81.9455C69.7985 82.0516 67.9251 81.9632 66.0697 81.9632C63.8 81.9808 62.431 83.3071 62.413 85.5352C62.413 90.575 62.413 95.6147 62.413 100.655C62.413 102.582 61.7465 103.236 59.765 103.236C56.2883 103.236 52.7937 103.254 49.3171 103.236C45.1379 103.219 41.9135 100.053 41.8955 95.9507C41.8775 89.5493 41.8955 83.1656 41.8955 76.7642C41.8955 76.4106 41.8955 76.0746 41.8955 75.6325C41.3731 75.5971 40.9048 75.5794 40.4364 75.5441C37.6983 75.2788 35.7529 73.9172 34.8522 71.3531C34.0056 68.9128 34.528 66.6847 36.4014 64.8456C40.6886 60.6016 45.0119 56.3752 49.3171 52.1489C54.2888 47.3036 59.3326 42.4938 64.1963 37.5247C66.7362 34.9253 71.3117 34.8722 73.9777 37.5247C83.0565 46.5963 92.2254 55.5972 101.466 64.5096C104.619 67.5512 104.168 72.8916 100.422 74.7483C99.4849 75.2081 98.386 75.3319 97.3413 75.5794C97.017 75.6325 96.6928 75.5971 96.2604 75.6148ZM58.3419 99.3283C58.3419 98.8862 58.3419 98.5325 58.3419 98.1965C58.3419 93.9879 58.3599 89.7615 58.3419 85.5529C58.3239 81.1674 61.7465 78.2319 65.0249 78.0728C67.2046 77.9667 69.4022 77.9667 71.5999 77.9844C72.4285 77.9844 73.2932 78.0374 74.1038 78.2143C77.2922 78.8862 79.724 81.7863 79.76 85.0224C79.8141 89.4432 79.778 93.8641 79.778 98.2849C79.778 98.6209 79.778 98.9569 79.778 99.3459C82.6962 99.3459 85.4523 99.3459 88.2084 99.3459C90.8564 99.3459 92.1894 98.0374 92.1894 95.4379C92.1894 88.2761 92.1894 81.1143 92.1894 73.9526C92.1894 72.3964 93 71.6184 94.5672 71.6007C95.4678 71.6007 96.3685 71.6007 97.2692 71.6007C98.1158 71.6007 98.7823 71.247 99.2327 70.5573C99.8812 69.6024 99.647 68.4353 98.5842 67.392C89.4153 58.3735 80.2644 49.3903 71.0775 40.3894C69.6364 38.9748 68.5015 38.9924 67.0605 40.3894C61.6924 45.6591 56.3244 50.9287 50.9563 56.1984C47.1194 59.965 43.2826 63.7492 39.4276 67.5158C38.6711 68.2585 38.2568 69.0719 38.6891 70.1329C39.0854 71.1232 39.86 71.583 41.1209 71.583C41.8775 71.583 42.616 71.583 43.3726 71.583C45.21 71.583 45.9305 72.2903 45.9305 74.094C45.9305 80.1064 45.9305 86.1188 45.9305 92.1311C45.9305 93.4043 45.8945 94.6598 45.9486 95.933C46.0026 97.8075 47.3176 99.2575 49.191 99.3106C52.1813 99.3813 55.1895 99.3283 58.3419 99.3283Z" fill="white"/>
</g>
<defs>
<clipPath id="clip0_237_1338">
<rect width="69.064" height="67.7098" fill="white" transform="translate(34.4739 35.5439)"/>
</clipPath>
</defs>
</svg>
